<svg width="8" height="9" viewBox="0 0 8 9" fill="none" xmlns="http://www.w3.org/2000/svg">
<path d="M4 2.45834C3.15278 2.45834 2.45833 3.15278 2.45833 4C2.45833 4.84722 3.15278 5.54166 4 5.54166C4.84722 5.54166 5.54167 4.84722 5.54167 4C5.54167 3.15278 4.84722 2.45834 4 2.45834ZM4 4.99999C3.44444 4.99999 3.00001 4.55555 3.00001 4C3.00001 3.44445 3.44444 3.00001 4 3.00001C4.55556 3.00001 4.99999 3.44445 4.99999 4C4.99999 4.55555 4.54168 4.99999 4 4.99999ZM5.95834 2.40278C5.95834 2.59722 5.79166 2.7639 5.59722 2.7639C5.40278 2.7639 5.2361 2.59722 5.2361 2.40278C5.2361 2.20833 5.40278 2.04167 5.59722 2.04167C5.79166 2.04167 5.95834 2.19444 5.95834 2.40278ZM6.98612 2.7639C6.97221 2.44446 6.91666 2.22221 6.84723 2.02779C6.76389 1.83334 6.66667 1.66666 6.49999 1.50001C6.33334 1.33333 6.16666 1.23611 5.97222 1.15277C5.77778 1.08334 5.56946 1.02777 5.2361 1.01389C4.91668 1 4.81943 1 4 1C3.18054 1 3.08332 1 2.7639 1.01389C2.44445 1.02777 2.22222 1.08334 2.02778 1.15277C1.83334 1.23611 1.66666 1.33333 1.50001 1.50001C1.33333 1.66666 1.23611 1.83334 1.15277 2.02779C1.08334 2.22221 1.02779 2.44446 1.01388 2.7639C1 3.08332 1 3.18055 1 4C1 4.81945 1 4.91668 1.01388 5.23612C1.02779 5.55557 1.08334 5.77779 1.15277 5.97223C1.23611 6.16666 1.33333 6.33334 1.50001 6.49999C1.66666 6.66667 1.83334 6.76389 2.02778 6.84723C2.22222 6.91666 2.43057 6.97223 2.7639 6.98611C3.08332 7 3.18054 7 4 7C4.81943 7 4.91668 7 5.2361 6.98611C5.55555 6.97223 5.77778 6.91666 5.97222 6.84723C6.16666 6.76389 6.33334 6.66667 6.49999 6.49999C6.66667 6.33334 6.76389 6.16666 6.84723 5.97223C6.91666 5.77779 6.97221 5.55557 6.98612 5.23612C7 4.91668 7 4.81945 7 4C7 3.18055 7 3.08332 6.98612 2.7639ZM6.44444 5.22223C6.43056 5.51389 6.38889 5.68056 6.34722 5.77779C6.29167 5.91667 6.22221 6.01389 6.12499 6.125C6.01389 6.23611 5.91667 6.29168 5.77778 6.34722C5.66668 6.38888 5.51388 6.43056 5.22222 6.44445C4.90277 6.45833 4.80555 6.45833 4.01388 6.45833C3.20833 6.45833 3.11111 6.45833 2.80557 6.44445C2.51388 6.43056 2.34723 6.38888 2.25001 6.34722C2.11112 6.29168 2.0139 6.22223 1.90277 6.125C1.79167 6.01389 1.73612 5.91667 1.68055 5.77779C1.6389 5.66668 1.59723 5.51389 1.58332 5.22223C1.56944 4.90279 1.56944 4.80557 1.56944 4.01389C1.56944 3.20834 1.56944 3.11112 1.58332 2.80556C1.59723 2.51389 1.6389 2.34723 1.68055 2.25001C1.73612 2.1111 1.80555 2.01388 1.90277 1.90277C2.0139 1.79166 2.11112 1.73611 2.25001 1.68055C2.36111 1.63889 2.51388 1.59723 2.80557 1.58332C3.12499 1.56944 3.22221 1.56944 4.01388 1.56944C4.81943 1.56944 4.91668 1.56944 5.22222 1.58332C5.51388 1.59723 5.68056 1.63889 5.77778 1.68055C5.91667 1.73611 6.01389 1.80557 6.12499 1.90277C6.23612 2.01388 6.29167 2.1111 6.34722 2.25001C6.38889 2.36112 6.43056 2.51389 6.44444 2.80556C6.45832 3.125 6.45832 3.22223 6.45832 4.01389C6.45832 4.80557 6.45832 4.90279 6.44444 5.22223Z" fill="#282828"/>
</svg>
