<svg width="73" height="71" viewBox="0 0 73 71" fill="none" xmlns="http://www.w3.org/2000/svg">
<g clip-path="url(#clip0_108_234)">
<path d="M36.5001 70.7797C56.0453 70.7797 71.8899 54.9351 71.8899 35.3898C71.8899 15.8446 56.0453 0 36.5001 0C16.9548 0 1.11023 15.8446 1.11023 35.3898C1.11023 54.9351 16.9548 70.7797 36.5001 70.7797Z" fill="#282828"/>
<path d="M50.9695 27.2406C50.9695 27.5431 50.9695 27.9213 50.9695 28.2238C50.9695 38.5108 43.1476 50.4618 28.8578 50.4618C24.4956 50.4618 20.3591 49.176 16.9746 46.9824C17.5762 47.0581 18.178 47.0581 18.8549 47.0581C22.4649 47.0581 25.8494 45.8479 28.4817 43.73C25.0973 43.6543 22.2393 41.3851 21.2615 38.284C21.7128 38.3596 22.2393 38.4352 22.6906 38.4352C23.3675 38.4352 24.1196 38.3596 24.7212 38.1326C21.1864 37.4519 18.4788 34.275 18.4788 30.4931V30.4174C19.5317 31.0226 20.7351 31.3251 22.0136 31.4008C19.9078 29.9636 18.554 27.6188 18.554 24.8957C18.554 23.4587 18.9301 22.0971 19.607 20.9626C23.4427 25.6522 29.1586 28.829 35.6266 29.1315C35.4762 28.5265 35.401 27.997 35.401 27.3163C35.401 23.0048 38.8607 19.5254 43.1476 19.5254C45.4039 19.5254 47.4345 20.5087 48.7884 22.0215C50.5934 21.6433 52.248 21.0381 53.7522 20.1306C53.1505 21.9458 51.9472 23.4587 50.3677 24.4419C51.9472 24.2907 53.4514 23.8368 54.8051 23.2317C53.8274 24.7445 52.4737 26.1059 50.9695 27.2406Z" fill="#D0ED5D"/>
</g>
<defs>
<clipPath id="clip0_108_234">
<rect width="72" height="70.7797" fill="white" transform="translate(0.5)"/>
</clipPath>
</defs>
</svg>
