<svg width="84" height="47" viewBox="0 0 84 47" fill="none" xmlns="http://www.w3.org/2000/svg">
<rect width="84" height="46.6667" fill="#FF004C"/>
<path d="M12.967 18.095C13.5923 17.5537 14.423 17.283 15.459 17.283C15.9677 17.283 16.453 17.3787 16.915 17.57C17.377 17.7567 17.7783 18.0343 18.119 18.403C18.413 18.711 18.6323 19.0727 18.777 19.488C18.9217 19.8987 18.994 20.3303 18.994 20.783C18.994 21.2637 18.9263 21.6743 18.791 22.015C18.6557 22.351 18.4713 22.6543 18.238 22.925C18.1167 23.0603 17.9697 23.212 17.797 23.38C17.6243 23.548 17.419 23.737 17.181 23.947L14.486 26.32H18.994V27.986H11.77V26.453L16.264 22.442C16.8753 21.9007 17.181 21.343 17.181 20.769C17.181 20.531 17.1413 20.3047 17.062 20.09C16.9873 19.8707 16.8777 19.6793 16.733 19.516C16.411 19.1333 15.9723 18.942 15.417 18.942C14.9223 18.942 14.5093 19.0937 14.178 19.397C13.996 19.5603 13.8513 19.7633 13.744 20.006C13.6367 20.2487 13.583 20.4983 13.583 20.755H11.791C11.791 19.663 12.183 18.7763 12.967 18.095ZM27.4087 26.978C27.0587 27.384 26.634 27.6897 26.1347 27.895C25.6353 28.1003 25.0963 28.203 24.5177 28.203C24.2377 28.203 23.9623 28.1773 23.6917 28.126C23.421 28.0747 23.162 27.9977 22.9147 27.895C22.672 27.7923 22.441 27.664 22.2217 27.51C22.0023 27.356 21.8063 27.1787 21.6337 26.978C21.2977 26.572 21.0643 26.1543 20.9337 25.725C20.8077 25.305 20.7447 24.794 20.7447 24.192V21.294C20.7447 20.7013 20.8053 20.1903 20.9267 19.761C21.0433 19.3503 21.279 18.928 21.6337 18.494C21.979 18.0973 22.4037 17.7963 22.9077 17.591C23.1643 17.4837 23.4257 17.4043 23.6917 17.353C23.9623 17.3017 24.2377 17.2783 24.5177 17.283C25.0777 17.2643 25.6073 17.36 26.1067 17.57C26.6107 17.7753 27.0447 18.0833 27.4087 18.494C27.7633 18.9 27.999 19.3107 28.1157 19.726C28.237 20.1553 28.2977 20.678 28.2977 21.294V24.192C28.2977 24.7847 28.2347 25.298 28.1087 25.732C27.9827 26.166 27.7493 26.5813 27.4087 26.978ZM26.2397 19.922C26.0763 19.6187 25.836 19.3783 25.5187 19.201C25.206 19.019 24.8723 18.9327 24.5177 18.942C24.177 18.9373 23.8503 19.0237 23.5377 19.201C23.2343 19.3737 22.994 19.6093 22.8167 19.908C22.7093 20.09 22.6347 20.2883 22.5927 20.503C22.5553 20.7177 22.5367 20.9813 22.5367 21.294V24.192C22.5367 24.514 22.5553 24.787 22.5927 25.011C22.6347 25.235 22.7233 25.445 22.8587 25.641C23.0453 25.921 23.2857 26.145 23.5797 26.313C23.8783 26.4763 24.191 26.5533 24.5177 26.544C24.6857 26.5487 24.8513 26.53 25.0147 26.488C25.1827 26.446 25.339 26.3853 25.4837 26.306C25.6283 26.222 25.7613 26.1217 25.8827 26.005C26.0087 25.8883 26.1137 25.76 26.1977 25.62C26.3283 25.4333 26.4123 25.2373 26.4497 25.032C26.487 24.8173 26.5057 24.5373 26.5057 24.192V21.294C26.5057 21.1307 26.501 20.986 26.4917 20.86C26.487 20.7293 26.4753 20.6173 26.4567 20.524C26.4287 20.3373 26.3563 20.1367 26.2397 19.922ZM30.1953 19.908C30.186 19.5627 30.2536 19.2313 30.3983 18.914C30.543 18.592 30.7366 18.3097 30.9793 18.067C31.2266 17.8197 31.509 17.626 31.8263 17.486C32.1483 17.3413 32.4796 17.2737 32.8203 17.283C33.1703 17.2737 33.504 17.339 33.8213 17.479C34.1433 17.619 34.4256 17.8103 34.6683 18.053C34.911 18.291 35.1023 18.571 35.2423 18.893C35.3823 19.215 35.45 19.5533 35.4453 19.908C35.45 20.2627 35.3823 20.601 35.2423 20.923C35.1023 21.245 34.911 21.5273 34.6683 21.77C34.4256 22.008 34.1433 22.197 33.8213 22.337C33.504 22.477 33.1703 22.5423 32.8203 22.533C32.4656 22.5423 32.1273 22.477 31.8053 22.337C31.488 22.197 31.208 22.008 30.9653 21.77C30.7273 21.5273 30.5383 21.245 30.3983 20.923C30.2583 20.601 30.1906 20.2627 30.1953 19.908ZM30.6293 26.831L39.9673 17.5L41.1363 18.683L31.7983 28L30.6293 26.831ZM33.9403 19.908C33.9403 19.5953 33.8306 19.3293 33.6113 19.11C33.392 18.8907 33.1283 18.781 32.8203 18.781C32.5216 18.781 32.258 18.8907 32.0293 19.11C31.81 19.3293 31.7003 19.5953 31.7003 19.908C31.7003 20.202 31.81 20.4633 32.0293 20.692C32.2533 20.916 32.517 21.028 32.8203 21.028C33.1283 21.028 33.392 20.916 33.6113 20.692C33.8306 20.4633 33.9403 20.202 33.9403 19.908ZM36.3203 25.592C36.311 25.2467 36.3786 24.9153 36.5233 24.598C36.668 24.276 36.8616 23.9937 37.1043 23.751C37.3516 23.5037 37.634 23.31 37.9513 23.17C38.2733 23.0253 38.6046 22.9577 38.9453 22.967C39.2953 22.9577 39.629 23.023 39.9463 23.163C40.2683 23.303 40.5506 23.4943 40.7933 23.737C41.036 23.975 41.2273 24.255 41.3673 24.577C41.5073 24.899 41.575 25.2373 41.5703 25.592C41.575 25.9467 41.5073 26.285 41.3673 26.607C41.2273 26.929 41.036 27.2113 40.7933 27.454C40.5506 27.692 40.2683 27.881 39.9463 28.021C39.629 28.161 39.2953 28.2263 38.9453 28.217C38.5906 28.2263 38.2523 28.161 37.9303 28.021C37.613 27.881 37.333 27.692 37.0903 27.454C36.8523 27.2113 36.6633 26.929 36.5233 26.607C36.3833 26.285 36.3156 25.9467 36.3203 25.592ZM40.0793 25.592C40.0793 25.2933 39.9673 25.032 39.7433 24.808C39.524 24.584 39.258 24.472 38.9453 24.472C38.642 24.472 38.3783 24.584 38.1543 24.808C37.935 25.0367 37.8253 25.298 37.8253 25.592C37.8253 25.8907 37.935 26.1543 38.1543 26.383C38.3783 26.607 38.642 26.719 38.9453 26.719C39.258 26.719 39.524 26.607 39.7433 26.383C39.9673 26.159 40.0793 25.8953 40.0793 25.592ZM47.1631 26.509C46.7524 26.0003 46.4468 25.4287 46.2461 24.794C46.0501 24.1547 45.9521 23.4733 45.9521 22.75C45.9521 22.0267 46.0501 21.343 46.2461 20.699C46.4468 20.055 46.7524 19.4787 47.1631 18.97C47.5971 18.424 48.1501 18.0063 48.8221 17.717C49.4988 17.4277 50.2198 17.283 50.9851 17.283C51.7598 17.283 52.4761 17.4277 53.1341 17.717C53.7968 18.0017 54.3544 18.4193 54.8071 18.97C55.5818 19.9453 55.9808 21.2053 56.0041 22.75C55.9948 23.4967 55.8968 24.1827 55.7101 24.808C55.5234 25.4287 55.2224 25.9957 54.8071 26.509C54.3544 27.0737 53.7898 27.5007 53.1131 27.79C52.4551 28.0747 51.7458 28.217 50.9851 28.217C50.2198 28.217 49.4988 28.0723 48.8221 27.783C48.1594 27.489 47.6064 27.0643 47.1631 26.509ZM53.4071 25.445C53.9018 24.7917 54.1491 23.8933 54.1491 22.75C54.1491 21.602 53.9018 20.7037 53.4071 20.055C53.2718 19.8683 53.1131 19.705 52.9311 19.565C52.7538 19.425 52.5578 19.3107 52.3431 19.222C52.1284 19.1287 51.9021 19.0587 51.6641 19.012C51.4261 18.9653 51.1811 18.942 50.9291 18.942C50.4484 18.942 49.9981 19.0377 49.5781 19.229C49.1581 19.4157 48.8151 19.691 48.5491 20.055C48.0358 20.7177 47.7884 21.616 47.8071 22.75C47.8071 23.898 48.0544 24.7963 48.5491 25.445C48.8198 25.823 49.1721 26.103 49.6061 26.285C50.0448 26.467 50.5231 26.558 51.0411 26.558C51.5124 26.558 51.9581 26.4647 52.3781 26.278C52.8028 26.0913 53.1458 25.8137 53.4071 25.445ZM59.354 19.25V21.875H63.043V23.625H59.354V28H57.604V17.5H63.918V19.25H59.354ZM66.9829 19.25V21.875H70.6719V23.625H66.9829V28H65.2329V17.5H71.5469V19.25H66.9829Z" fill="white"/>
</svg>
