<svg width="30" height="30" viewBox="0 0 30 30" fill="none" xmlns="http://www.w3.org/2000/svg">
<path d="M0 15C0 6.71573 6.71573 0 15 0V0C23.2843 0 30 6.71573 30 15V15C30 23.2843 23.2843 30 15 30V30C6.71573 30 0 23.2843 0 15V15Z" fill="#F8FCF5"/>
<path d="M11.529 9.265C12.333 8.569 13.401 8.221 14.733 8.221C15.387 8.221 16.011 8.344 16.605 8.59C17.199 8.83 17.715 9.187 18.153 9.661C18.531 10.057 18.813 10.522 18.999 11.056C19.185 11.584 19.278 12.139 19.278 12.721C19.278 13.339 19.191 13.867 19.017 14.305C18.843 14.737 18.606 15.127 18.306 15.475C18.15 15.649 17.961 15.844 17.739 16.06C17.517 16.276 17.253 16.519 16.947 16.789L13.482 19.84H19.278V21.982H9.99V20.011L15.768 14.854C16.554 14.158 16.947 13.441 16.947 12.703C16.947 12.397 16.896 12.106 16.794 11.83C16.698 11.548 16.557 11.302 16.371 11.092C15.957 10.6 15.393 10.354 14.679 10.354C14.043 10.354 13.512 10.549 13.086 10.939C12.852 11.149 12.666 11.41 12.528 11.722C12.39 12.034 12.321 12.355 12.321 12.685H10.017C10.017 11.281 10.521 10.141 11.529 9.265Z" fill="#282828"/>
</svg>
