<svg width="100" height="100" viewBox="0 0 100 100" fill="none" xmlns="http://www.w3.org/2000/svg">
<path d="M20.9027 56.4631C21.0672 59.9143 21.5603 61.7223 22.0531 63.0371C22.7107 64.6806 23.3681 65.8311 24.6828 67.1459C25.9978 68.2964 27.1482 69.1182 28.7917 69.7755L20.9027 56.4631ZM20.9027 56.4631C20.7384 52.683 20.7384 51.5325 20.7384 42.1643M20.9027 56.4631L20.7384 42.1643M20.7384 42.1643C20.7384 32.632 20.7384 31.4816 20.9027 27.8658L20.7384 42.1643ZM78.7297 12.7703L78.7297 12.7703C80.6415 14.6818 81.7595 16.5914 82.7265 18.845C83.5305 21.0996 84.1744 23.677 84.3362 27.3946C84.4999 31.1616 84.5 32.3009 84.5 42C84.5 51.6991 84.4999 52.8384 84.3362 56.6057C84.1744 60.3232 83.5305 62.9004 82.7265 65.1553C81.7594 67.4086 80.6415 69.3182 78.7297 71.2297L78.7297 71.2297C76.8182 73.1415 74.9086 74.2595 72.6551 75.2266C70.4003 76.0305 67.823 76.6746 64.1055 76.8362C60.3384 76.9999 59.1989 77 49.5 77C39.8009 77 38.6616 76.9999 34.8945 76.8362L34.8936 76.8361C31.0148 76.6745 28.6012 76.0313 26.3449 75.2266C24.0914 74.2595 22.1819 73.1415 20.2703 71.2297L20.2703 71.2297C18.3585 69.3182 17.2406 67.4086 16.2735 65.1554C15.4695 62.9005 14.8256 60.3232 14.6638 56.6057C14.5001 52.8384 14.5 51.6991 14.5 42C14.5 32.3009 14.5001 31.1616 14.6638 27.3946C14.8256 23.677 15.4695 21.0995 16.2735 18.8449C17.2406 16.5914 18.3585 14.6818 20.2703 12.7703L20.2703 12.7703C22.1818 10.8585 24.0913 9.74052 26.3448 8.77344C28.5996 7.96947 31.1769 7.32545 34.8945 7.16385C38.6616 7.00009 39.8009 7 49.5 7C59.1989 7 60.3384 7.00009 64.1055 7.16385L64.1064 7.16389C67.9854 7.32547 70.3988 7.96867 72.6552 8.77344C74.9086 9.74052 76.8182 10.8585 78.7297 12.7703ZM78.9253 56.4869L78.9254 56.4848C79.0902 52.6937 79.0902 51.5316 79.0902 42.1773V42.1643V42.1513C79.0902 32.7973 79.0902 31.6351 78.9254 27.8441L78.9253 27.842C78.7589 24.3453 78.2571 22.4855 77.7436 21.1162L77.7437 21.1161L77.7397 21.1061C77.0637 19.4158 76.3732 18.2029 74.9993 16.8292L74.9875 16.8174L74.975 16.8065C73.6365 15.6354 72.4391 14.7764 70.7284 14.0912C69.5021 13.5669 67.4654 13.0691 63.9868 12.9032L63.9856 12.9032C60.3586 12.7383 59.1953 12.7383 49.6805 12.7383H49.6643H49.6508C40.2971 12.7383 39.135 12.7383 35.3441 12.9031L35.342 12.9032C31.8452 13.07 29.9854 13.5716 28.6162 14.085L28.6162 14.0849L28.606 14.0889C26.916 14.7651 25.7031 15.4555 24.3293 16.8292L24.3175 16.841L24.3065 16.8535C23.1352 18.1922 22.2764 19.3896 21.5911 21.1005C21.067 22.3267 20.5691 24.3632 20.4032 27.842L20.4032 27.8431C20.2384 31.4702 20.2384 32.6333 20.2384 42.1479V42.1643V42.178C20.2384 51.5316 20.2384 52.6938 20.4031 56.4848L20.4032 56.4869C20.5699 59.9834 21.0717 61.8434 21.5849 63.2126L21.5848 63.2127L21.5889 63.2229C22.2651 64.9128 22.9556 66.1257 24.3292 67.4994L24.341 67.5112L24.3536 67.5222C25.6923 68.6935 26.8897 69.5525 28.6004 70.2375C29.8266 70.7618 31.8631 71.2598 35.3421 71.4254L35.3432 71.4255C38.9702 71.5903 40.1332 71.5903 49.6484 71.5903H49.6643H49.6773C59.0314 71.5903 60.1935 71.5903 63.9847 71.4255L63.9867 71.4254C67.4833 71.2589 69.3434 70.757 70.7126 70.2437L70.7126 70.2438L70.7227 70.2397C72.4129 69.5638 73.6257 68.8731 74.9993 67.4994L75.0111 67.4877L75.022 67.4751C76.1933 66.1365 77.0523 64.9391 77.7374 63.2284C78.2618 62.0022 78.7597 59.9654 78.9253 56.4869ZM31.7569 42C31.7569 32.2507 39.7507 24.257 49.5 24.257C59.2493 24.257 67.2431 32.2507 67.2431 42C67.2431 51.7493 59.2493 59.743 49.5 59.743C39.7507 59.743 31.7569 51.7493 31.7569 42ZM37.1667 42C37.1667 48.8502 42.6497 54.3333 49.5 54.3333C56.1815 54.3333 61.8333 48.8547 61.8333 42C61.8333 35.1498 56.3503 29.6667 49.5 29.6667C42.6497 29.6667 37.1667 35.1498 37.1667 42ZM72.1737 23.0995C72.1737 25.1243 70.4252 26.8728 68.4004 26.8728C66.3757 26.8728 64.6272 25.1243 64.6272 23.0995C64.6272 21.0747 66.3757 19.3265 68.4004 19.3265C70.4379 19.3265 72.1737 20.9229 72.1737 23.0995Z" fill="#282828" stroke="#E1E7FE"/>
</svg>
