<svg width="72" height="72" viewBox="0 0 72 72" fill="none" xmlns="http://www.w3.org/2000/svg">
<path d="M70.3256 36C70.3256 55.4384 54.939 71.1627 36 71.1627C17.061 71.1627 1.67444 55.4384 1.67444 36C1.67444 16.5614 17.061 0.837158 36 0.837158C54.939 0.837158 70.3256 16.5614 70.3256 36Z" fill="#282828"/>
<path d="M36.8392 17.1628C47.243 17.1628 55.6764 25.5962 55.6764 36.0001C55.6764 46.4039 47.243 54.8373 36.8392 54.8373C33.5103 54.8426 30.24 53.9617 27.3642 52.2848L18.0095 54.8373L20.5563 45.4789C18.8782 42.6023 17.9965 39.3305 18.002 36.0001C18.002 25.5962 26.4355 17.1628 36.8392 17.1628ZM30.4195 27.1466L30.0427 27.1616C29.7989 27.1765 29.5605 27.2405 29.342 27.35C29.1377 27.4657 28.9512 27.6104 28.7883 27.7795C28.5622 27.9923 28.4341 28.177 28.2966 28.3558C27.5997 29.2619 27.2247 30.374 27.2304 31.5168C27.2342 32.4397 27.4753 33.3384 27.8521 34.1785C28.6225 35.8777 29.8902 37.6765 31.5629 39.3437C31.9661 39.7449 32.3616 40.1481 32.7874 40.5228C34.8659 42.3528 37.3427 43.6726 40.0209 44.377L41.0909 44.5409C41.4393 44.5597 41.7878 44.5332 42.1382 44.5163C42.6868 44.488 43.2224 44.3395 43.7073 44.0813C43.954 43.9542 44.1947 43.8159 44.4288 43.6667C44.4288 43.6667 44.5097 43.614 44.6642 43.4973C44.9186 43.3089 45.0748 43.1751 45.2858 42.9547C45.4422 42.7928 45.5778 42.6025 45.6815 42.3859C45.8283 42.0789 45.9753 41.493 46.0356 41.0051C46.0808 40.6322 46.0676 40.4287 46.0619 40.3025C46.0543 40.1009 45.8867 39.8919 45.7041 39.8033L44.6077 39.3117C44.6077 39.3117 42.9689 38.5977 41.9668 38.1418C41.8619 38.0961 41.7496 38.0698 41.6352 38.0646C41.5063 38.0514 41.376 38.0659 41.2533 38.1071C41.1304 38.1483 41.0179 38.2155 40.9231 38.3039C40.9137 38.3 40.7875 38.4075 39.4257 40.0577C39.3475 40.1627 39.2398 40.242 39.1162 40.2856C38.9928 40.3293 38.8592 40.3351 38.7325 40.3025C38.6097 40.2695 38.4895 40.228 38.3726 40.1782C38.139 40.0803 38.058 40.0424 37.8979 39.9746C36.8167 39.5029 35.8158 38.8655 34.931 38.0854C34.6938 37.8781 34.4732 37.652 34.2472 37.4335C33.5061 36.7239 32.8603 35.921 32.3258 35.045L32.2148 34.866C32.1349 34.7457 32.0703 34.6161 32.0226 34.4798C31.9511 34.2029 32.1374 33.9807 32.1374 33.9807C32.1374 33.9807 32.5952 33.4795 32.808 33.2083C33.0153 32.9446 33.1905 32.6886 33.3035 32.5057C33.5258 32.1479 33.5955 31.7805 33.4786 31.496C32.9512 30.2076 32.405 28.9248 31.8436 27.6514C31.7325 27.3989 31.4029 27.2181 31.1033 27.1824C31.0017 27.171 30.8999 27.1598 30.7982 27.1523C30.5452 27.1397 30.2917 27.1422 30.039 27.1598L30.4176 27.1447L30.4195 27.1466Z" fill="#D0ED5D"/>
</svg>
