<svg width="100" height="100" viewBox="0 0 100 100" fill="none" xmlns="http://www.w3.org/2000/svg">
<path d="M49.5 17.257C39.4746 17.257 31.2569 25.4745 31.2569 35.5C31.2569 45.5255 39.4746 53.743 49.5 53.743C59.5254 53.743 67.7431 45.5255 67.7431 35.5C67.7431 25.4745 59.5254 17.257 49.5 17.257ZM49.5 47.3333C42.9259 47.3333 37.6667 42.074 37.6667 35.5C37.6667 28.926 42.9259 23.6668 49.5 23.6668C56.0741 23.6668 61.3333 28.926 61.3333 35.5C61.3333 42.074 55.9098 47.3333 49.5 47.3333ZM72.6737 16.5995C72.6737 18.9005 70.7013 20.8728 68.4004 20.8728C66.0995 20.8728 64.1272 18.9005 64.1272 16.5995C64.1272 14.2985 66.0995 12.3265 68.4004 12.3265C70.7013 12.3265 72.6737 14.1342 72.6737 16.5995ZM84.8357 20.8728C84.6712 17.0927 84.0138 14.4629 83.1922 12.1621C82.206 9.86117 81.0556 7.88884 79.0833 5.91675C77.1112 3.94442 75.1388 2.79393 72.8379 1.80777C70.537 0.986166 68.0719 0.328641 64.1272 0.164321C60.3473 2.72063e-07 59.1966 0 49.5 0C39.8031 0 38.6527 2.72063e-07 34.8728 0.164321C31.0926 0.328641 28.4629 0.986166 26.1621 1.80777C23.8612 2.79393 21.8888 3.94442 19.9167 5.91675C17.9444 7.88884 16.794 9.86117 15.8078 12.1621C14.9862 14.4629 14.3288 17.0927 14.1643 20.8728C14 24.6527 14 25.8032 14 35.5C14 45.1968 14 46.3473 14.1643 50.1274C14.3288 53.9075 14.9862 56.5371 15.8078 58.8381C16.794 61.1388 17.9444 63.1112 19.9167 65.0833C21.8888 67.0556 23.8612 68.2061 26.1621 69.1922C28.4629 70.0138 30.9284 70.6714 34.8728 70.8357C38.6527 71 39.8031 71 49.5 71C59.1966 71 60.3473 71 64.1272 70.8357C67.9074 70.6714 70.537 70.0138 72.8379 69.1922C75.1388 68.2061 77.1112 67.0556 79.0833 65.0833C81.0556 63.1112 82.206 61.1388 83.1922 58.8381C84.0138 56.5371 84.6712 53.9075 84.8357 50.1274C85 46.3473 85 45.1968 85 35.5C85 25.8032 85 24.6527 84.8357 20.8728ZM78.4259 49.9631C78.2616 53.4143 77.7685 55.3866 77.2754 56.5371C76.6181 58.1806 75.7962 59.3311 74.6458 60.6459C73.331 61.9607 72.1806 62.6182 70.5371 63.2755C69.2223 63.7684 67.4143 64.2617 63.9629 64.426C60.1828 64.5903 59.0324 64.5903 49.6643 64.5903C40.1319 64.5903 38.9815 64.5903 35.3659 64.426C31.9143 64.2617 29.9422 63.7684 28.7917 63.2755C27.1482 62.6182 25.9978 61.7964 24.6828 60.6459C23.3681 59.3311 22.7107 58.1806 22.0531 56.5371C21.5603 55.2223 21.0672 53.4143 20.9027 49.9631C20.7384 46.183 20.7384 45.0325 20.7384 35.6643C20.7384 26.132 20.7384 24.9816 20.9027 21.3658C21.0672 17.9143 21.5603 15.9422 22.0531 14.7917C22.7107 13.1481 23.5324 11.9976 24.6828 10.6828C25.9978 9.36796 27.1482 8.71068 28.7917 8.05315C30.1065 7.56019 31.9143 7.06724 35.3659 6.90267C39.1458 6.73835 40.2962 6.73835 49.6643 6.73835C59.1966 6.73835 60.3473 6.73835 63.9629 6.90267C67.4143 7.06724 69.3866 7.56019 70.5371 8.05315C72.1806 8.71068 73.331 9.53252 74.6458 10.6828C75.9607 11.9976 76.6181 13.1481 77.2754 14.7917C77.7685 16.1066 78.2616 17.9143 78.4259 21.3658C78.5902 25.1459 78.5902 26.2964 78.5902 35.6643C78.5902 45.0325 78.5902 46.183 78.4259 49.9631Z" fill="#282828"/>
</svg>
