<svg width="32" height="33" viewBox="0 0 32 33" fill="none" xmlns="http://www.w3.org/2000/svg">
<path fill-rule="evenodd" clip-rule="evenodd" d="M20.3113 20.4271L25.0859 25.2017C25.2031 25.3189 25.269 25.478 25.269 25.6438C25.269 25.8096 25.2031 25.9686 25.0859 26.0859C24.9686 26.2031 24.8096 26.269 24.6438 26.269C24.478 26.269 24.3189 26.2031 24.2017 26.0859L19.4271 21.3113C17.8793 22.6377 15.8869 23.3365 13.844 23.2636C11.7215 23.1878 9.71285 22.2848 8.24723 20.7477C6.78162 19.2106 5.9753 17.1613 6.00058 15.0376C6.02585 12.9139 6.88072 10.8843 8.3825 9.3825C9.88429 7.88072 11.9139 7.02585 14.0376 7.00058C16.1613 6.9753 18.2106 7.78162 19.7477 9.24723C21.2848 10.7128 22.1878 12.7215 22.2636 14.844C22.3365 16.8869 21.6377 18.8793 20.3113 20.4271ZM8.42743 11.3242C7.67202 12.4548 7.26881 13.7839 7.26878 15.1436C7.27073 16.9664 7.99569 18.714 9.28461 20.0029C10.5736 21.2919 12.3212 22.0169 14.144 22.0188C15.5037 22.0187 16.8328 21.6155 17.9633 20.8601C19.0939 20.1047 19.9751 19.031 20.4955 17.7747C21.0158 16.5185 21.152 15.1362 20.8867 13.8025C20.6214 12.4689 19.9666 11.2439 19.0051 10.2824C18.0437 9.32093 16.8186 8.66615 15.485 8.40088C14.1514 8.13561 12.7691 8.27175 11.5128 8.79211C10.2566 9.31246 9.18286 10.1936 8.42743 11.3242Z" fill="black"/>
</svg>
