<svg width="30" height="30" viewBox="0 0 30 30" fill="none" xmlns="http://www.w3.org/2000/svg">
<path d="M0 15C0 6.71573 6.71573 0 15 0V0C23.2843 0 30 6.71573 30 15V15C30 23.2843 23.2843 30 15 30V30C6.71573 30 0 23.2843 0 15V15Z" fill="#F8FCF5"/>
<path d="M18.783 17.689C18.783 18.343 18.654 18.967 18.396 19.561C18.138 20.155 17.775 20.668 17.307 21.1C16.869 21.496 16.368 21.787 15.804 21.973C15.246 22.153 14.658 22.243 14.04 22.243C13.5 22.243 12.969 22.141 12.447 21.937C11.925 21.727 11.457 21.442 11.043 21.082C10.419 20.548 9.987 19.867 9.747 19.039L11.943 18.436C12.069 18.886 12.282 19.243 12.582 19.507C13.032 19.921 13.563 20.128 14.175 20.128C14.481 20.116 14.769 20.056 15.039 19.948C15.315 19.84 15.552 19.693 15.75 19.507C15.99 19.279 16.17 19.015 16.29 18.715C16.416 18.415 16.479 18.103 16.479 17.779C16.479 17.437 16.419 17.119 16.299 16.825C16.185 16.525 16.014 16.264 15.786 16.042C15.36 15.628 14.817 15.421 14.157 15.421C13.785 15.421 13.398 15.526 12.996 15.736L11.961 13.954L15.84 10.642H10.278V8.5H18.558V10.642L15.507 13.558C16.467 13.762 17.274 14.245 17.928 15.007C18.198 15.403 18.408 15.832 18.558 16.294C18.708 16.75 18.783 17.215 18.783 17.689Z" fill="#282828"/>
</svg>
