<svg width="73" height="71" viewBox="0 0 73 71" fill="none" xmlns="http://www.w3.org/2000/svg">
<g clip-path="url(#clip0_108_228)">
<path d="M36.5001 70.7797C56.0453 70.7797 71.8899 54.9351 71.8899 35.3898C71.8899 15.8446 56.0453 0 36.5001 0C16.9548 0 1.11023 15.8446 1.11023 35.3898C1.11023 54.9351 16.9548 70.7797 36.5001 70.7797Z" fill="#282828"/>
<path d="M37.1102 25.7356C32.113 25.7356 28.017 29.855 28.017 34.8807C28.017 39.9064 32.113 44.0258 37.1102 44.0258C42.1074 44.0258 46.2034 39.9064 46.2034 34.8807C46.2034 29.855 42.1074 25.7356 37.1102 25.7356ZM37.1102 40.8126C33.8333 40.8126 31.2119 38.1762 31.2119 34.8807C31.2119 31.5852 33.8333 28.9487 37.1102 28.9487C40.3871 28.9487 43.0085 31.5852 43.0085 34.8807C43.0085 38.1762 40.3052 40.8126 37.1102 40.8126ZM48.6611 25.406C48.6611 26.5594 47.678 27.5481 46.5311 27.5481C45.3842 27.5481 44.4011 26.5594 44.4011 25.406C44.4011 24.2525 45.3842 23.2639 46.5311 23.2639C47.678 23.2639 48.6611 24.1701 48.6611 25.406ZM54.7232 27.5481C54.6412 25.6532 54.3136 24.3349 53.904 23.1815C53.4125 22.0281 52.839 21.0393 51.8559 20.0508C50.8729 19.062 49.8898 18.4853 48.743 17.9909C47.5961 17.5791 46.3673 17.2495 44.4011 17.1671C42.517 17.0847 41.9435 17.0847 37.1102 17.0847C32.2768 17.0847 31.7034 17.0847 29.8193 17.1671C27.9351 17.2495 26.6243 17.5791 25.4774 17.9909C24.3306 18.4853 23.3475 19.062 22.3645 20.0508C21.3814 21.0393 20.8079 22.0281 20.3164 23.1815C19.9068 24.3349 19.5792 25.6532 19.4972 27.5481C19.4153 29.443 19.4153 30.0197 19.4153 34.8807C19.4153 39.7417 19.4153 40.3184 19.4972 42.2133C19.5792 44.1083 19.9068 45.4265 20.3164 46.5799C20.8079 47.7333 21.3814 48.722 22.3645 49.7106C23.3475 50.6993 24.3306 51.2761 25.4774 51.7704C26.6243 52.1823 27.8532 52.5119 29.8193 52.5943C31.7034 52.6766 32.2768 52.6766 37.1102 52.6766C41.9435 52.6766 42.517 52.6766 44.4011 52.5943C46.2853 52.5119 47.5961 52.1823 48.743 51.7704C49.8898 51.2761 50.8729 50.6993 51.8559 49.7106C52.839 48.722 53.4125 47.7333 53.904 46.5799C54.3136 45.4265 54.6412 44.1083 54.7232 42.2133C54.8051 40.3184 54.8051 39.7417 54.8051 34.8807C54.8051 30.0197 54.8051 29.443 54.7232 27.5481ZM51.5283 42.131C51.4464 43.861 51.2006 44.8497 50.9548 45.4265C50.6272 46.2503 50.2175 46.8271 49.6441 47.4862C48.9887 48.1453 48.4153 48.4749 47.5961 48.8044C46.9408 49.0515 46.0395 49.2987 44.3192 49.3811C42.435 49.4635 41.8616 49.4635 37.1921 49.4635C32.4407 49.4635 31.8673 49.4635 30.0651 49.3811C28.3446 49.2987 27.3616 49.0515 26.7882 48.8044C25.969 48.4749 25.3956 48.0629 24.7401 47.4862C24.0848 46.8271 23.7571 46.2503 23.4293 45.4265C23.1837 44.7674 22.9379 43.861 22.8559 42.131C22.774 40.236 22.774 39.6593 22.774 34.963C22.774 30.1846 22.774 29.6078 22.8559 27.7953C22.9379 26.0651 23.1837 25.0765 23.4293 24.4997C23.7571 23.6758 24.1667 23.099 24.7401 22.4399C25.3956 21.7808 25.969 21.4513 26.7882 21.1217C27.4435 20.8746 28.3446 20.6275 30.0651 20.545C31.9491 20.4626 32.5226 20.4626 37.1921 20.4626C41.9435 20.4626 42.517 20.4626 44.3192 20.545C46.0395 20.6275 47.0226 20.8746 47.5961 21.1217C48.4153 21.4513 48.9887 21.8633 49.6441 22.4399C50.2995 23.099 50.6272 23.6758 50.9548 24.4997C51.2006 25.1588 51.4464 26.0651 51.5283 27.7953C51.6101 29.6902 51.6101 30.2669 51.6101 34.963C51.6101 39.6593 51.6101 40.236 51.5283 42.131Z" fill="#D0ED5D"/>
</g>
<defs>
<clipPath id="clip0_108_228">
<rect width="72" height="70.7797" fill="white" transform="translate(0.5)"/>
</clipPath>
</defs>
</svg>
