<svg width="72" height="69" viewBox="0 0 72 69" fill="none" xmlns="http://www.w3.org/2000/svg">
<path d="M70.3256 34.3255C70.3256 52.8017 54.9767 67.8139 36 67.8139C17.0233 67.8139 1.67444 52.8017 1.67444 34.3255C1.67444 15.8493 17.0233 0.837158 36 0.837158C54.9767 0.837158 70.3256 15.8493 70.3256 34.3255Z" fill="#282828"/>
<path d="M36.8372 16.7441C32.62 16.7487 28.5768 18.2749 25.5948 20.9878C22.6126 23.7008 20.9352 27.3792 20.9302 31.216C20.9252 34.3513 22.0509 37.4016 24.1347 39.899C24.1347 39.899 24.5685 40.4186 24.6394 40.4936L36.8372 53.5813L49.0407 40.4871C49.1043 40.4172 49.5396 39.899 49.5396 39.899L49.541 39.895C51.6238 37.3988 52.749 34.3498 52.7441 31.216C52.7391 27.3792 51.0617 23.7008 48.0795 20.9878C45.0976 18.2749 41.0544 16.7487 36.8372 16.7441ZM36.8372 36.4783C35.6932 36.4783 34.5749 36.1697 33.6236 35.5914C32.6724 35.0132 31.931 34.1914 31.4931 33.2298C31.0554 32.2682 30.9407 31.2101 31.1639 30.1892C31.3871 29.1685 31.938 28.2308 32.7471 27.4947C33.556 26.7588 34.5866 26.2577 35.7088 26.0546C36.8308 25.8515 37.9939 25.9558 39.0508 26.354C40.1076 26.7523 41.0112 27.4268 41.6466 28.2923C42.2822 29.1576 42.6214 30.1752 42.6214 31.216C42.6196 32.6111 42.0096 33.9486 40.9253 34.935C39.8409 35.9216 38.3708 36.4767 36.8372 36.4783Z" fill="#D0ED5D"/>
</svg>
