<svg width="73" height="72" viewBox="0 0 73 72" fill="none" xmlns="http://www.w3.org/2000/svg">
<g clip-path="url(#clip0_108_231)">
<path d="M36.5 71.0182C55.84 71.0182 71.5182 55.34 71.5182 36C71.5182 16.66 55.84 0.981812 36.5 0.981812C17.16 0.981812 1.48181 16.66 1.48181 36C1.48181 55.34 17.16 71.0182 36.5 71.0182Z" fill="#282828" stroke="#282828" stroke-width="1.5"/>
<path d="M22.2702 25.2131C24.9102 25.2131 27.0222 23.0682 27.0222 20.4611C27.0222 17.8541 24.8772 15.7091 22.2702 15.7091C19.6631 15.7091 17.5182 17.8541 17.5182 20.4611C17.5182 23.0682 19.6631 25.2131 22.2702 25.2131ZM31.5431 28.8101V55.2761H39.7272V42.2081C39.7272 38.7431 40.3872 35.4101 44.6443 35.4101C48.9012 35.4101 48.9012 39.3701 48.9012 42.4061V55.2761H57.1182V40.7561C57.1182 33.6281 55.6002 28.1501 47.2842 28.1501C43.2912 28.1501 40.6181 30.3281 39.5292 32.4071H39.4301V28.7771H31.5763L31.5431 28.8101ZM18.1782 28.8101H26.3951V55.2761H18.1782V28.8101Z" fill="#D0ED5D"/>
</g>
<defs>
<clipPath id="clip0_108_231">
<rect width="72" height="72" fill="white" transform="translate(0.5)"/>
</clipPath>
</defs>
</svg>
