<svg width="28" height="28" viewBox="0 0 28 28" fill="none" xmlns="http://www.w3.org/2000/svg">
<path fill-rule="evenodd" clip-rule="evenodd" d="M4.07574 2.42157C4.20137 2.16366 4.46312 2 4.75001 2H23.75C24.0279 2 24.283 2.15367 24.413 2.39933C24.5429 2.645 24.5264 2.94237 24.37 3.17209L17.7143 12.9477V20.7667C17.7143 20.9498 17.6473 21.1266 17.5259 21.2637L13.1152 26.2471C12.9086 26.4805 12.5792 26.5618 12.2878 26.4513C11.9963 26.3409 11.8036 26.0617 11.8036 25.75V12.9753L4.15948 3.21236C3.98262 2.98648 3.95011 2.67949 4.07574 2.42157ZM6.28977 3.5L13.1441 12.2543C13.2474 12.3863 13.3036 12.5491 13.3036 12.7167V23.771L16.2143 20.4824V12.7167C16.2143 12.5661 16.2596 12.419 16.3443 12.2946L22.332 3.5H6.28977Z" fill="#282828" stroke="#282828" stroke-width="0.25" stroke-linejoin="round"/>
</svg>
