<svg width="84" height="47" viewBox="0 0 84 47" fill="none" xmlns="http://www.w3.org/2000/svg">
<rect width="84" height="46.6667" fill="#FF004C"/>
<path d="M15.634 17.5V28H13.842V19.411L11.875 20.622V18.683L13.842 17.5H15.634ZM25.0708 26.978C24.7208 27.384 24.2961 27.6897 23.7968 27.895C23.2974 28.1003 22.7584 28.203 22.1798 28.203C21.8998 28.203 21.6244 28.1773 21.3538 28.126C21.0831 28.0747 20.8241 27.9977 20.5768 27.895C20.3341 27.7923 20.1031 27.664 19.8838 27.51C19.6644 27.356 19.4684 27.1787 19.2958 26.978C18.9598 26.572 18.7264 26.1543 18.5958 25.725C18.4698 25.305 18.4068 24.794 18.4068 24.192V21.294C18.4068 20.7013 18.4674 20.1903 18.5888 19.761C18.7054 19.3503 18.9411 18.928 19.2958 18.494C19.6411 18.0973 20.0658 17.7963 20.5698 17.591C20.8264 17.4837 21.0878 17.4043 21.3538 17.353C21.6244 17.3017 21.8998 17.2783 22.1798 17.283C22.7398 17.2643 23.2694 17.36 23.7688 17.57C24.2728 17.7753 24.7068 18.0833 25.0708 18.494C25.4254 18.9 25.6611 19.3107 25.7778 19.726C25.8991 20.1553 25.9598 20.678 25.9598 21.294V24.192C25.9598 24.7847 25.8968 25.298 25.7708 25.732C25.6448 26.166 25.4114 26.5813 25.0708 26.978ZM23.9018 19.922C23.7384 19.6187 23.4981 19.3783 23.1808 19.201C22.8681 19.019 22.5344 18.9327 22.1798 18.942C21.8391 18.9373 21.5124 19.0237 21.1998 19.201C20.8964 19.3737 20.6561 19.6093 20.4788 19.908C20.3714 20.09 20.2968 20.2883 20.2548 20.503C20.2174 20.7177 20.1988 20.9813 20.1988 21.294V24.192C20.1988 24.514 20.2174 24.787 20.2548 25.011C20.2968 25.235 20.3854 25.445 20.5208 25.641C20.7074 25.921 20.9478 26.145 21.2418 26.313C21.5404 26.4763 21.8531 26.5533 22.1798 26.544C22.3478 26.5487 22.5134 26.53 22.6768 26.488C22.8448 26.446 23.0011 26.3853 23.1458 26.306C23.2904 26.222 23.4234 26.1217 23.5448 26.005C23.6708 25.8883 23.7758 25.76 23.8598 25.62C23.9904 25.4333 24.0744 25.2373 24.1118 25.032C24.1491 24.8173 24.1678 24.5373 24.1678 24.192V21.294C24.1678 21.1307 24.1631 20.986 24.1538 20.86C24.1491 20.7293 24.1374 20.6173 24.1188 20.524C24.0908 20.3373 24.0184 20.1367 23.9018 19.922ZM27.8574 19.908C27.8481 19.5627 27.9158 19.2313 28.0604 18.914C28.2051 18.592 28.3988 18.3097 28.6414 18.067C28.8888 17.8197 29.1711 17.626 29.4884 17.486C29.8104 17.3413 30.1418 17.2737 30.4824 17.283C30.8324 17.2737 31.1661 17.339 31.4834 17.479C31.8054 17.619 32.0878 17.8103 32.3304 18.053C32.5731 18.291 32.7644 18.571 32.9044 18.893C33.0444 19.215 33.1121 19.5533 33.1074 19.908C33.1121 20.2627 33.0444 20.601 32.9044 20.923C32.7644 21.245 32.5731 21.5273 32.3304 21.77C32.0878 22.008 31.8054 22.197 31.4834 22.337C31.1661 22.477 30.8324 22.5423 30.4824 22.533C30.1278 22.5423 29.7894 22.477 29.4674 22.337C29.1501 22.197 28.8701 22.008 28.6274 21.77C28.3894 21.5273 28.2004 21.245 28.0604 20.923C27.9204 20.601 27.8528 20.2627 27.8574 19.908ZM28.2914 26.831L37.6294 17.5L38.7984 18.683L29.4604 28L28.2914 26.831ZM31.6024 19.908C31.6024 19.5953 31.4928 19.3293 31.2734 19.11C31.0541 18.8907 30.7904 18.781 30.4824 18.781C30.1838 18.781 29.9201 18.8907 29.6914 19.11C29.4721 19.3293 29.3624 19.5953 29.3624 19.908C29.3624 20.202 29.4721 20.4633 29.6914 20.692C29.9154 20.916 30.1791 21.028 30.4824 21.028C30.7904 21.028 31.0541 20.916 31.2734 20.692C31.4928 20.4633 31.6024 20.202 31.6024 19.908ZM33.9824 25.592C33.9731 25.2467 34.0408 24.9153 34.1854 24.598C34.3301 24.276 34.5238 23.9937 34.7664 23.751C35.0138 23.5037 35.2961 23.31 35.6134 23.17C35.9354 23.0253 36.2668 22.9577 36.6074 22.967C36.9574 22.9577 37.2911 23.023 37.6084 23.163C37.9304 23.303 38.2128 23.4943 38.4554 23.737C38.6981 23.975 38.8894 24.255 39.0294 24.577C39.1694 24.899 39.2371 25.2373 39.2324 25.592C39.2371 25.9467 39.1694 26.285 39.0294 26.607C38.8894 26.929 38.6981 27.2113 38.4554 27.454C38.2128 27.692 37.9304 27.881 37.6084 28.021C37.2911 28.161 36.9574 28.2263 36.6074 28.217C36.2528 28.2263 35.9144 28.161 35.5924 28.021C35.2751 27.881 34.9951 27.692 34.7524 27.454C34.5144 27.2113 34.3254 26.929 34.1854 26.607C34.0454 26.285 33.9778 25.9467 33.9824 25.592ZM37.7414 25.592C37.7414 25.2933 37.6294 25.032 37.4054 24.808C37.1861 24.584 36.9201 24.472 36.6074 24.472C36.3041 24.472 36.0404 24.584 35.8164 24.808C35.5971 25.0367 35.4874 25.298 35.4874 25.592C35.4874 25.8907 35.5971 26.1543 35.8164 26.383C36.0404 26.607 36.3041 26.719 36.6074 26.719C36.9201 26.719 37.1861 26.607 37.4054 26.383C37.6294 26.159 37.7414 25.8953 37.7414 25.592ZM44.8252 26.509C44.4145 26.0003 44.1089 25.4287 43.9082 24.794C43.7122 24.1547 43.6142 23.4733 43.6142 22.75C43.6142 22.0267 43.7122 21.343 43.9082 20.699C44.1089 20.055 44.4145 19.4787 44.8252 18.97C45.2592 18.424 45.8122 18.0063 46.4842 17.717C47.1609 17.4277 47.8819 17.283 48.6472 17.283C49.4219 17.283 50.1382 17.4277 50.7962 17.717C51.4589 18.0017 52.0165 18.4193 52.4692 18.97C53.2439 19.9453 53.6429 21.2053 53.6662 22.75C53.6569 23.4967 53.5589 24.1827 53.3722 24.808C53.1855 25.4287 52.8845 25.9957 52.4692 26.509C52.0165 27.0737 51.4519 27.5007 50.7752 27.79C50.1172 28.0747 49.4079 28.217 48.6472 28.217C47.8819 28.217 47.1609 28.0723 46.4842 27.783C45.8215 27.489 45.2685 27.0643 44.8252 26.509ZM51.0692 25.445C51.5639 24.7917 51.8112 23.8933 51.8112 22.75C51.8112 21.602 51.5639 20.7037 51.0692 20.055C50.9339 19.8683 50.7752 19.705 50.5932 19.565C50.4159 19.425 50.2199 19.3107 50.0052 19.222C49.7905 19.1287 49.5642 19.0587 49.3262 19.012C49.0882 18.9653 48.8432 18.942 48.5912 18.942C48.1105 18.942 47.6602 19.0377 47.2402 19.229C46.8202 19.4157 46.4772 19.691 46.2112 20.055C45.6979 20.7177 45.4505 21.616 45.4692 22.75C45.4692 23.898 45.7165 24.7963 46.2112 25.445C46.4819 25.823 46.8342 26.103 47.2682 26.285C47.7069 26.467 48.1852 26.558 48.7032 26.558C49.1745 26.558 49.6202 26.4647 50.0402 26.278C50.4649 26.0913 50.8079 25.8137 51.0692 25.445ZM57.0161 19.25V21.875H60.7051V23.625H57.0161V28H55.2661V17.5H61.5801V19.25H57.0161ZM64.645 19.25V21.875H68.334V23.625H64.645V28H62.895V17.5H69.209V19.25H64.645Z" fill="white"/>
</svg>
