<svg width="28" height="38" viewBox="0 0 28 38" fill="none" xmlns="http://www.w3.org/2000/svg">
<path d="M9.46967 31.0303C9.76256 31.3232 10.2374 31.3232 10.5303 31.0303L15.3033 26.2574C15.5962 25.9645 15.5962 25.4896 15.3033 25.1967C15.0104 24.9038 14.5355 24.9038 14.2426 25.1967L10 29.4393L5.75736 25.1967C5.46447 24.9038 4.98959 24.9038 4.6967 25.1967C4.40381 25.4896 4.40381 25.9645 4.6967 26.2574L9.46967 31.0303ZM9.25 7.5V30.5H10.75V7.5H9.25Z" fill="black"/>
<path d="M18.4697 6.96967C18.7626 6.67678 19.2374 6.67678 19.5303 6.96967L24.3033 11.7426C24.5962 12.0355 24.5962 12.5104 24.3033 12.8033C24.0104 13.0962 23.5355 13.0962 23.2426 12.8033L19 8.56066L14.7574 12.8033C14.4645 13.0962 13.9896 13.0962 13.6967 12.8033C13.4038 12.5104 13.4038 12.0355 13.6967 11.7426L18.4697 6.96967ZM18.25 30.5V7.5H19.75V30.5H18.25Z" fill="black"/>
</svg>
