<svg width="48" height="48" viewBox="0 0 48 48" fill="none" xmlns="http://www.w3.org/2000/svg">
<path d="M8 18V17H6.90492L7.00411 18.0906L8 18ZM40 18L40.9959 18.0906L41.0951 17H40V18ZM38.33 36.362L37.3341 36.2714L37.3341 36.2715L38.33 36.362ZM34.348 40L34.348 41L34.3484 41L34.348 40ZM13.652 40L13.6516 41H13.652V40ZM9.67 36.362L10.6659 36.2715L10.6659 36.2714L9.67 36.362ZM8 19H40V17H8V19ZM39.0041 17.9094L37.3341 36.2714L39.3259 36.4526L40.9959 18.0906L39.0041 17.9094ZM37.3341 36.2715C37.2664 37.0169 36.9225 37.71 36.3699 38.2148L37.7189 39.6914C38.6398 38.85 39.213 37.6948 39.3259 36.4525L37.3341 36.2715ZM36.3699 38.2148C35.8174 38.7197 35.096 38.9997 34.3476 39L34.3484 41C35.5958 40.9995 36.798 40.5328 37.7189 39.6914L36.3699 38.2148ZM34.348 39H13.652V41H34.348V39ZM13.6524 39C12.904 38.9997 12.1827 38.7197 11.6301 38.2148L10.2811 39.6914C11.202 40.5328 12.4042 40.9995 13.6516 41L13.6524 39ZM11.6301 38.2148C11.0775 37.71 10.7336 37.0169 10.6659 36.2715L8.6741 36.4525C8.78699 37.6948 9.36017 38.85 10.2811 39.6914L11.6301 38.2148ZM10.6659 36.2714L8.99589 17.9094L7.00411 18.0906L8.67411 36.4526L10.6659 36.2714Z" fill="black"/>
<path d="M16 22V16C16 13.8783 16.8429 11.8434 18.3431 10.3431C19.8434 8.84285 21.8783 8 24 8C26.1217 8 28.1566 8.84285 29.6569 10.3431C31.1571 11.8434 32 13.8783 32 16V22" stroke="black" stroke-width="2" stroke-linecap="square"/>
</svg>
