<svg width="72" height="72" viewBox="0 0 72 72" fill="none" xmlns="http://www.w3.org/2000/svg">
<path d="M70.3256 36C70.3256 55.4384 54.939 71.1627 36 71.1627C17.061 71.1627 1.67444 55.4384 1.67444 36C1.67444 16.5614 17.061 0.837158 36 0.837158C54.939 0.837158 70.3256 16.5614 70.3256 36Z" fill="#282828"/>
<path d="M50.9024 28.8837L36.8373 37.7791L22.7721 28.8837V25.3256L36.8373 34.2209L50.9024 25.3256M50.9024 21.7675H22.7721C20.8206 21.7675 19.2559 23.3508 19.2559 25.3256V46.6744C19.2559 47.6181 19.6262 48.5232 20.2858 49.1904C20.9452 49.8577 21.8395 50.2326 22.7721 50.2326H50.9024C51.835 50.2326 52.7293 49.8577 53.3887 49.1904C54.0481 48.5232 54.4187 47.6181 54.4187 46.6744V25.3256C54.4187 24.3819 54.0481 23.4769 53.3887 22.8096C52.7293 22.1424 51.835 21.7675 50.9024 21.7675Z" fill="#D0ED5D"/>
</svg>
