<svg width="1209" height="1209" viewBox="0 0 1209 1209" fill="none" xmlns="http://www.w3.org/2000/svg">
<circle cx="604.5" cy="604.5" r="600.5" stroke="white" stroke-width="8"/>
<mask id="path-2-outside-1_47_26" maskUnits="userSpaceOnUse" x="208.705" y="443.569" width="836" height="539" fill="black">
<rect fill="white" x="208.705" y="443.569" width="836" height="539"/>
<path d="M854.164 446.208C859.466 448.383 862.049 452.869 862.728 461.025C863.408 470.269 865.175 472.58 874.011 475.706C877.817 477.066 881.895 479.241 883.255 480.464C887.061 483.998 891.003 485.766 902.014 488.62C912.617 491.339 920.502 494.737 924.988 498.136C931.649 503.437 940.892 514.041 945.378 521.789C950.408 530.353 950.68 530.625 956.253 530.625C960.195 530.625 962.914 529.673 965.769 527.227C967.944 525.323 970.663 523.828 971.886 523.828C975.964 523.828 979.091 528.994 979.091 535.791C979.091 550.88 967.128 569.775 954.622 574.805C950.816 576.3 947.961 578.203 948.233 579.019C948.505 579.97 947.145 580.922 945.242 581.466C942.116 582.281 941.844 582.825 941.844 590.845C941.844 602.128 938.038 609.741 928.522 616.945C924.58 619.936 920.094 624.286 918.598 626.733C916.016 630.675 912.209 633.122 903.374 636.52C901.334 637.336 898.48 639.919 897.256 642.23C892.634 650.794 889.236 653.784 882.439 655.416C873.875 657.319 867.35 655.687 857.563 649.162C846.688 641.822 843.561 636.52 844.377 627.141L845.056 619.664L842.609 625.781C841.386 629.18 839.483 637.064 838.531 643.453L836.9 655.008L841.25 665.883C843.697 671.864 847.095 681.652 848.727 687.633C853.892 705.712 857.291 714.412 861.097 718.355C863 720.394 870.749 725.831 878.361 730.589C891.003 738.473 894.402 740.784 898.888 744.727C899.703 745.542 903.102 748.261 906.5 750.844C912.345 755.466 917.511 759.544 920.638 762.398C921.453 763.078 926.075 767.156 930.969 771.234C935.863 775.312 940.077 778.983 940.484 779.391C940.892 779.798 943.339 781.837 945.922 784.012C960.875 795.975 983.713 822.075 990.373 834.445C993.228 839.883 999.345 859.05 1000.98 867.75C1001.66 871.964 1002.74 872.916 1009.54 876.042C1013.75 878.081 1019.46 880.392 1022.18 881.208C1028.03 883.111 1035.64 890.723 1039.85 899.016C1043.66 906.356 1044.88 919.678 1042.44 928.514C1040.81 934.223 1039.99 935.039 1032.38 938.573C1027.76 940.748 1022.59 943.467 1020.82 944.419C1013.89 948.497 998.258 942.38 989.83 932.184C986.975 928.786 982.353 924.572 979.634 922.941C965.497 914.512 957.205 903.23 955.302 890.044C953.806 879.169 941.98 853.069 935.863 846.952C922.677 833.766 842.202 805.219 818.277 805.219C810.528 805.219 807.809 802.772 802.78 791.625C796.934 778.439 793.264 770.691 791.225 767.428L789.186 764.302L783.069 770.147C779.806 773.409 773.417 780.75 769.067 786.459C764.581 792.305 760.503 797.062 759.959 797.062C758.056 797.198 742.288 812.967 736.714 820.716C733.452 825.066 723.936 836.212 715.508 845.456C699.875 862.584 688.184 879.577 678.941 899.152C676.222 904.861 673.639 911.386 673.231 913.697L672.28 918.047H678.533C687.641 918.047 691.719 919.95 698.788 927.834C708.847 938.845 712.653 946.866 712.653 957.333C712.789 965.761 712.653 966.169 708.575 968.616C701.642 972.694 680.844 975.548 663.852 974.733C647.539 973.917 640.742 972.15 638.567 968.072C637.752 966.712 635.984 961.003 634.625 955.566C633.13 950.128 630.139 941.156 627.692 935.719C622.527 923.484 622.798 919.542 629.867 898.2C638.023 874.139 643.189 849.806 646.18 822.891L646.995 815.278L636.392 813.511C609.884 809.297 581.745 800.189 557.005 787.819C556.461 787.683 555.781 791.761 555.238 797.062C553.47 814.327 548.848 833.358 542.867 847.359C538.109 858.642 534.575 869.653 532.4 880.12C530.905 887.325 531.041 889.092 533.216 895.209C538.925 911.25 548.984 921.853 565.569 929.602C574.677 933.816 576.988 933.816 583.241 929.602C594.795 921.717 602.272 922.533 612.603 932.864C619.944 940.341 622.391 945.642 622.391 954.614C622.391 960.323 621.711 961.955 618.72 964.945C612.059 971.062 606.214 972.966 592.213 973.509C565.161 974.733 552.247 969.975 522.477 947.953C518.67 945.098 509.155 936.262 501.27 928.106L486.861 913.289L486.045 884.742C485.094 849.534 481.831 834.309 469.733 807.937C467.422 802.908 456.683 786.187 452.741 781.43C440.098 766.205 438.739 765.389 432.622 770.962C431.263 772.186 428.272 774.361 426.233 775.72C422.427 778.167 420.795 779.391 412.503 786.323C402.852 794.208 372.673 812.016 368.867 812.016C368.459 812.016 363.294 815.142 357.448 818.812C351.603 822.619 346.574 825.609 346.166 825.609C345.486 825.609 327.678 836.077 326.319 837.3C325.231 838.116 337.738 850.486 345.35 856.195C364.925 870.877 395.103 879.441 417.805 876.586C423.242 875.906 426.913 874.547 431.127 871.284C445.128 860.545 446.488 850.622 435.748 837.028C428.68 828.056 425.281 820.852 425.281 814.87C425.281 811.2 425.689 810.792 431.942 809.977C444.448 808.345 457.363 813.919 467.83 825.609C474.627 833.222 481.016 845.184 481.016 850.486C481.016 855.38 477.209 865.303 474.083 868.43C472.724 869.925 469.053 874.275 466.063 878.217C461.441 884.062 459.538 885.422 453.828 886.917C449.206 888.141 447.167 889.228 447.575 890.452C448.119 891.811 446.488 892.219 441.458 892.219C435.884 892.219 434.797 892.627 435.069 894.53C436.156 900.375 416.717 899.967 387.898 893.578C356.633 886.645 335.155 876.586 311.638 858.098L303.345 851.573L298.044 855.108C287.984 861.769 281.188 872.1 274.798 890.18C271.536 899.423 271.536 924.572 274.798 932.048C276.158 934.767 277.245 937.078 277.517 937.078C277.653 937.078 281.188 936.127 285.266 935.039C295.869 932.184 302.802 934.223 309.734 942.244C316.667 949.992 318.842 956.653 316.531 963.45C313.677 972.15 303.209 977.316 283.77 979.355C256.991 982.209 255.631 982.209 247.747 979.898C228.852 974.461 226.133 967.936 226.269 930.961C226.405 900.375 229.123 883.247 237.688 858.234C242.445 844.369 243.805 842.602 253.592 836.484C258.622 833.222 265.419 828.464 268.681 825.881L274.527 821.123L264.467 810.792C253.592 799.509 246.659 791.625 242.445 785.644C240.95 783.469 237.552 778.983 235.105 775.448C227.492 765.389 217.569 743.775 213.627 728.822C210.364 716.587 209.82 712.237 209.82 694.43C209.82 670.913 211.995 661.397 220.967 646.308C243.397 608.517 288.256 591.797 367.508 591.797C382.461 591.797 400.813 592.612 408.425 593.7C418.077 594.923 424.738 595.059 430.855 594.244C435.613 593.564 445.672 593.292 453.148 593.7C469.733 594.652 480.88 597.914 502.086 608.381C543.683 628.772 570.463 636.384 607.438 638.152C633.538 639.511 646.588 638.423 660.725 633.802C676.902 628.5 681.659 624.286 691.991 606.886C695.661 600.497 699.603 594.244 700.419 593.156C701.37 592.069 703.273 588.127 704.497 584.592C708.167 574.669 712.109 570.727 720.809 568.688C727.606 567.056 730.869 567.192 739.433 569.367C742.152 570.047 743.239 569.367 745.414 565.697C753.706 551.423 770.698 531.984 786.875 517.847C793.944 511.73 809.441 501.534 813.791 500.175C816.238 499.359 816.781 498.136 816.781 493.65C816.781 486.309 820.316 473.123 824.666 464.287C832.278 448.655 843.425 441.858 854.164 446.208ZM837.308 453.956C822.491 466.734 816.238 496.233 825.345 510.098C829.831 516.895 834.725 519.614 837.852 517.031C839.619 515.536 839.347 514.72 834.589 510.778C827.249 504.525 824.394 496.505 825.209 485.222C825.617 480.056 827.249 473.939 829.152 470.133C832.822 462.792 840.842 455.044 846.144 453.684C852.261 452.189 853.62 455.723 853.213 470.812C852.805 483.591 852.941 483.863 857.155 489.844C859.602 493.106 861.641 496.505 861.641 497.184C861.641 499.087 843.561 517.711 836.22 523.42C828.336 529.673 824.938 537.422 824.938 549.248C824.938 554.414 825.753 561.619 826.841 565.017C827.792 568.416 828.336 571.542 827.928 571.95C826.569 573.445 823.986 568.008 822.219 560.395C819.228 547.209 821.267 536.742 829.152 524.1C830.647 521.789 830.103 520.837 825.753 516.487C823.034 513.633 820.452 509.555 819.908 507.38C819.5 505.205 818.684 503.166 818.141 502.758C816.374 501.67 796.663 514.448 785.923 523.692C772.738 535.111 748.813 563.522 747.181 569.911C746.909 570.591 750.444 573.173 754.93 575.484C761.998 579.427 769.339 584.456 780.078 593.02C781.981 594.516 783.069 596.147 782.525 596.555C782.117 597.098 777.495 594.38 772.33 590.709C767.3 587.039 758.192 581.602 752.347 578.747C742.967 574.125 739.977 573.445 730.597 573.038C721.081 572.63 719.042 572.902 716.052 575.348C709.527 580.514 705.313 593.7 700.555 623.742C697.564 642.909 695.389 646.987 696.341 631.219C696.884 624.83 697.564 618.169 698.108 616.266C698.923 613.411 697.564 614.227 690.223 620.752C680.708 629.452 670.241 634.889 655.695 638.831C647.539 641.006 641.558 641.414 614.234 641.278C586.367 641.278 580.794 640.87 570.734 638.423C544.091 631.762 539.741 630.131 506.844 614.498C488.9 606.07 473.675 600.225 465.383 598.73C452.741 596.419 435.205 596.963 423.242 599.953C410.6 603.216 411.552 603.08 412.503 600.633C413.047 599.138 412.367 598.594 410.192 598.458C408.425 598.322 405.027 597.914 402.852 597.506C400.541 597.098 382.597 596.691 362.75 596.691C322.377 596.691 306.88 598.458 282.003 605.391C266.914 609.605 252.641 616.809 243.805 624.558C238.775 629.044 227.084 644.405 223.686 650.93C222.598 653.241 220.152 659.358 218.384 664.523C215.666 672.816 215.258 676.486 215.394 694.43C215.53 724.744 221.239 744.862 236.6 768.516C243.805 779.798 275.206 817.181 277.517 817.317C278.741 817.453 287.984 807.937 287.984 806.578C287.984 806.17 285.945 803.723 283.499 801.005C281.188 798.15 278.061 794.752 276.702 793.12C273.983 789.858 263.516 774.905 261.477 771.506C260.661 770.147 258.758 767.292 257.263 765.117C252.777 758.864 241.766 735.075 237.959 723.656C233.881 711.15 232.658 694.837 234.969 685.866C237.688 675.806 246.931 657.998 253.864 649.298C259.438 642.366 272.895 631.491 276.158 631.355C276.838 631.219 279.284 630.403 281.595 629.316C291.791 624.966 294.238 624.286 306.064 622.383C328.494 618.713 353.914 620.072 372.674 626.053C377.567 627.548 377.975 627.412 382.189 623.47C387.083 618.712 394.831 614.498 397.006 615.178C397.822 615.45 395.375 618.033 391.433 620.887C387.491 623.742 379.742 631.355 374.169 637.88C362.478 651.337 358.128 660.581 351.875 685.186C340.32 729.909 333.659 746.358 315.444 775.312C296.956 804.811 274.527 830.095 260.117 837.844C249.786 843.417 247.475 845.456 245.028 851.302C242.173 858.234 236.736 879.305 234.969 890.859C231.57 912.609 229.531 929.873 229.531 936.806C229.531 948.089 232.25 963.178 235.105 967.12C238.911 972.558 250.33 976.908 261.069 977.044C273.167 977.18 275.614 975.141 273.167 966.712C270.992 959.644 262.428 950.672 257.942 950.672C256.175 950.672 252.641 951.895 250.194 953.391C245.028 956.653 244.349 954.75 249.378 950.808C255.495 946.05 262.428 947.409 270.041 954.886C274.663 959.508 278.469 966.712 278.469 971.198C278.469 973.373 279.556 973.781 286.217 973.781C296.684 973.781 300.219 972.694 300.219 969.567C300.219 963.994 294.102 951.08 289.072 946.05C284.586 941.564 283.363 940.884 279.692 941.7C277.381 942.108 273.711 943.739 271.536 945.37C265.691 949.448 263.923 947.953 268.681 942.923L272.624 938.573L270.041 930.689C266.37 919.95 267.186 898.336 271.672 885.422C275.478 874.819 280.78 864.895 286.625 857.827C288.8 855.108 311.909 839.611 319.386 835.805C321.969 834.445 332.572 828.328 343.039 822.211C353.506 815.958 366.692 808.753 372.266 805.898C382.053 801.005 396.734 792.305 403.531 787.275C405.434 785.916 414.542 779.255 423.922 772.322C433.302 765.525 443.905 757.369 447.711 754.242C451.381 751.116 457.906 746.63 462.12 744.183C472.723 738.202 496.649 731.677 492.434 735.891C491.619 736.706 487.133 738.473 482.239 739.833C473.267 742.416 460.081 748.533 458.722 750.708C458.314 751.387 462.12 752.611 467.15 753.562C482.919 756.553 522.748 769.467 542.731 778.167C590.445 798.83 604.583 803.995 627.828 808.753C641.83 811.608 673.367 812.695 687.913 810.792C721.761 806.306 755.474 790.945 776.952 770.283L787.147 760.495L784.02 756.009C775.32 743.775 761.047 731.812 739.705 719.034C731.277 714.005 734.131 712.917 743.647 717.675C759.688 725.695 776.544 740.241 787.555 755.058C790.545 759.272 796.934 770.419 801.692 779.934C811.344 799.373 812.295 800.189 827.113 802.5C845.736 805.355 877.138 814.327 897.936 822.755C901.878 824.25 912.209 829.008 920.909 833.222C939.261 842.194 940.348 843.417 952.855 868.294C957.341 877.402 961.555 885.286 962.37 885.966C963.05 886.781 963.594 888.141 963.594 889.228C963.594 890.859 963.186 890.859 961.555 889.5C955.845 884.742 962.099 901.055 968.488 907.852C970.663 910.162 974.741 913.833 977.731 916.008C982.217 919.406 982.897 919.678 982.217 917.367C980.314 911.114 979.634 907.172 980.45 907.172C980.994 907.172 983.577 911.794 986.295 917.503C993.5 932.32 1004.51 941.156 1015.93 941.156C1021.78 941.156 1022.73 939.117 1022.73 927.562C1022.59 918.727 1022.05 916.008 1019.74 913.017C1017.43 909.891 1015.93 909.211 1011.31 909.483C1007.23 909.619 1005.73 909.211 1005.73 907.716C1005.73 906.356 1007.5 905.812 1011.85 905.812C1016.75 905.812 1018.78 906.492 1021.23 909.211C1024.77 913.017 1027.48 921.989 1027.48 930.009C1027.48 934.903 1027.76 935.311 1030.88 934.767C1036.46 933.68 1038.9 928.106 1039.04 916.687C1039.04 905.133 1036.32 897.656 1030.75 893.986C1027.62 891.947 1026.8 891.947 1020.69 893.986C1016.2 895.481 1012.8 895.753 1010.76 895.073C1008.05 893.986 1008.32 893.714 1013.35 892.355C1016.34 891.539 1020.82 890.452 1023.27 890.044C1030.48 888.548 1025.58 885.694 1014.03 884.606L1004.1 883.655L1005.05 888.141C1005.73 891.267 1005.6 892.219 1004.51 891.675C1002.06 890.044 999.073 881.752 996.355 868.566C990.373 839.339 983.577 827.648 957.613 801.684C938.581 782.653 928.522 773.953 911.258 761.175C908.267 758.864 905.548 756.689 905.141 756.281C904.597 755.602 899.975 752.067 886.789 742.416C877.409 735.483 871.972 731.677 865.991 727.87C857.427 722.433 854.572 718.762 851.038 708.023C844.784 689.4 835.541 665.339 831.734 657.591C826.569 646.987 813.791 629.859 801.149 616.673C790.953 606.07 788.778 602.672 793.536 605.255C799.109 608.245 813.655 623.742 825.345 638.967C829.016 643.725 832.414 647.531 833.23 647.531C833.909 647.531 834.453 645.764 834.453 643.589C834.453 639.239 840.706 618.984 842.745 616.945C844.513 615.178 844.241 608.381 841.93 600.769C839.211 591.797 839.347 590.302 842.609 595.195C846.824 601.584 848.319 609.061 848.183 622.927L848.047 635.705L853.892 641.414C862.456 649.57 871.156 653.512 878.769 652.561C885.838 651.881 891.955 646.987 894.13 640.327C895.489 636.656 895.217 635.841 891.003 632.034C888.284 629.452 883.119 626.733 877.953 625.102C865.311 621.295 858.106 616.13 856.339 609.877C854.3 602.536 854.436 591.389 856.747 588.262C859.738 584.184 860.689 586.903 858.922 594.108C856.747 602.4 858.786 610.828 863.816 614.77C867.758 617.897 879.177 622.383 886.517 623.742C890.188 624.422 892.091 625.917 894.13 629.316C897.12 634.481 899.975 635.025 906.908 632.034C912.074 629.859 916.695 625.102 918.055 620.48C919.006 617.489 918.734 617.353 915.88 618.169C914.113 618.712 908.539 619.528 903.645 619.936L894.674 620.616L891.547 615.586C889.78 612.867 886.109 605.662 883.119 599.545C878.361 589.758 878.089 588.398 879.856 586.631C881.759 584.728 883.119 585.68 892.634 595.467C901.606 604.711 904.461 606.886 910.578 608.653C921.997 612.052 921.453 612.867 921.453 594.516C921.453 581.058 921.861 577.116 924.036 573.038C927.706 565.833 941.708 552.375 946.33 551.423C948.505 551.016 950.544 549.928 950.816 548.977C952.039 545.986 944.698 526.547 939.669 518.934C929.609 503.709 917.783 496.369 894.266 490.387C889.372 489.164 884.886 487.261 884.342 486.309C883.255 484.27 877.138 480.872 867.894 477.066L862.728 474.891L863.272 478.289C864.088 481.959 862.456 483.047 861.233 479.784C860.825 478.697 859.738 472.852 858.786 466.598C856.203 448.519 848.727 444.169 837.308 453.956ZM837.852 462.792C832.958 468.773 828.744 477.338 830.511 477.881C831.463 478.153 831.463 479.512 830.511 482.095C826.705 492.155 829.559 501.127 839.347 509.555L843.289 512.953L846.28 509.419C847.775 507.38 849.542 503.981 849.95 501.67C850.63 498.272 851.174 497.864 854.164 498.544C858.378 499.631 858.378 499.223 853.756 492.155C850.358 486.989 850.086 485.358 850.086 473.531C850.222 466.055 849.678 460.209 848.727 459.666C845.736 457.491 841.386 458.714 837.852 462.792ZM963.594 534.023C958.564 539.189 956.797 539.869 956.797 536.606C956.797 535.383 955.845 534.703 954.622 534.975C952.311 535.519 952.311 535.111 953.534 542.452C953.942 545.714 954.894 548.297 955.573 548.297C956.117 548.297 959.516 544.763 963.05 540.413C969.847 532.12 971.342 531.305 973.517 534.975C975.692 538.238 971.478 550.608 965.633 558.22C962.914 561.755 957.748 566.105 953.806 568.28C949.32 570.727 947.689 572.222 949.048 572.494C954.078 573.445 967.128 561.211 971.886 551.016C975.013 544.491 976.644 534.839 975.42 531.305C973.925 527.77 968.488 528.994 963.594 534.023ZM962.642 546.938C953.942 558.492 950.952 568.144 958.156 561.211C962.506 557.133 970.391 542.587 970.391 538.917C970.391 536.606 970.255 536.742 962.642 546.938ZM939.805 561.483C937.902 562.978 937.63 563.794 938.717 564.202C941.98 565.425 940.484 567.328 936.406 567.328C933.552 567.328 931.105 568.552 928.794 570.998C927.027 572.902 925.667 574.669 925.803 574.941C926.075 575.077 929.609 574.805 933.688 574.397C940.213 573.581 941.164 573.038 941.572 570.319C941.844 568.28 942.795 567.328 943.883 567.872C944.97 568.28 947.145 566.92 948.641 564.881C951.224 561.619 951.359 561.211 949.32 559.716C946.874 557.812 943.747 558.492 939.805 561.483ZM934.639 580.922C934.095 583.233 934.367 583.369 936.542 582.145C938.038 581.466 938.853 580.242 938.445 579.427C937.086 577.387 935.455 578.067 934.639 580.922ZM925.803 582.281C926.755 583.641 927.57 584.728 927.57 584.592C927.57 584.456 928.522 583.233 929.473 581.873C931.105 579.834 930.969 579.562 927.706 579.562C924.58 579.562 924.308 579.834 925.803 582.281ZM929.745 587.175C925.803 587.991 925.531 588.398 925.531 594.516C925.531 598.05 924.852 604.167 924.172 608.109C923.356 612.052 923.084 615.586 923.356 615.858C923.628 616.266 926.619 613.819 930.017 610.556C936.542 604.303 939.125 597.914 938.038 590.709C937.358 586.088 936.678 585.816 929.745 587.175ZM887.333 597.778C890.188 600.769 891.547 603.487 891.547 606.342C891.547 608.653 892.634 611.916 894.13 613.683C896.305 616.402 896.984 616.537 898.888 615.042C900.791 613.547 901.063 613.547 901.063 615.45C901.063 618.033 901.198 618.033 909.898 615.858L916.559 614.091L909.898 612.188C904.461 610.692 901.198 608.381 893.586 600.769C888.284 595.467 883.798 591.661 883.527 592.205C883.255 592.884 885.022 595.331 887.333 597.778ZM697.02 605.662C694.166 611.372 694.166 611.372 696.884 609.061C699.195 607.022 701.914 599.953 700.419 599.953C700.147 599.953 698.652 602.536 697.02 605.662ZM306.336 625.917C290.703 628.228 277.925 633.666 265.147 643.181C259.574 647.395 246.795 666.427 242.173 677.709C239.183 684.914 238.503 688.312 238.639 699.188C238.639 711.286 239.047 713.189 244.892 728.822C248.427 737.93 252.505 747.989 254.136 751.252C260.525 763.622 282.003 793.8 288.936 800.189C291.519 802.5 291.791 802.364 294.238 798.966C295.597 796.927 298.044 793.8 299.675 791.761C304.161 786.052 324.008 753.562 328.494 744.727C333.388 734.939 342.903 705.577 349.836 679.612C355.545 657.862 359.08 650.114 368.459 638.831C374.984 630.947 375.12 630.675 372.13 629.587C368.731 628.228 353.098 624.83 347.117 624.014C341.272 623.198 317.483 624.286 306.336 625.917ZM446.623 759.816L441.458 763.214L451.381 773.817C462.528 785.644 474.899 804.675 480.064 817.725C486.725 834.717 490.531 860.545 490.531 889.772V911.93L500.591 921.581C506.164 926.883 514.184 933.952 518.534 937.214C523.02 940.477 526.827 943.467 527.234 943.875C529.409 946.186 545.994 957.877 552.247 961.547C562.034 967.12 577.803 970.111 591.125 969.159C596.698 968.752 601.592 967.936 602.136 967.256C604.175 965.217 601.456 954.206 597.378 948.089C592.077 940.341 588.134 939.525 579.434 944.555C572.094 948.905 570.598 948.361 575.628 943.467C580.794 938.302 588.27 936.262 593.3 938.573C597.786 940.748 606.758 954.478 607.981 961.139C609.069 966.441 610.564 966.712 614.914 962.227C622.119 955.158 616.953 939.253 604.855 931.369C599.689 927.834 591.941 928.242 585.959 932.32C576.988 938.437 565.433 935.855 549.392 924.3C542.188 919.134 533.624 907.58 530.497 898.744C526.555 887.597 528.73 874.139 538.925 846.544C546.809 824.794 551.703 803.587 551.703 790.809V785.236L541.1 780.75C529.545 775.856 517.311 771.506 500.727 766.205C465.791 755.194 455.188 753.97 446.623 759.816ZM739.977 799.102C717.955 809.297 691.175 815.142 667.93 815.142H651.481L647.811 840.427C644.277 864.08 637.888 889.908 630.683 910.162C627.013 920.358 627.148 926.203 631.091 934.087C632.858 937.622 635.984 946.05 638.023 952.711C640.063 959.508 642.645 965.897 643.733 967.256C646.452 970.247 672.008 971.878 687.505 969.839C702.322 967.936 708.575 964.945 709.119 959.508C710.07 951.487 703.817 937.486 697.7 934.223C694.438 932.592 690.767 933.952 685.738 938.573C684.242 940.069 682.067 941.156 680.98 941.156C678.261 941.156 685.194 934.087 691.039 930.825L695.661 928.378L691.039 925.252C681.795 918.998 674.591 923.212 675.678 934.223C675.95 937.758 675.678 939.253 674.591 938.845C672.008 937.894 669.289 927.427 669.425 918.727C669.425 911.658 670.377 908.531 676.63 895.617C688.592 870.741 697.02 859.05 720.809 833.766C725.431 828.872 731.548 821.803 734.539 818.133C737.394 814.327 745.414 805.627 752.075 798.694L764.445 785.916L756.969 790.266C752.891 792.712 745.142 796.655 739.977 799.102ZM428.272 817.181C427.864 819.628 430.039 822.619 437.652 829.959C444.584 836.62 447.031 839.747 445.808 840.562C444.448 841.378 444.449 842.194 445.536 844.369C447.575 848.311 447.439 857.691 445.128 862.041C442.409 867.342 433.709 875.091 427.049 878.489C417.125 883.519 393.88 881.48 371.586 873.867C363.294 871.012 345.894 861.769 341.952 858.098C340.456 856.739 338.689 855.516 338.145 855.516C337.602 855.516 333.659 852.253 329.309 848.311C325.095 844.505 321.153 840.97 320.338 840.698C318.842 840.155 308.375 847.223 308.375 848.991C308.375 851.437 336.786 871.148 348.613 876.722C361.934 883.111 388.986 890.723 410.056 893.986C422.563 895.889 422.699 895.889 420.252 893.17C417.805 890.452 417.941 890.452 422.155 891.267C425.281 891.947 426.505 891.675 426.233 890.452C426.097 889.364 428 888.956 432.758 889.228C438.875 889.636 439.283 889.5 436.972 887.733C434.661 885.966 435.205 885.83 443.361 885.014C448.391 884.606 454.644 882.975 457.498 881.48L462.664 878.761L456.819 878.625C450.294 878.625 450.158 876.722 456.411 875.498C461.305 874.547 470.82 866.255 473.811 860.545C479.928 848.719 467.014 824.93 450.566 817.453C442.138 813.647 441.322 813.511 434.797 813.783C429.495 814.055 428.68 814.462 428.272 817.181ZM291.791 943.059C298.18 949.992 302.258 957.469 303.617 964.673C304.705 969.975 305.52 970.655 308.103 968.072C312.861 963.314 306.472 944.827 298.859 940.884C287.984 935.447 285.538 936.262 291.791 943.059Z"/>
</mask>
<path d="M854.164 446.208C859.466 448.383 862.049 452.869 862.728 461.025C863.408 470.269 865.175 472.58 874.011 475.706C877.817 477.066 881.895 479.241 883.255 480.464C887.061 483.998 891.003 485.766 902.014 488.62C912.617 491.339 920.502 494.737 924.988 498.136C931.649 503.437 940.892 514.041 945.378 521.789C950.408 530.353 950.68 530.625 956.253 530.625C960.195 530.625 962.914 529.673 965.769 527.227C967.944 525.323 970.663 523.828 971.886 523.828C975.964 523.828 979.091 528.994 979.091 535.791C979.091 550.88 967.128 569.775 954.622 574.805C950.816 576.3 947.961 578.203 948.233 579.019C948.505 579.97 947.145 580.922 945.242 581.466C942.116 582.281 941.844 582.825 941.844 590.845C941.844 602.128 938.038 609.741 928.522 616.945C924.58 619.936 920.094 624.286 918.598 626.733C916.016 630.675 912.209 633.122 903.374 636.52C901.334 637.336 898.48 639.919 897.256 642.23C892.634 650.794 889.236 653.784 882.439 655.416C873.875 657.319 867.35 655.687 857.563 649.162C846.688 641.822 843.561 636.52 844.377 627.141L845.056 619.664L842.609 625.781C841.386 629.18 839.483 637.064 838.531 643.453L836.9 655.008L841.25 665.883C843.697 671.864 847.095 681.652 848.727 687.633C853.892 705.712 857.291 714.412 861.097 718.355C863 720.394 870.749 725.831 878.361 730.589C891.003 738.473 894.402 740.784 898.888 744.727C899.703 745.542 903.102 748.261 906.5 750.844C912.345 755.466 917.511 759.544 920.638 762.398C921.453 763.078 926.075 767.156 930.969 771.234C935.863 775.312 940.077 778.983 940.484 779.391C940.892 779.798 943.339 781.837 945.922 784.012C960.875 795.975 983.713 822.075 990.373 834.445C993.228 839.883 999.345 859.05 1000.98 867.75C1001.66 871.964 1002.74 872.916 1009.54 876.042C1013.75 878.081 1019.46 880.392 1022.18 881.208C1028.03 883.111 1035.64 890.723 1039.85 899.016C1043.66 906.356 1044.88 919.678 1042.44 928.514C1040.81 934.223 1039.99 935.039 1032.38 938.573C1027.76 940.748 1022.59 943.467 1020.82 944.419C1013.89 948.497 998.258 942.38 989.83 932.184C986.975 928.786 982.353 924.572 979.634 922.941C965.497 914.512 957.205 903.23 955.302 890.044C953.806 879.169 941.98 853.069 935.863 846.952C922.677 833.766 842.202 805.219 818.277 805.219C810.528 805.219 807.809 802.772 802.78 791.625C796.934 778.439 793.264 770.691 791.225 767.428L789.186 764.302L783.069 770.147C779.806 773.409 773.417 780.75 769.067 786.459C764.581 792.305 760.503 797.062 759.959 797.062C758.056 797.198 742.288 812.967 736.714 820.716C733.452 825.066 723.936 836.212 715.508 845.456C699.875 862.584 688.184 879.577 678.941 899.152C676.222 904.861 673.639 911.386 673.231 913.697L672.28 918.047H678.533C687.641 918.047 691.719 919.95 698.788 927.834C708.847 938.845 712.653 946.866 712.653 957.333C712.789 965.761 712.653 966.169 708.575 968.616C701.642 972.694 680.844 975.548 663.852 974.733C647.539 973.917 640.742 972.15 638.567 968.072C637.752 966.712 635.984 961.003 634.625 955.566C633.13 950.128 630.139 941.156 627.692 935.719C622.527 923.484 622.798 919.542 629.867 898.2C638.023 874.139 643.189 849.806 646.18 822.891L646.995 815.278L636.392 813.511C609.884 809.297 581.745 800.189 557.005 787.819C556.461 787.683 555.781 791.761 555.238 797.062C553.47 814.327 548.848 833.358 542.867 847.359C538.109 858.642 534.575 869.653 532.4 880.12C530.905 887.325 531.041 889.092 533.216 895.209C538.925 911.25 548.984 921.853 565.569 929.602C574.677 933.816 576.988 933.816 583.241 929.602C594.795 921.717 602.272 922.533 612.603 932.864C619.944 940.341 622.391 945.642 622.391 954.614C622.391 960.323 621.711 961.955 618.72 964.945C612.059 971.062 606.214 972.966 592.213 973.509C565.161 974.733 552.247 969.975 522.477 947.953C518.67 945.098 509.155 936.262 501.27 928.106L486.861 913.289L486.045 884.742C485.094 849.534 481.831 834.309 469.733 807.937C467.422 802.908 456.683 786.187 452.741 781.43C440.098 766.205 438.739 765.389 432.622 770.962C431.263 772.186 428.272 774.361 426.233 775.72C422.427 778.167 420.795 779.391 412.503 786.323C402.852 794.208 372.673 812.016 368.867 812.016C368.459 812.016 363.294 815.142 357.448 818.812C351.603 822.619 346.574 825.609 346.166 825.609C345.486 825.609 327.678 836.077 326.319 837.3C325.231 838.116 337.738 850.486 345.35 856.195C364.925 870.877 395.103 879.441 417.805 876.586C423.242 875.906 426.913 874.547 431.127 871.284C445.128 860.545 446.488 850.622 435.748 837.028C428.68 828.056 425.281 820.852 425.281 814.87C425.281 811.2 425.689 810.792 431.942 809.977C444.448 808.345 457.363 813.919 467.83 825.609C474.627 833.222 481.016 845.184 481.016 850.486C481.016 855.38 477.209 865.303 474.083 868.43C472.724 869.925 469.053 874.275 466.063 878.217C461.441 884.062 459.538 885.422 453.828 886.917C449.206 888.141 447.167 889.228 447.575 890.452C448.119 891.811 446.488 892.219 441.458 892.219C435.884 892.219 434.797 892.627 435.069 894.53C436.156 900.375 416.717 899.967 387.898 893.578C356.633 886.645 335.155 876.586 311.638 858.098L303.345 851.573L298.044 855.108C287.984 861.769 281.188 872.1 274.798 890.18C271.536 899.423 271.536 924.572 274.798 932.048C276.158 934.767 277.245 937.078 277.517 937.078C277.653 937.078 281.188 936.127 285.266 935.039C295.869 932.184 302.802 934.223 309.734 942.244C316.667 949.992 318.842 956.653 316.531 963.45C313.677 972.15 303.209 977.316 283.77 979.355C256.991 982.209 255.631 982.209 247.747 979.898C228.852 974.461 226.133 967.936 226.269 930.961C226.405 900.375 229.123 883.247 237.688 858.234C242.445 844.369 243.805 842.602 253.592 836.484C258.622 833.222 265.419 828.464 268.681 825.881L274.527 821.123L264.467 810.792C253.592 799.509 246.659 791.625 242.445 785.644C240.95 783.469 237.552 778.983 235.105 775.448C227.492 765.389 217.569 743.775 213.627 728.822C210.364 716.587 209.82 712.237 209.82 694.43C209.82 670.913 211.995 661.397 220.967 646.308C243.397 608.517 288.256 591.797 367.508 591.797C382.461 591.797 400.813 592.612 408.425 593.7C418.077 594.923 424.738 595.059 430.855 594.244C435.613 593.564 445.672 593.292 453.148 593.7C469.733 594.652 480.88 597.914 502.086 608.381C543.683 628.772 570.463 636.384 607.438 638.152C633.538 639.511 646.588 638.423 660.725 633.802C676.902 628.5 681.659 624.286 691.991 606.886C695.661 600.497 699.603 594.244 700.419 593.156C701.37 592.069 703.273 588.127 704.497 584.592C708.167 574.669 712.109 570.727 720.809 568.688C727.606 567.056 730.869 567.192 739.433 569.367C742.152 570.047 743.239 569.367 745.414 565.697C753.706 551.423 770.698 531.984 786.875 517.847C793.944 511.73 809.441 501.534 813.791 500.175C816.238 499.359 816.781 498.136 816.781 493.65C816.781 486.309 820.316 473.123 824.666 464.287C832.278 448.655 843.425 441.858 854.164 446.208ZM837.308 453.956C822.491 466.734 816.238 496.233 825.345 510.098C829.831 516.895 834.725 519.614 837.852 517.031C839.619 515.536 839.347 514.72 834.589 510.778C827.249 504.525 824.394 496.505 825.209 485.222C825.617 480.056 827.249 473.939 829.152 470.133C832.822 462.792 840.842 455.044 846.144 453.684C852.261 452.189 853.62 455.723 853.213 470.812C852.805 483.591 852.941 483.863 857.155 489.844C859.602 493.106 861.641 496.505 861.641 497.184C861.641 499.087 843.561 517.711 836.22 523.42C828.336 529.673 824.938 537.422 824.938 549.248C824.938 554.414 825.753 561.619 826.841 565.017C827.792 568.416 828.336 571.542 827.928 571.95C826.569 573.445 823.986 568.008 822.219 560.395C819.228 547.209 821.267 536.742 829.152 524.1C830.647 521.789 830.103 520.837 825.753 516.487C823.034 513.633 820.452 509.555 819.908 507.38C819.5 505.205 818.684 503.166 818.141 502.758C816.374 501.67 796.663 514.448 785.923 523.692C772.738 535.111 748.813 563.522 747.181 569.911C746.909 570.591 750.444 573.173 754.93 575.484C761.998 579.427 769.339 584.456 780.078 593.02C781.981 594.516 783.069 596.147 782.525 596.555C782.117 597.098 777.495 594.38 772.33 590.709C767.3 587.039 758.192 581.602 752.347 578.747C742.967 574.125 739.977 573.445 730.597 573.038C721.081 572.63 719.042 572.902 716.052 575.348C709.527 580.514 705.313 593.7 700.555 623.742C697.564 642.909 695.389 646.987 696.341 631.219C696.884 624.83 697.564 618.169 698.108 616.266C698.923 613.411 697.564 614.227 690.223 620.752C680.708 629.452 670.241 634.889 655.695 638.831C647.539 641.006 641.558 641.414 614.234 641.278C586.367 641.278 580.794 640.87 570.734 638.423C544.091 631.762 539.741 630.131 506.844 614.498C488.9 606.07 473.675 600.225 465.383 598.73C452.741 596.419 435.205 596.963 423.242 599.953C410.6 603.216 411.552 603.08 412.503 600.633C413.047 599.138 412.367 598.594 410.192 598.458C408.425 598.322 405.027 597.914 402.852 597.506C400.541 597.098 382.597 596.691 362.75 596.691C322.377 596.691 306.88 598.458 282.003 605.391C266.914 609.605 252.641 616.809 243.805 624.558C238.775 629.044 227.084 644.405 223.686 650.93C222.598 653.241 220.152 659.358 218.384 664.523C215.666 672.816 215.258 676.486 215.394 694.43C215.53 724.744 221.239 744.862 236.6 768.516C243.805 779.798 275.206 817.181 277.517 817.317C278.741 817.453 287.984 807.937 287.984 806.578C287.984 806.17 285.945 803.723 283.499 801.005C281.188 798.15 278.061 794.752 276.702 793.12C273.983 789.858 263.516 774.905 261.477 771.506C260.661 770.147 258.758 767.292 257.263 765.117C252.777 758.864 241.766 735.075 237.959 723.656C233.881 711.15 232.658 694.837 234.969 685.866C237.688 675.806 246.931 657.998 253.864 649.298C259.438 642.366 272.895 631.491 276.158 631.355C276.838 631.219 279.284 630.403 281.595 629.316C291.791 624.966 294.238 624.286 306.064 622.383C328.494 618.713 353.914 620.072 372.674 626.053C377.567 627.548 377.975 627.412 382.189 623.47C387.083 618.712 394.831 614.498 397.006 615.178C397.822 615.45 395.375 618.033 391.433 620.887C387.491 623.742 379.742 631.355 374.169 637.88C362.478 651.337 358.128 660.581 351.875 685.186C340.32 729.909 333.659 746.358 315.444 775.312C296.956 804.811 274.527 830.095 260.117 837.844C249.786 843.417 247.475 845.456 245.028 851.302C242.173 858.234 236.736 879.305 234.969 890.859C231.57 912.609 229.531 929.873 229.531 936.806C229.531 948.089 232.25 963.178 235.105 967.12C238.911 972.558 250.33 976.908 261.069 977.044C273.167 977.18 275.614 975.141 273.167 966.712C270.992 959.644 262.428 950.672 257.942 950.672C256.175 950.672 252.641 951.895 250.194 953.391C245.028 956.653 244.349 954.75 249.378 950.808C255.495 946.05 262.428 947.409 270.041 954.886C274.663 959.508 278.469 966.712 278.469 971.198C278.469 973.373 279.556 973.781 286.217 973.781C296.684 973.781 300.219 972.694 300.219 969.567C300.219 963.994 294.102 951.08 289.072 946.05C284.586 941.564 283.363 940.884 279.692 941.7C277.381 942.108 273.711 943.739 271.536 945.37C265.691 949.448 263.923 947.953 268.681 942.923L272.624 938.573L270.041 930.689C266.37 919.95 267.186 898.336 271.672 885.422C275.478 874.819 280.78 864.895 286.625 857.827C288.8 855.108 311.909 839.611 319.386 835.805C321.969 834.445 332.572 828.328 343.039 822.211C353.506 815.958 366.692 808.753 372.266 805.898C382.053 801.005 396.734 792.305 403.531 787.275C405.434 785.916 414.542 779.255 423.922 772.322C433.302 765.525 443.905 757.369 447.711 754.242C451.381 751.116 457.906 746.63 462.12 744.183C472.723 738.202 496.649 731.677 492.434 735.891C491.619 736.706 487.133 738.473 482.239 739.833C473.267 742.416 460.081 748.533 458.722 750.708C458.314 751.387 462.12 752.611 467.15 753.562C482.919 756.553 522.748 769.467 542.731 778.167C590.445 798.83 604.583 803.995 627.828 808.753C641.83 811.608 673.367 812.695 687.913 810.792C721.761 806.306 755.474 790.945 776.952 770.283L787.147 760.495L784.02 756.009C775.32 743.775 761.047 731.812 739.705 719.034C731.277 714.005 734.131 712.917 743.647 717.675C759.688 725.695 776.544 740.241 787.555 755.058C790.545 759.272 796.934 770.419 801.692 779.934C811.344 799.373 812.295 800.189 827.113 802.5C845.736 805.355 877.138 814.327 897.936 822.755C901.878 824.25 912.209 829.008 920.909 833.222C939.261 842.194 940.348 843.417 952.855 868.294C957.341 877.402 961.555 885.286 962.37 885.966C963.05 886.781 963.594 888.141 963.594 889.228C963.594 890.859 963.186 890.859 961.555 889.5C955.845 884.742 962.099 901.055 968.488 907.852C970.663 910.162 974.741 913.833 977.731 916.008C982.217 919.406 982.897 919.678 982.217 917.367C980.314 911.114 979.634 907.172 980.45 907.172C980.994 907.172 983.577 911.794 986.295 917.503C993.5 932.32 1004.51 941.156 1015.93 941.156C1021.78 941.156 1022.73 939.117 1022.73 927.562C1022.59 918.727 1022.05 916.008 1019.74 913.017C1017.43 909.891 1015.93 909.211 1011.31 909.483C1007.23 909.619 1005.73 909.211 1005.73 907.716C1005.73 906.356 1007.5 905.812 1011.85 905.812C1016.75 905.812 1018.78 906.492 1021.23 909.211C1024.77 913.017 1027.48 921.989 1027.48 930.009C1027.48 934.903 1027.76 935.311 1030.88 934.767C1036.46 933.68 1038.9 928.106 1039.04 916.687C1039.04 905.133 1036.32 897.656 1030.75 893.986C1027.62 891.947 1026.8 891.947 1020.69 893.986C1016.2 895.481 1012.8 895.753 1010.76 895.073C1008.05 893.986 1008.32 893.714 1013.35 892.355C1016.34 891.539 1020.82 890.452 1023.27 890.044C1030.48 888.548 1025.58 885.694 1014.03 884.606L1004.1 883.655L1005.05 888.141C1005.73 891.267 1005.6 892.219 1004.51 891.675C1002.06 890.044 999.073 881.752 996.355 868.566C990.373 839.339 983.577 827.648 957.613 801.684C938.581 782.653 928.522 773.953 911.258 761.175C908.267 758.864 905.548 756.689 905.141 756.281C904.597 755.602 899.975 752.067 886.789 742.416C877.409 735.483 871.972 731.677 865.991 727.87C857.427 722.433 854.572 718.762 851.038 708.023C844.784 689.4 835.541 665.339 831.734 657.591C826.569 646.987 813.791 629.859 801.149 616.673C790.953 606.07 788.778 602.672 793.536 605.255C799.109 608.245 813.655 623.742 825.345 638.967C829.016 643.725 832.414 647.531 833.23 647.531C833.909 647.531 834.453 645.764 834.453 643.589C834.453 639.239 840.706 618.984 842.745 616.945C844.513 615.178 844.241 608.381 841.93 600.769C839.211 591.797 839.347 590.302 842.609 595.195C846.824 601.584 848.319 609.061 848.183 622.927L848.047 635.705L853.892 641.414C862.456 649.57 871.156 653.512 878.769 652.561C885.838 651.881 891.955 646.987 894.13 640.327C895.489 636.656 895.217 635.841 891.003 632.034C888.284 629.452 883.119 626.733 877.953 625.102C865.311 621.295 858.106 616.13 856.339 609.877C854.3 602.536 854.436 591.389 856.747 588.262C859.738 584.184 860.689 586.903 858.922 594.108C856.747 602.4 858.786 610.828 863.816 614.77C867.758 617.897 879.177 622.383 886.517 623.742C890.188 624.422 892.091 625.917 894.13 629.316C897.12 634.481 899.975 635.025 906.908 632.034C912.074 629.859 916.695 625.102 918.055 620.48C919.006 617.489 918.734 617.353 915.88 618.169C914.113 618.712 908.539 619.528 903.645 619.936L894.674 620.616L891.547 615.586C889.78 612.867 886.109 605.662 883.119 599.545C878.361 589.758 878.089 588.398 879.856 586.631C881.759 584.728 883.119 585.68 892.634 595.467C901.606 604.711 904.461 606.886 910.578 608.653C921.997 612.052 921.453 612.867 921.453 594.516C921.453 581.058 921.861 577.116 924.036 573.038C927.706 565.833 941.708 552.375 946.33 551.423C948.505 551.016 950.544 549.928 950.816 548.977C952.039 545.986 944.698 526.547 939.669 518.934C929.609 503.709 917.783 496.369 894.266 490.387C889.372 489.164 884.886 487.261 884.342 486.309C883.255 484.27 877.138 480.872 867.894 477.066L862.728 474.891L863.272 478.289C864.088 481.959 862.456 483.047 861.233 479.784C860.825 478.697 859.738 472.852 858.786 466.598C856.203 448.519 848.727 444.169 837.308 453.956ZM837.852 462.792C832.958 468.773 828.744 477.338 830.511 477.881C831.463 478.153 831.463 479.512 830.511 482.095C826.705 492.155 829.559 501.127 839.347 509.555L843.289 512.953L846.28 509.419C847.775 507.38 849.542 503.981 849.95 501.67C850.63 498.272 851.174 497.864 854.164 498.544C858.378 499.631 858.378 499.223 853.756 492.155C850.358 486.989 850.086 485.358 850.086 473.531C850.222 466.055 849.678 460.209 848.727 459.666C845.736 457.491 841.386 458.714 837.852 462.792ZM963.594 534.023C958.564 539.189 956.797 539.869 956.797 536.606C956.797 535.383 955.845 534.703 954.622 534.975C952.311 535.519 952.311 535.111 953.534 542.452C953.942 545.714 954.894 548.297 955.573 548.297C956.117 548.297 959.516 544.763 963.05 540.413C969.847 532.12 971.342 531.305 973.517 534.975C975.692 538.238 971.478 550.608 965.633 558.22C962.914 561.755 957.748 566.105 953.806 568.28C949.32 570.727 947.689 572.222 949.048 572.494C954.078 573.445 967.128 561.211 971.886 551.016C975.013 544.491 976.644 534.839 975.42 531.305C973.925 527.77 968.488 528.994 963.594 534.023ZM962.642 546.938C953.942 558.492 950.952 568.144 958.156 561.211C962.506 557.133 970.391 542.587 970.391 538.917C970.391 536.606 970.255 536.742 962.642 546.938ZM939.805 561.483C937.902 562.978 937.63 563.794 938.717 564.202C941.98 565.425 940.484 567.328 936.406 567.328C933.552 567.328 931.105 568.552 928.794 570.998C927.027 572.902 925.667 574.669 925.803 574.941C926.075 575.077 929.609 574.805 933.688 574.397C940.213 573.581 941.164 573.038 941.572 570.319C941.844 568.28 942.795 567.328 943.883 567.872C944.97 568.28 947.145 566.92 948.641 564.881C951.224 561.619 951.359 561.211 949.32 559.716C946.874 557.812 943.747 558.492 939.805 561.483ZM934.639 580.922C934.095 583.233 934.367 583.369 936.542 582.145C938.038 581.466 938.853 580.242 938.445 579.427C937.086 577.387 935.455 578.067 934.639 580.922ZM925.803 582.281C926.755 583.641 927.57 584.728 927.57 584.592C927.57 584.456 928.522 583.233 929.473 581.873C931.105 579.834 930.969 579.562 927.706 579.562C924.58 579.562 924.308 579.834 925.803 582.281ZM929.745 587.175C925.803 587.991 925.531 588.398 925.531 594.516C925.531 598.05 924.852 604.167 924.172 608.109C923.356 612.052 923.084 615.586 923.356 615.858C923.628 616.266 926.619 613.819 930.017 610.556C936.542 604.303 939.125 597.914 938.038 590.709C937.358 586.088 936.678 585.816 929.745 587.175ZM887.333 597.778C890.188 600.769 891.547 603.487 891.547 606.342C891.547 608.653 892.634 611.916 894.13 613.683C896.305 616.402 896.984 616.537 898.888 615.042C900.791 613.547 901.063 613.547 901.063 615.45C901.063 618.033 901.198 618.033 909.898 615.858L916.559 614.091L909.898 612.188C904.461 610.692 901.198 608.381 893.586 600.769C888.284 595.467 883.798 591.661 883.527 592.205C883.255 592.884 885.022 595.331 887.333 597.778ZM697.02 605.662C694.166 611.372 694.166 611.372 696.884 609.061C699.195 607.022 701.914 599.953 700.419 599.953C700.147 599.953 698.652 602.536 697.02 605.662ZM306.336 625.917C290.703 628.228 277.925 633.666 265.147 643.181C259.574 647.395 246.795 666.427 242.173 677.709C239.183 684.914 238.503 688.312 238.639 699.188C238.639 711.286 239.047 713.189 244.892 728.822C248.427 737.93 252.505 747.989 254.136 751.252C260.525 763.622 282.003 793.8 288.936 800.189C291.519 802.5 291.791 802.364 294.238 798.966C295.597 796.927 298.044 793.8 299.675 791.761C304.161 786.052 324.008 753.562 328.494 744.727C333.388 734.939 342.903 705.577 349.836 679.612C355.545 657.862 359.08 650.114 368.459 638.831C374.984 630.947 375.12 630.675 372.13 629.587C368.731 628.228 353.098 624.83 347.117 624.014C341.272 623.198 317.483 624.286 306.336 625.917ZM446.623 759.816L441.458 763.214L451.381 773.817C462.528 785.644 474.899 804.675 480.064 817.725C486.725 834.717 490.531 860.545 490.531 889.772V911.93L500.591 921.581C506.164 926.883 514.184 933.952 518.534 937.214C523.02 940.477 526.827 943.467 527.234 943.875C529.409 946.186 545.994 957.877 552.247 961.547C562.034 967.12 577.803 970.111 591.125 969.159C596.698 968.752 601.592 967.936 602.136 967.256C604.175 965.217 601.456 954.206 597.378 948.089C592.077 940.341 588.134 939.525 579.434 944.555C572.094 948.905 570.598 948.361 575.628 943.467C580.794 938.302 588.27 936.262 593.3 938.573C597.786 940.748 606.758 954.478 607.981 961.139C609.069 966.441 610.564 966.712 614.914 962.227C622.119 955.158 616.953 939.253 604.855 931.369C599.689 927.834 591.941 928.242 585.959 932.32C576.988 938.437 565.433 935.855 549.392 924.3C542.188 919.134 533.624 907.58 530.497 898.744C526.555 887.597 528.73 874.139 538.925 846.544C546.809 824.794 551.703 803.587 551.703 790.809V785.236L541.1 780.75C529.545 775.856 517.311 771.506 500.727 766.205C465.791 755.194 455.188 753.97 446.623 759.816ZM739.977 799.102C717.955 809.297 691.175 815.142 667.93 815.142H651.481L647.811 840.427C644.277 864.08 637.888 889.908 630.683 910.162C627.013 920.358 627.148 926.203 631.091 934.087C632.858 937.622 635.984 946.05 638.023 952.711C640.063 959.508 642.645 965.897 643.733 967.256C646.452 970.247 672.008 971.878 687.505 969.839C702.322 967.936 708.575 964.945 709.119 959.508C710.07 951.487 703.817 937.486 697.7 934.223C694.438 932.592 690.767 933.952 685.738 938.573C684.242 940.069 682.067 941.156 680.98 941.156C678.261 941.156 685.194 934.087 691.039 930.825L695.661 928.378L691.039 925.252C681.795 918.998 674.591 923.212 675.678 934.223C675.95 937.758 675.678 939.253 674.591 938.845C672.008 937.894 669.289 927.427 669.425 918.727C669.425 911.658 670.377 908.531 676.63 895.617C688.592 870.741 697.02 859.05 720.809 833.766C725.431 828.872 731.548 821.803 734.539 818.133C737.394 814.327 745.414 805.627 752.075 798.694L764.445 785.916L756.969 790.266C752.891 792.712 745.142 796.655 739.977 799.102ZM428.272 817.181C427.864 819.628 430.039 822.619 437.652 829.959C444.584 836.62 447.031 839.747 445.808 840.562C444.448 841.378 444.449 842.194 445.536 844.369C447.575 848.311 447.439 857.691 445.128 862.041C442.409 867.342 433.709 875.091 427.049 878.489C417.125 883.519 393.88 881.48 371.586 873.867C363.294 871.012 345.894 861.769 341.952 858.098C340.456 856.739 338.689 855.516 338.145 855.516C337.602 855.516 333.659 852.253 329.309 848.311C325.095 844.505 321.153 840.97 320.338 840.698C318.842 840.155 308.375 847.223 308.375 848.991C308.375 851.437 336.786 871.148 348.613 876.722C361.934 883.111 388.986 890.723 410.056 893.986C422.563 895.889 422.699 895.889 420.252 893.17C417.805 890.452 417.941 890.452 422.155 891.267C425.281 891.947 426.505 891.675 426.233 890.452C426.097 889.364 428 888.956 432.758 889.228C438.875 889.636 439.283 889.5 436.972 887.733C434.661 885.966 435.205 885.83 443.361 885.014C448.391 884.606 454.644 882.975 457.498 881.48L462.664 878.761L456.819 878.625C450.294 878.625 450.158 876.722 456.411 875.498C461.305 874.547 470.82 866.255 473.811 860.545C479.928 848.719 467.014 824.93 450.566 817.453C442.138 813.647 441.322 813.511 434.797 813.783C429.495 814.055 428.68 814.462 428.272 817.181ZM291.791 943.059C298.18 949.992 302.258 957.469 303.617 964.673C304.705 969.975 305.52 970.655 308.103 968.072C312.861 963.314 306.472 944.827 298.859 940.884C287.984 935.447 285.538 936.262 291.791 943.059Z" fill="white"/>
<path d="M854.164 446.208C859.466 448.383 862.049 452.869 862.728 461.025C863.408 470.269 865.175 472.58 874.011 475.706C877.817 477.066 881.895 479.241 883.255 480.464C887.061 483.998 891.003 485.766 902.014 488.62C912.617 491.339 920.502 494.737 924.988 498.136C931.649 503.437 940.892 514.041 945.378 521.789C950.408 530.353 950.68 530.625 956.253 530.625C960.195 530.625 962.914 529.673 965.769 527.227C967.944 525.323 970.663 523.828 971.886 523.828C975.964 523.828 979.091 528.994 979.091 535.791C979.091 550.88 967.128 569.775 954.622 574.805C950.816 576.3 947.961 578.203 948.233 579.019C948.505 579.97 947.145 580.922 945.242 581.466C942.116 582.281 941.844 582.825 941.844 590.845C941.844 602.128 938.038 609.741 928.522 616.945C924.58 619.936 920.094 624.286 918.598 626.733C916.016 630.675 912.209 633.122 903.374 636.52C901.334 637.336 898.48 639.919 897.256 642.23C892.634 650.794 889.236 653.784 882.439 655.416C873.875 657.319 867.35 655.687 857.563 649.162C846.688 641.822 843.561 636.52 844.377 627.141L845.056 619.664L842.609 625.781C841.386 629.18 839.483 637.064 838.531 643.453L836.9 655.008L841.25 665.883C843.697 671.864 847.095 681.652 848.727 687.633C853.892 705.712 857.291 714.412 861.097 718.355C863 720.394 870.749 725.831 878.361 730.589C891.003 738.473 894.402 740.784 898.888 744.727C899.703 745.542 903.102 748.261 906.5 750.844C912.345 755.466 917.511 759.544 920.638 762.398C921.453 763.078 926.075 767.156 930.969 771.234C935.863 775.312 940.077 778.983 940.484 779.391C940.892 779.798 943.339 781.837 945.922 784.012C960.875 795.975 983.713 822.075 990.373 834.445C993.228 839.883 999.345 859.05 1000.98 867.75C1001.66 871.964 1002.74 872.916 1009.54 876.042C1013.75 878.081 1019.46 880.392 1022.18 881.208C1028.03 883.111 1035.64 890.723 1039.85 899.016C1043.66 906.356 1044.88 919.678 1042.44 928.514C1040.81 934.223 1039.99 935.039 1032.38 938.573C1027.76 940.748 1022.59 943.467 1020.82 944.419C1013.89 948.497 998.258 942.38 989.83 932.184C986.975 928.786 982.353 924.572 979.634 922.941C965.497 914.512 957.205 903.23 955.302 890.044C953.806 879.169 941.98 853.069 935.863 846.952C922.677 833.766 842.202 805.219 818.277 805.219C810.528 805.219 807.809 802.772 802.78 791.625C796.934 778.439 793.264 770.691 791.225 767.428L789.186 764.302L783.069 770.147C779.806 773.409 773.417 780.75 769.067 786.459C764.581 792.305 760.503 797.062 759.959 797.062C758.056 797.198 742.288 812.967 736.714 820.716C733.452 825.066 723.936 836.212 715.508 845.456C699.875 862.584 688.184 879.577 678.941 899.152C676.222 904.861 673.639 911.386 673.231 913.697L672.28 918.047H678.533C687.641 918.047 691.719 919.95 698.788 927.834C708.847 938.845 712.653 946.866 712.653 957.333C712.789 965.761 712.653 966.169 708.575 968.616C701.642 972.694 680.844 975.548 663.852 974.733C647.539 973.917 640.742 972.15 638.567 968.072C637.752 966.712 635.984 961.003 634.625 955.566C633.13 950.128 630.139 941.156 627.692 935.719C622.527 923.484 622.798 919.542 629.867 898.2C638.023 874.139 643.189 849.806 646.18 822.891L646.995 815.278L636.392 813.511C609.884 809.297 581.745 800.189 557.005 787.819C556.461 787.683 555.781 791.761 555.238 797.062C553.47 814.327 548.848 833.358 542.867 847.359C538.109 858.642 534.575 869.653 532.4 880.12C530.905 887.325 531.041 889.092 533.216 895.209C538.925 911.25 548.984 921.853 565.569 929.602C574.677 933.816 576.988 933.816 583.241 929.602C594.795 921.717 602.272 922.533 612.603 932.864C619.944 940.341 622.391 945.642 622.391 954.614C622.391 960.323 621.711 961.955 618.72 964.945C612.059 971.062 606.214 972.966 592.213 973.509C565.161 974.733 552.247 969.975 522.477 947.953C518.67 945.098 509.155 936.262 501.27 928.106L486.861 913.289L486.045 884.742C485.094 849.534 481.831 834.309 469.733 807.937C467.422 802.908 456.683 786.187 452.741 781.43C440.098 766.205 438.739 765.389 432.622 770.962C431.263 772.186 428.272 774.361 426.233 775.72C422.427 778.167 420.795 779.391 412.503 786.323C402.852 794.208 372.673 812.016 368.867 812.016C368.459 812.016 363.294 815.142 357.448 818.812C351.603 822.619 346.574 825.609 346.166 825.609C345.486 825.609 327.678 836.077 326.319 837.3C325.231 838.116 337.738 850.486 345.35 856.195C364.925 870.877 395.103 879.441 417.805 876.586C423.242 875.906 426.913 874.547 431.127 871.284C445.128 860.545 446.488 850.622 435.748 837.028C428.68 828.056 425.281 820.852 425.281 814.87C425.281 811.2 425.689 810.792 431.942 809.977C444.448 808.345 457.363 813.919 467.83 825.609C474.627 833.222 481.016 845.184 481.016 850.486C481.016 855.38 477.209 865.303 474.083 868.43C472.724 869.925 469.053 874.275 466.063 878.217C461.441 884.062 459.538 885.422 453.828 886.917C449.206 888.141 447.167 889.228 447.575 890.452C448.119 891.811 446.488 892.219 441.458 892.219C435.884 892.219 434.797 892.627 435.069 894.53C436.156 900.375 416.717 899.967 387.898 893.578C356.633 886.645 335.155 876.586 311.638 858.098L303.345 851.573L298.044 855.108C287.984 861.769 281.188 872.1 274.798 890.18C271.536 899.423 271.536 924.572 274.798 932.048C276.158 934.767 277.245 937.078 277.517 937.078C277.653 937.078 281.188 936.127 285.266 935.039C295.869 932.184 302.802 934.223 309.734 942.244C316.667 949.992 318.842 956.653 316.531 963.45C313.677 972.15 303.209 977.316 283.77 979.355C256.991 982.209 255.631 982.209 247.747 979.898C228.852 974.461 226.133 967.936 226.269 930.961C226.405 900.375 229.123 883.247 237.688 858.234C242.445 844.369 243.805 842.602 253.592 836.484C258.622 833.222 265.419 828.464 268.681 825.881L274.527 821.123L264.467 810.792C253.592 799.509 246.659 791.625 242.445 785.644C240.95 783.469 237.552 778.983 235.105 775.448C227.492 765.389 217.569 743.775 213.627 728.822C210.364 716.587 209.82 712.237 209.82 694.43C209.82 670.913 211.995 661.397 220.967 646.308C243.397 608.517 288.256 591.797 367.508 591.797C382.461 591.797 400.813 592.612 408.425 593.7C418.077 594.923 424.738 595.059 430.855 594.244C435.613 593.564 445.672 593.292 453.148 593.7C469.733 594.652 480.88 597.914 502.086 608.381C543.683 628.772 570.463 636.384 607.438 638.152C633.538 639.511 646.588 638.423 660.725 633.802C676.902 628.5 681.659 624.286 691.991 606.886C695.661 600.497 699.603 594.244 700.419 593.156C701.37 592.069 703.273 588.127 704.497 584.592C708.167 574.669 712.109 570.727 720.809 568.688C727.606 567.056 730.869 567.192 739.433 569.367C742.152 570.047 743.239 569.367 745.414 565.697C753.706 551.423 770.698 531.984 786.875 517.847C793.944 511.73 809.441 501.534 813.791 500.175C816.238 499.359 816.781 498.136 816.781 493.65C816.781 486.309 820.316 473.123 824.666 464.287C832.278 448.655 843.425 441.858 854.164 446.208ZM837.308 453.956C822.491 466.734 816.238 496.233 825.345 510.098C829.831 516.895 834.725 519.614 837.852 517.031C839.619 515.536 839.347 514.72 834.589 510.778C827.249 504.525 824.394 496.505 825.209 485.222C825.617 480.056 827.249 473.939 829.152 470.133C832.822 462.792 840.842 455.044 846.144 453.684C852.261 452.189 853.62 455.723 853.213 470.812C852.805 483.591 852.941 483.863 857.155 489.844C859.602 493.106 861.641 496.505 861.641 497.184C861.641 499.087 843.561 517.711 836.22 523.42C828.336 529.673 824.938 537.422 824.938 549.248C824.938 554.414 825.753 561.619 826.841 565.017C827.792 568.416 828.336 571.542 827.928 571.95C826.569 573.445 823.986 568.008 822.219 560.395C819.228 547.209 821.267 536.742 829.152 524.1C830.647 521.789 830.103 520.837 825.753 516.487C823.034 513.633 820.452 509.555 819.908 507.38C819.5 505.205 818.684 503.166 818.141 502.758C816.374 501.67 796.663 514.448 785.923 523.692C772.738 535.111 748.813 563.522 747.181 569.911C746.909 570.591 750.444 573.173 754.93 575.484C761.998 579.427 769.339 584.456 780.078 593.02C781.981 594.516 783.069 596.147 782.525 596.555C782.117 597.098 777.495 594.38 772.33 590.709C767.3 587.039 758.192 581.602 752.347 578.747C742.967 574.125 739.977 573.445 730.597 573.038C721.081 572.63 719.042 572.902 716.052 575.348C709.527 580.514 705.313 593.7 700.555 623.742C697.564 642.909 695.389 646.987 696.341 631.219C696.884 624.83 697.564 618.169 698.108 616.266C698.923 613.411 697.564 614.227 690.223 620.752C680.708 629.452 670.241 634.889 655.695 638.831C647.539 641.006 641.558 641.414 614.234 641.278C586.367 641.278 580.794 640.87 570.734 638.423C544.091 631.762 539.741 630.131 506.844 614.498C488.9 606.07 473.675 600.225 465.383 598.73C452.741 596.419 435.205 596.963 423.242 599.953C410.6 603.216 411.552 603.08 412.503 600.633C413.047 599.138 412.367 598.594 410.192 598.458C408.425 598.322 405.027 597.914 402.852 597.506C400.541 597.098 382.597 596.691 362.75 596.691C322.377 596.691 306.88 598.458 282.003 605.391C266.914 609.605 252.641 616.809 243.805 624.558C238.775 629.044 227.084 644.405 223.686 650.93C222.598 653.241 220.152 659.358 218.384 664.523C215.666 672.816 215.258 676.486 215.394 694.43C215.53 724.744 221.239 744.862 236.6 768.516C243.805 779.798 275.206 817.181 277.517 817.317C278.741 817.453 287.984 807.937 287.984 806.578C287.984 806.17 285.945 803.723 283.499 801.005C281.188 798.15 278.061 794.752 276.702 793.12C273.983 789.858 263.516 774.905 261.477 771.506C260.661 770.147 258.758 767.292 257.263 765.117C252.777 758.864 241.766 735.075 237.959 723.656C233.881 711.15 232.658 694.837 234.969 685.866C237.688 675.806 246.931 657.998 253.864 649.298C259.438 642.366 272.895 631.491 276.158 631.355C276.838 631.219 279.284 630.403 281.595 629.316C291.791 624.966 294.238 624.286 306.064 622.383C328.494 618.713 353.914 620.072 372.674 626.053C377.567 627.548 377.975 627.412 382.189 623.47C387.083 618.712 394.831 614.498 397.006 615.178C397.822 615.45 395.375 618.033 391.433 620.887C387.491 623.742 379.742 631.355 374.169 637.88C362.478 651.337 358.128 660.581 351.875 685.186C340.32 729.909 333.659 746.358 315.444 775.312C296.956 804.811 274.527 830.095 260.117 837.844C249.786 843.417 247.475 845.456 245.028 851.302C242.173 858.234 236.736 879.305 234.969 890.859C231.57 912.609 229.531 929.873 229.531 936.806C229.531 948.089 232.25 963.178 235.105 967.12C238.911 972.558 250.33 976.908 261.069 977.044C273.167 977.18 275.614 975.141 273.167 966.712C270.992 959.644 262.428 950.672 257.942 950.672C256.175 950.672 252.641 951.895 250.194 953.391C245.028 956.653 244.349 954.75 249.378 950.808C255.495 946.05 262.428 947.409 270.041 954.886C274.663 959.508 278.469 966.712 278.469 971.198C278.469 973.373 279.556 973.781 286.217 973.781C296.684 973.781 300.219 972.694 300.219 969.567C300.219 963.994 294.102 951.08 289.072 946.05C284.586 941.564 283.363 940.884 279.692 941.7C277.381 942.108 273.711 943.739 271.536 945.37C265.691 949.448 263.923 947.953 268.681 942.923L272.624 938.573L270.041 930.689C266.37 919.95 267.186 898.336 271.672 885.422C275.478 874.819 280.78 864.895 286.625 857.827C288.8 855.108 311.909 839.611 319.386 835.805C321.969 834.445 332.572 828.328 343.039 822.211C353.506 815.958 366.692 808.753 372.266 805.898C382.053 801.005 396.734 792.305 403.531 787.275C405.434 785.916 414.542 779.255 423.922 772.322C433.302 765.525 443.905 757.369 447.711 754.242C451.381 751.116 457.906 746.63 462.12 744.183C472.723 738.202 496.649 731.677 492.434 735.891C491.619 736.706 487.133 738.473 482.239 739.833C473.267 742.416 460.081 748.533 458.722 750.708C458.314 751.387 462.12 752.611 467.15 753.562C482.919 756.553 522.748 769.467 542.731 778.167C590.445 798.83 604.583 803.995 627.828 808.753C641.83 811.608 673.367 812.695 687.913 810.792C721.761 806.306 755.474 790.945 776.952 770.283L787.147 760.495L784.02 756.009C775.32 743.775 761.047 731.812 739.705 719.034C731.277 714.005 734.131 712.917 743.647 717.675C759.688 725.695 776.544 740.241 787.555 755.058C790.545 759.272 796.934 770.419 801.692 779.934C811.344 799.373 812.295 800.189 827.113 802.5C845.736 805.355 877.138 814.327 897.936 822.755C901.878 824.25 912.209 829.008 920.909 833.222C939.261 842.194 940.348 843.417 952.855 868.294C957.341 877.402 961.555 885.286 962.37 885.966C963.05 886.781 963.594 888.141 963.594 889.228C963.594 890.859 963.186 890.859 961.555 889.5C955.845 884.742 962.099 901.055 968.488 907.852C970.663 910.162 974.741 913.833 977.731 916.008C982.217 919.406 982.897 919.678 982.217 917.367C980.314 911.114 979.634 907.172 980.45 907.172C980.994 907.172 983.577 911.794 986.295 917.503C993.5 932.32 1004.51 941.156 1015.93 941.156C1021.78 941.156 1022.73 939.117 1022.73 927.562C1022.59 918.727 1022.05 916.008 1019.74 913.017C1017.43 909.891 1015.93 909.211 1011.31 909.483C1007.23 909.619 1005.73 909.211 1005.73 907.716C1005.73 906.356 1007.5 905.812 1011.85 905.812C1016.75 905.812 1018.78 906.492 1021.23 909.211C1024.77 913.017 1027.48 921.989 1027.48 930.009C1027.48 934.903 1027.76 935.311 1030.88 934.767C1036.46 933.68 1038.9 928.106 1039.04 916.687C1039.04 905.133 1036.32 897.656 1030.75 893.986C1027.62 891.947 1026.8 891.947 1020.69 893.986C1016.2 895.481 1012.8 895.753 1010.76 895.073C1008.05 893.986 1008.32 893.714 1013.35 892.355C1016.34 891.539 1020.82 890.452 1023.27 890.044C1030.48 888.548 1025.58 885.694 1014.03 884.606L1004.1 883.655L1005.05 888.141C1005.73 891.267 1005.6 892.219 1004.51 891.675C1002.06 890.044 999.073 881.752 996.355 868.566C990.373 839.339 983.577 827.648 957.613 801.684C938.581 782.653 928.522 773.953 911.258 761.175C908.267 758.864 905.548 756.689 905.141 756.281C904.597 755.602 899.975 752.067 886.789 742.416C877.409 735.483 871.972 731.677 865.991 727.87C857.427 722.433 854.572 718.762 851.038 708.023C844.784 689.4 835.541 665.339 831.734 657.591C826.569 646.987 813.791 629.859 801.149 616.673C790.953 606.07 788.778 602.672 793.536 605.255C799.109 608.245 813.655 623.742 825.345 638.967C829.016 643.725 832.414 647.531 833.23 647.531C833.909 647.531 834.453 645.764 834.453 643.589C834.453 639.239 840.706 618.984 842.745 616.945C844.513 615.178 844.241 608.381 841.93 600.769C839.211 591.797 839.347 590.302 842.609 595.195C846.824 601.584 848.319 609.061 848.183 622.927L848.047 635.705L853.892 641.414C862.456 649.57 871.156 653.512 878.769 652.561C885.838 651.881 891.955 646.987 894.13 640.327C895.489 636.656 895.217 635.841 891.003 632.034C888.284 629.452 883.119 626.733 877.953 625.102C865.311 621.295 858.106 616.13 856.339 609.877C854.3 602.536 854.436 591.389 856.747 588.262C859.738 584.184 860.689 586.903 858.922 594.108C856.747 602.4 858.786 610.828 863.816 614.77C867.758 617.897 879.177 622.383 886.517 623.742C890.188 624.422 892.091 625.917 894.13 629.316C897.12 634.481 899.975 635.025 906.908 632.034C912.074 629.859 916.695 625.102 918.055 620.48C919.006 617.489 918.734 617.353 915.88 618.169C914.113 618.712 908.539 619.528 903.645 619.936L894.674 620.616L891.547 615.586C889.78 612.867 886.109 605.662 883.119 599.545C878.361 589.758 878.089 588.398 879.856 586.631C881.759 584.728 883.119 585.68 892.634 595.467C901.606 604.711 904.461 606.886 910.578 608.653C921.997 612.052 921.453 612.867 921.453 594.516C921.453 581.058 921.861 577.116 924.036 573.038C927.706 565.833 941.708 552.375 946.33 551.423C948.505 551.016 950.544 549.928 950.816 548.977C952.039 545.986 944.698 526.547 939.669 518.934C929.609 503.709 917.783 496.369 894.266 490.387C889.372 489.164 884.886 487.261 884.342 486.309C883.255 484.27 877.138 480.872 867.894 477.066L862.728 474.891L863.272 478.289C864.088 481.959 862.456 483.047 861.233 479.784C860.825 478.697 859.738 472.852 858.786 466.598C856.203 448.519 848.727 444.169 837.308 453.956ZM837.852 462.792C832.958 468.773 828.744 477.338 830.511 477.881C831.463 478.153 831.463 479.512 830.511 482.095C826.705 492.155 829.559 501.127 839.347 509.555L843.289 512.953L846.28 509.419C847.775 507.38 849.542 503.981 849.95 501.67C850.63 498.272 851.174 497.864 854.164 498.544C858.378 499.631 858.378 499.223 853.756 492.155C850.358 486.989 850.086 485.358 850.086 473.531C850.222 466.055 849.678 460.209 848.727 459.666C845.736 457.491 841.386 458.714 837.852 462.792ZM963.594 534.023C958.564 539.189 956.797 539.869 956.797 536.606C956.797 535.383 955.845 534.703 954.622 534.975C952.311 535.519 952.311 535.111 953.534 542.452C953.942 545.714 954.894 548.297 955.573 548.297C956.117 548.297 959.516 544.763 963.05 540.413C969.847 532.12 971.342 531.305 973.517 534.975C975.692 538.238 971.478 550.608 965.633 558.22C962.914 561.755 957.748 566.105 953.806 568.28C949.32 570.727 947.689 572.222 949.048 572.494C954.078 573.445 967.128 561.211 971.886 551.016C975.013 544.491 976.644 534.839 975.42 531.305C973.925 527.77 968.488 528.994 963.594 534.023ZM962.642 546.938C953.942 558.492 950.952 568.144 958.156 561.211C962.506 557.133 970.391 542.587 970.391 538.917C970.391 536.606 970.255 536.742 962.642 546.938ZM939.805 561.483C937.902 562.978 937.63 563.794 938.717 564.202C941.98 565.425 940.484 567.328 936.406 567.328C933.552 567.328 931.105 568.552 928.794 570.998C927.027 572.902 925.667 574.669 925.803 574.941C926.075 575.077 929.609 574.805 933.688 574.397C940.213 573.581 941.164 573.038 941.572 570.319C941.844 568.28 942.795 567.328 943.883 567.872C944.97 568.28 947.145 566.92 948.641 564.881C951.224 561.619 951.359 561.211 949.32 559.716C946.874 557.812 943.747 558.492 939.805 561.483ZM934.639 580.922C934.095 583.233 934.367 583.369 936.542 582.145C938.038 581.466 938.853 580.242 938.445 579.427C937.086 577.387 935.455 578.067 934.639 580.922ZM925.803 582.281C926.755 583.641 927.57 584.728 927.57 584.592C927.57 584.456 928.522 583.233 929.473 581.873C931.105 579.834 930.969 579.562 927.706 579.562C924.58 579.562 924.308 579.834 925.803 582.281ZM929.745 587.175C925.803 587.991 925.531 588.398 925.531 594.516C925.531 598.05 924.852 604.167 924.172 608.109C923.356 612.052 923.084 615.586 923.356 615.858C923.628 616.266 926.619 613.819 930.017 610.556C936.542 604.303 939.125 597.914 938.038 590.709C937.358 586.088 936.678 585.816 929.745 587.175ZM887.333 597.778C890.188 600.769 891.547 603.487 891.547 606.342C891.547 608.653 892.634 611.916 894.13 613.683C896.305 616.402 896.984 616.537 898.888 615.042C900.791 613.547 901.063 613.547 901.063 615.45C901.063 618.033 901.198 618.033 909.898 615.858L916.559 614.091L909.898 612.188C904.461 610.692 901.198 608.381 893.586 600.769C888.284 595.467 883.798 591.661 883.527 592.205C883.255 592.884 885.022 595.331 887.333 597.778ZM697.02 605.662C694.166 611.372 694.166 611.372 696.884 609.061C699.195 607.022 701.914 599.953 700.419 599.953C700.147 599.953 698.652 602.536 697.02 605.662ZM306.336 625.917C290.703 628.228 277.925 633.666 265.147 643.181C259.574 647.395 246.795 666.427 242.173 677.709C239.183 684.914 238.503 688.312 238.639 699.188C238.639 711.286 239.047 713.189 244.892 728.822C248.427 737.93 252.505 747.989 254.136 751.252C260.525 763.622 282.003 793.8 288.936 800.189C291.519 802.5 291.791 802.364 294.238 798.966C295.597 796.927 298.044 793.8 299.675 791.761C304.161 786.052 324.008 753.562 328.494 744.727C333.388 734.939 342.903 705.577 349.836 679.612C355.545 657.862 359.08 650.114 368.459 638.831C374.984 630.947 375.12 630.675 372.13 629.587C368.731 628.228 353.098 624.83 347.117 624.014C341.272 623.198 317.483 624.286 306.336 625.917ZM446.623 759.816L441.458 763.214L451.381 773.817C462.528 785.644 474.899 804.675 480.064 817.725C486.725 834.717 490.531 860.545 490.531 889.772V911.93L500.591 921.581C506.164 926.883 514.184 933.952 518.534 937.214C523.02 940.477 526.827 943.467 527.234 943.875C529.409 946.186 545.994 957.877 552.247 961.547C562.034 967.12 577.803 970.111 591.125 969.159C596.698 968.752 601.592 967.936 602.136 967.256C604.175 965.217 601.456 954.206 597.378 948.089C592.077 940.341 588.134 939.525 579.434 944.555C572.094 948.905 570.598 948.361 575.628 943.467C580.794 938.302 588.27 936.262 593.3 938.573C597.786 940.748 606.758 954.478 607.981 961.139C609.069 966.441 610.564 966.712 614.914 962.227C622.119 955.158 616.953 939.253 604.855 931.369C599.689 927.834 591.941 928.242 585.959 932.32C576.988 938.437 565.433 935.855 549.392 924.3C542.188 919.134 533.624 907.58 530.497 898.744C526.555 887.597 528.73 874.139 538.925 846.544C546.809 824.794 551.703 803.587 551.703 790.809V785.236L541.1 780.75C529.545 775.856 517.311 771.506 500.727 766.205C465.791 755.194 455.188 753.97 446.623 759.816ZM739.977 799.102C717.955 809.297 691.175 815.142 667.93 815.142H651.481L647.811 840.427C644.277 864.08 637.888 889.908 630.683 910.162C627.013 920.358 627.148 926.203 631.091 934.087C632.858 937.622 635.984 946.05 638.023 952.711C640.063 959.508 642.645 965.897 643.733 967.256C646.452 970.247 672.008 971.878 687.505 969.839C702.322 967.936 708.575 964.945 709.119 959.508C710.07 951.487 703.817 937.486 697.7 934.223C694.438 932.592 690.767 933.952 685.738 938.573C684.242 940.069 682.067 941.156 680.98 941.156C678.261 941.156 685.194 934.087 691.039 930.825L695.661 928.378L691.039 925.252C681.795 918.998 674.591 923.212 675.678 934.223C675.95 937.758 675.678 939.253 674.591 938.845C672.008 937.894 669.289 927.427 669.425 918.727C669.425 911.658 670.377 908.531 676.63 895.617C688.592 870.741 697.02 859.05 720.809 833.766C725.431 828.872 731.548 821.803 734.539 818.133C737.394 814.327 745.414 805.627 752.075 798.694L764.445 785.916L756.969 790.266C752.891 792.712 745.142 796.655 739.977 799.102ZM428.272 817.181C427.864 819.628 430.039 822.619 437.652 829.959C444.584 836.62 447.031 839.747 445.808 840.562C444.448 841.378 444.449 842.194 445.536 844.369C447.575 848.311 447.439 857.691 445.128 862.041C442.409 867.342 433.709 875.091 427.049 878.489C417.125 883.519 393.88 881.48 371.586 873.867C363.294 871.012 345.894 861.769 341.952 858.098C340.456 856.739 338.689 855.516 338.145 855.516C337.602 855.516 333.659 852.253 329.309 848.311C325.095 844.505 321.153 840.97 320.338 840.698C318.842 840.155 308.375 847.223 308.375 848.991C308.375 851.437 336.786 871.148 348.613 876.722C361.934 883.111 388.986 890.723 410.056 893.986C422.563 895.889 422.699 895.889 420.252 893.17C417.805 890.452 417.941 890.452 422.155 891.267C425.281 891.947 426.505 891.675 426.233 890.452C426.097 889.364 428 888.956 432.758 889.228C438.875 889.636 439.283 889.5 436.972 887.733C434.661 885.966 435.205 885.83 443.361 885.014C448.391 884.606 454.644 882.975 457.498 881.48L462.664 878.761L456.819 878.625C450.294 878.625 450.158 876.722 456.411 875.498C461.305 874.547 470.82 866.255 473.811 860.545C479.928 848.719 467.014 824.93 450.566 817.453C442.138 813.647 441.322 813.511 434.797 813.783C429.495 814.055 428.68 814.462 428.272 817.181ZM291.791 943.059C298.18 949.992 302.258 957.469 303.617 964.673C304.705 969.975 305.52 970.655 308.103 968.072C312.861 963.314 306.472 944.827 298.859 940.884C287.984 935.447 285.538 936.262 291.791 943.059Z" stroke="white" stroke-width="2" mask="url(#path-2-outside-1_47_26)"/>
<path d="M898.2 537.02L898.212 537.038L898.225 537.055C898.298 537.145 898.444 537.288 898.674 537.308C898.917 537.329 899.09 537.201 899.179 537.108C899.337 536.944 899.43 536.694 899.494 536.484C899.635 536.017 899.758 535.291 899.86 534.386C900.067 532.56 900.203 529.889 900.203 526.819C900.203 514.433 897.9 506.736 892.809 502.774C890.924 501.253 887.914 500.459 884.989 500.355C882.067 500.251 879.075 500.831 877.243 502.224C876.394 502.869 875.733 503.431 875.34 503.939C875.142 504.195 874.985 504.472 874.924 504.768C874.86 505.082 874.911 505.388 875.078 505.666C875.235 505.928 875.48 506.14 875.764 506.32C876.052 506.503 876.409 506.671 876.829 506.835C877.665 507.16 878.81 507.489 880.269 507.862C883.984 508.925 886.88 510.741 889.185 513.622C891.502 516.517 893.246 520.518 894.596 525.987L894.596 525.987L894.598 525.994C895.28 528.586 896.03 531.111 896.679 533.092C897.004 534.082 897.304 534.94 897.558 535.604C897.805 536.249 898.028 536.761 898.2 537.02ZM891.942 509.248L891.932 509.235L891.921 509.223C891.392 508.628 891.213 508.22 891.195 508.029C891.195 508.026 891.195 508.024 891.194 508.021C891.213 508.018 891.239 508.016 891.275 508.016C891.555 508.016 891.885 508.129 892.227 508.352C892.565 508.574 892.884 508.883 893.132 509.222C893.383 509.564 893.541 509.907 893.594 510.188C893.63 510.382 893.612 510.513 893.57 510.602C893.488 510.577 893.368 510.526 893.215 510.434C892.851 510.216 892.386 509.819 891.942 509.248ZM891.195 507.981C891.195 507.981 891.195 507.982 891.195 507.983L891.195 507.981ZM893.662 510.619C893.662 510.619 893.659 510.62 893.652 510.619C893.658 510.619 893.662 510.619 893.662 510.619Z" fill="white" stroke="white"/>
<path d="M881.909 528.176L881.909 528.175L881.901 528.17C881.05 527.602 879.996 527.076 878.98 526.691C877.976 526.31 876.957 526.047 876.186 526.047C875.946 526.047 875.721 526.063 875.523 526.105C875.331 526.146 875.119 526.221 874.95 526.373C874.761 526.544 874.668 526.774 874.673 527.022C874.677 527.246 874.759 527.461 874.862 527.651C875.069 528.033 875.452 528.487 875.985 529.022C876.524 529.563 877.247 530.217 878.166 531C881.082 533.653 883.619 537.651 885.09 542.062C886.379 546.133 887.554 548.955 888.436 550.215C888.654 550.527 888.892 550.799 889.15 550.953C889.285 551.033 889.456 551.1 889.65 551.094C889.856 551.088 890.034 551.003 890.17 550.875C890.41 550.651 890.522 550.298 890.586 549.959C890.655 549.593 890.688 549.128 890.688 548.569C890.688 547.24 890.332 545.444 889.77 543.492C889.204 541.53 888.42 539.374 887.538 537.31C886.656 535.248 885.673 533.268 884.709 531.661C883.758 530.077 882.786 528.786 881.909 528.176Z" fill="white" stroke="white"/>
<path d="M860.961 533.072C867.622 534.295 876.186 538.373 878.905 541.5C882.167 545.17 884.07 550.2 885.158 558.084C886.109 564.473 884.07 564.745 874.691 559.852C867.35 555.909 865.583 554.414 863 549.656C861.369 546.53 857.291 532.936 857.97 532.664C858.106 532.528 859.466 532.664 860.961 533.072ZM865.039 542.723C863.136 548.977 872.38 555.366 876.186 550.336C878.769 546.666 878.497 545.85 873.467 542.859C868.03 539.461 866.127 539.461 865.039 542.723ZM877.273 555.094C877.273 556.045 878.089 557.133 878.905 557.405C879.992 557.812 880.672 556.861 880.672 555.094C880.672 553.327 879.992 552.375 878.905 552.647C878.089 553.055 877.273 554.142 877.273 555.094Z" fill="white"/>
<path d="M860.961 533.072C867.622 534.295 876.186 538.373 878.905 541.5C882.167 545.17 884.07 550.2 885.158 558.084C886.109 564.473 884.07 564.745 874.691 559.852C867.35 555.909 865.583 554.414 863 549.656C861.369 546.53 857.291 532.936 857.97 532.664C858.106 532.528 859.466 532.664 860.961 533.072ZM865.039 542.723C863.136 548.977 872.38 555.366 876.186 550.336C878.769 546.666 878.497 545.85 873.467 542.859C868.03 539.461 866.127 539.461 865.039 542.723ZM877.273 555.094C877.273 556.045 878.089 557.133 878.905 557.405C879.992 557.812 880.672 556.861 880.672 555.094C880.672 553.327 879.992 552.375 878.905 552.647C878.089 553.055 877.273 554.142 877.273 555.094Z" stroke="white"/>
<path d="M884.253 576.916C885.484 574.316 886.856 570.483 887.277 568.389C887.65 566.893 887.762 565.789 887.616 565.097C887.543 564.752 887.379 564.385 887.018 564.212C886.649 564.034 886.268 564.148 885.982 564.31C885.415 564.631 884.786 565.372 884.166 566.372C883.532 567.395 882.864 568.759 882.244 570.413C881.487 572.375 880.977 574.195 880.688 575.716C880.403 577.222 880.325 578.48 880.468 579.293C880.535 579.673 880.674 580.098 881.004 580.331C881.191 580.462 881.411 580.511 881.635 580.476C881.844 580.444 882.03 580.343 882.19 580.223C882.505 579.986 882.826 579.586 883.156 579.057C883.491 578.519 883.857 577.81 884.253 576.916Z" fill="white" stroke="white"/>
<path d="M658.865 898.045L658.871 898.04L658.878 898.034C659.448 897.54 660.11 896.643 660.769 895.587C661.437 894.517 662.129 893.239 662.756 891.944C663.382 890.648 663.946 889.327 664.355 888.169C664.757 887.031 665.031 885.991 665.031 885.286C665.031 884.831 664.98 884.436 664.86 884.12C664.738 883.799 664.524 883.514 664.182 883.386C663.849 883.261 663.507 883.329 663.217 883.457C662.925 883.587 662.63 883.802 662.341 884.068C661.193 885.125 659.8 887.308 658.634 890.12C657.817 891.992 657.192 893.542 656.759 894.777C656.331 896 656.077 896.955 656.029 897.621C656.006 897.945 656.025 898.278 656.162 898.547C656.235 898.691 656.345 898.823 656.5 898.914C656.655 899.005 656.821 899.038 656.978 899.036C657.273 899.032 657.578 898.907 657.864 898.747C658.162 898.581 658.496 898.343 658.865 898.045Z" fill="white" stroke="white"/>
<path d="M655.671 929.063L655.671 929.063L655.663 929.069C649.935 933.464 642.771 933.623 639.07 929.67C638.341 928.874 637.679 928.013 637.203 927.275C636.965 926.905 636.778 926.573 636.653 926.302C636.529 926.034 636.49 925.875 636.485 925.81C636.487 925.803 636.49 925.791 636.496 925.775C636.513 925.728 636.543 925.662 636.591 925.574C636.686 925.398 636.833 925.168 637.035 924.886C637.436 924.324 638.024 923.593 638.759 922.74C640.227 921.036 642.257 918.87 644.494 916.633C646.743 914.384 648.791 912.201 650.278 910.491C651.021 909.637 651.63 908.895 652.056 908.319C652.268 908.031 652.441 907.776 652.563 907.564C652.625 907.458 652.678 907.354 652.718 907.255C652.754 907.166 652.797 907.039 652.797 906.9C652.797 906.351 652.637 905.785 652.09 905.52C651.606 905.285 650.991 905.386 650.36 905.614C649.058 906.084 647.101 907.317 644.387 909.352C638.389 913.715 634.498 917.718 632.761 921.473C631.887 923.361 631.554 925.198 631.782 926.984C632.01 928.769 632.795 930.466 634.096 932.086C636.024 934.583 639.572 936.493 643.229 937.476C646.881 938.458 650.794 938.556 653.466 937.256C655.531 936.259 657.965 934.021 659.702 931.888C660.574 930.818 661.295 929.745 661.713 928.833C661.92 928.379 662.067 927.937 662.104 927.538C662.141 927.141 662.075 926.71 661.758 926.393C661.573 926.208 661.333 926.171 661.168 926.169C660.992 926.166 660.803 926.199 660.618 926.249C660.243 926.349 659.784 926.54 659.278 926.792C658.261 927.301 656.979 928.099 655.671 929.063Z" fill="white" stroke="white"/>
<path d="M485.198 323.213L485.202 323.206C486.88 320.216 490.192 318.539 493.745 318.92C495.421 319.142 496.994 319.855 498.266 320.971C499.544 322.093 500.46 323.57 500.896 325.215C501.033 325.733 502.84 332.433 505.764 340.871C508.746 349.475 512.973 360.133 517.874 367.856C524.344 378.062 531.019 385.46 538.669 390.654L544.995 394.948L543.277 387.497C538.457 366.595 534.781 335.182 540.77 303.026C557.165 215.015 626.301 194.087 628.934 193.333L628.935 193.333C631.809 192.509 634.858 193.242 637.059 195.243C639.246 197.25 640.242 200.255 639.675 203.16L639.672 203.177L639.669 203.193L639.667 203.203C639.462 204.317 627.795 267.694 652.856 321.934C655.164 326.934 658.358 332.684 661.749 338.373L666.231 345.892L667.304 337.204C668.248 329.556 669.71 321.464 671.942 313.641C680.663 283.123 703.178 272.811 703.789 272.541L703.804 272.534L703.82 272.527C706.688 271.219 710.06 271.639 712.579 273.611C713.801 274.577 714.738 275.858 715.287 277.317C715.837 278.778 715.977 280.361 715.694 281.896L715.686 281.938L715.68 281.981C715.476 283.288 712.24 305.639 731.05 337.01C739.261 350.706 744.46 361.841 747.634 373.718C750.81 385.606 752 398.398 752 415.464C752 496.831 689.869 556 603.708 556H603.708C518.277 556 458 496.89 458 415.458C458 393.911 464.472 371.376 471.173 353.858C477.859 336.379 484.682 324.128 485.198 323.213Z" fill="white" stroke="white" stroke-width="6"/>
</svg>
