<svg width="649" height="142" viewBox="0 0 649 142" fill="none" xmlns="http://www.w3.org/2000/svg">
<path d="M537.19 138.717L592.902 0H593.467L648.991 138.717H641.839L591.209 10.352L595.538 8.28159L543.589 138.717H537.19ZM562.223 85.8274H624.147L625.652 91.8503H560.905L562.223 85.8274Z" fill="#282828"/>
<path d="M504.368 141.54L398.966 18.2571L400.66 16.3749L400.848 138.717H394.449V3.38788H394.825L500.792 127.8L498.533 128.176V5.83471H504.556V141.54H504.368Z" fill="#282828"/>
<path d="M223.31 72.4639C223.31 63.1784 225.067 54.4577 228.58 46.3016C232.094 38.02 236.925 30.7422 243.073 24.4683C249.347 18.1944 256.562 13.3007 264.718 9.7873C273 6.14842 281.783 4.32898 291.069 4.32898C300.48 4.32898 309.263 6.14842 317.419 9.7873C325.575 13.3007 332.79 18.1944 339.064 24.4683C345.338 30.7422 350.232 38.02 353.745 46.3016C357.384 54.4577 359.204 63.1784 359.204 72.4639C359.204 81.7493 357.384 90.5328 353.745 98.8144C350.232 106.97 345.338 114.186 339.064 120.459C332.79 126.608 325.575 131.439 317.419 134.952C309.263 138.466 300.48 140.222 291.069 140.222C281.783 140.222 273 138.591 264.718 135.329C256.562 131.941 249.347 127.235 243.073 121.212C236.925 115.064 232.094 107.849 228.58 99.5673C225.067 91.2857 223.31 82.2512 223.31 72.4639ZM229.898 72.6521C229.898 81.1846 231.466 89.1525 234.603 96.5558C237.74 103.959 242.069 110.484 247.59 116.13C253.237 121.777 259.762 126.169 267.165 129.306C274.568 132.443 282.411 134.011 290.692 134.011C299.35 134.011 307.381 132.443 314.784 129.306C322.313 126.169 328.838 121.777 334.359 116.13C340.005 110.484 344.46 103.959 347.722 96.5558C350.985 89.0271 352.616 80.9964 352.616 72.4639C352.616 63.9313 350.985 55.9634 347.722 48.5602C344.585 41.0315 340.194 34.4438 334.547 28.7973C328.901 23.1508 322.313 18.6963 314.784 15.4338C307.381 12.1714 299.476 10.5402 291.069 10.5402C282.411 10.5402 274.317 12.2341 266.789 15.6221C259.385 18.8845 252.923 23.4017 247.402 29.1737C241.881 34.9458 237.552 41.5961 234.415 49.1248C231.404 56.5281 229.898 64.3705 229.898 72.6521Z" fill="#282828"/>
<path d="M112.306 5.83478H192.863V12.046H118.705V68.6996H185.523V74.7225H118.705V132.505H195.498V138.717H112.306V5.83478Z" fill="#282828"/>
<path d="M0 5.83478H6.39941V132.505H80.9337V138.717H0V5.83478Z" fill="#282828"/>
</svg>
