<svg width="221" height="49" viewBox="0 0 221 49" fill="none" xmlns="http://www.w3.org/2000/svg">
<path d="M182.661 48L201.605 0.832001H201.797L220.677 48H218.245L201.029 4.352L202.501 3.648L184.837 48H182.661ZM191.173 30.016H212.229L212.741 32.064H190.725L191.173 30.016Z" fill="black"/>
<path d="M171.501 48.96L135.661 7.04001L136.237 6.40001L136.301 48H134.125V1.98401H134.253L170.285 44.288L169.517 44.416V2.81601H171.565V48.96H171.501Z" fill="black"/>
<path d="M75.9325 25.472C75.9325 22.3147 76.5298 19.3493 77.7245 16.576C78.9192 13.76 80.5618 11.2853 82.6525 9.15202C84.7858 7.01868 87.2392 5.35468 90.0125 4.16002C92.8285 2.92268 95.8152 2.30402 98.9725 2.30402C102.172 2.30402 105.159 2.92268 107.933 4.16002C110.706 5.35468 113.159 7.01868 115.293 9.15202C117.426 11.2853 119.09 13.76 120.285 16.576C121.522 19.3493 122.14 22.3147 122.14 25.472C122.14 28.6294 121.522 31.616 120.285 34.432C119.09 37.2054 117.426 39.6587 115.293 41.792C113.159 43.8827 110.706 45.5254 107.933 46.72C105.159 47.9147 102.172 48.512 98.9725 48.512C95.8152 48.512 92.8285 47.9574 90.0125 46.848C87.2392 45.696 84.7858 44.096 82.6525 42.048C80.5618 39.9574 78.9192 37.504 77.7245 34.688C76.5298 31.872 75.9325 28.8 75.9325 25.472ZM78.1725 25.536C78.1725 28.4374 78.7058 31.1467 79.7725 33.664C80.8392 36.1814 82.3112 38.4 84.1885 40.32C86.1085 42.24 88.3272 43.7334 90.8445 44.8C93.3618 45.8667 96.0285 46.4 98.8445 46.4C101.788 46.4 104.519 45.8667 107.036 44.8C109.597 43.7334 111.815 42.24 113.692 40.32C115.612 38.4 117.127 36.1814 118.237 33.664C119.346 31.104 119.9 28.3734 119.9 25.472C119.9 22.5707 119.346 19.8614 118.237 17.344C117.17 14.784 115.676 12.544 113.757 10.624C111.836 8.70402 109.597 7.18935 107.036 6.08002C104.519 4.97068 101.831 4.41602 98.9725 4.41602C96.0285 4.41602 93.2765 4.99202 90.7165 6.14402C88.1992 7.25335 86.0018 8.78935 84.1245 10.752C82.2472 12.7147 80.7752 14.976 79.7085 17.536C78.6845 20.0534 78.1725 22.72 78.1725 25.536Z" fill="black"/>
<path d="M38.1875 2.81598H65.5795V4.92798H40.3635V24.192H63.0835V26.24H40.3635V45.888H66.4755V48H38.1875V2.81598Z" fill="black"/>
<path d="M0 2.81598H2.176V45.888H27.52V48H0V2.81598Z" fill="black"/>
</svg>
