<svg width="219" height="56" viewBox="0 0 219 56" fill="none" xmlns="http://www.w3.org/2000/svg">
<path fill-rule="evenodd" clip-rule="evenodd" d="M214.505 54.1692L209.554 40.5612H184.446L179.459 54.1692H176.193L195.332 1.83077H198.633L217.806 54.1692H214.505ZM185.031 41.392L180.045 55H175L194.746 1H199.218L219 55H213.918L208.967 41.392H185.031ZM196.947 6.2621L185.464 37.6652H208.43L196.947 6.2621ZM196.947 8.69486L186.657 36.8344H207.237L196.947 8.69486Z" fill="white"/>
<path fill-rule="evenodd" clip-rule="evenodd" d="M165.373 1H170V55H165.757L135.627 9.9089V55H131V1H135.242L165.373 46.0246V1ZM166.191 48.726L134.809 1.83077H131.818V54.1692H134.809V7.20419L166.191 54.1692H169.182V1.83077H166.191V48.726Z" fill="white"/>
<path fill-rule="evenodd" clip-rule="evenodd" d="M118.456 8.50891L118.457 8.51003C122.185 13.4163 124 20.1076 124 28.4877C124 36.1 122.175 42.4295 118.463 47.4119C116.384 50.2399 113.76 52.3842 110.603 53.8356C107.451 55.2846 103.912 56 100 56C96.1141 56 92.5895 55.3089 89.4406 53.9096L89.4359 53.9074C86.2726 52.4775 83.6693 50.3059 81.6353 47.4058C77.8503 42.3678 76 35.6858 76 27.4427C76 19.8283 77.8603 13.4973 81.6425 8.51488C83.6766 5.75745 86.2638 3.65094 89.3922 2.20131C92.5143 0.731411 95.8931 0 99.5178 0C103.405 0 106.983 0.703095 110.241 2.12144C113.538 3.52369 116.28 5.65547 118.456 8.50891ZM109.92 2.8846C106.774 1.51446 103.307 0.829384 99.5178 0.829384C96.0046 0.829384 92.7441 1.53768 89.7361 2.95427C86.7281 4.34763 84.2482 6.36801 82.2965 9.0154C78.6455 13.8225 76.8201 19.9649 76.8201 27.4427C76.8201 35.5706 78.6455 42.0614 82.2965 46.9149C84.2482 49.7017 86.7396 51.7801 89.7705 53.1502C92.8015 54.4972 96.2113 55.1706 100 55.1706C103.812 55.1706 107.233 54.4739 110.264 53.0806C113.295 51.6872 115.809 49.632 117.807 46.9149C121.389 42.1078 123.18 35.9654 123.18 28.4877C123.18 20.2204 121.389 13.7296 117.807 9.0154C115.717 6.27512 113.088 4.23152 109.92 2.8846ZM114.566 44.5382L114.572 44.5298C117.569 40.5696 119.122 34.9096 119.122 27.4427C119.122 20.6929 117.578 15.4106 114.577 11.5104L114.568 11.4991L114.56 11.4875C113.017 9.33402 110.984 7.66998 108.442 6.49537L108.437 6.49292C105.883 5.29074 103.177 4.68934 100.31 4.68934C97.297 4.68934 94.434 5.28241 91.7138 6.46784L91.7131 6.46816C89.0608 7.62095 86.9538 9.29542 85.3698 11.49L85.3641 11.4979L85.3581 11.5057C82.4091 15.3941 80.8777 21.0172 80.8777 28.4877C80.8777 35.4334 82.4032 40.7435 85.3511 44.52L85.3611 44.5328L85.3707 44.5461C86.935 46.7214 88.9882 48.3841 91.5488 49.5353C94.2033 50.721 96.9263 51.3107 99.7245 51.3107C102.813 51.3107 105.664 50.7383 108.286 49.6017C110.863 48.4752 112.949 46.7923 114.56 44.5469L114.566 44.5382ZM108.611 50.3635C105.878 51.5479 102.916 52.14 99.7245 52.14C96.8083 52.14 93.9725 51.5246 91.2171 50.2938C88.5306 49.0863 86.3607 47.3329 84.7074 45.0339C81.6076 41.0628 80.0577 35.5474 80.0577 28.4877C80.0577 20.9171 81.6076 15.0881 84.7074 11.0009C86.3837 8.67867 88.6109 6.91374 91.3893 5.70616C94.2136 4.47536 97.1872 3.85995 100.31 3.85995C103.295 3.85995 106.119 4.48697 108.783 5.741C111.446 6.9718 113.593 8.72512 115.224 11.0009C118.369 15.0881 119.942 20.5687 119.942 27.4427C119.942 35.0133 118.369 40.877 115.224 45.0339C113.525 47.4026 111.32 49.1791 108.611 50.3635Z" fill="white"/>
<path fill-rule="evenodd" clip-rule="evenodd" d="M64.6248 25.634V30.366H39.7499V50.3028H69V55H35V1H69V5.73206H39.7499V25.634H64.6248ZM38.9098 4.90129H68.1599V1.83077H35.8401V54.1692H68.1599V51.1336H38.9098V29.5353H63.7847V26.4647H38.9098V4.90129Z" fill="white"/>
<path fill-rule="evenodd" clip-rule="evenodd" d="M4.73893 1V50.3028H31V55H0V1H4.73893ZM3.90077 51.1336V1.83077H0.838155V54.1692H30.1618V51.1336H3.90077Z" fill="white"/>
</svg>
