<svg width="950" height="950" viewBox="0 0 950 950" fill="none" xmlns="http://www.w3.org/2000/svg">
<g clip-path="url(#clip0_108_287)">
<path d="M730.902 440.625H719.798C719.798 440.625 661.392 328.675 660.829 327.933C657.921 323.062 652.612 319.792 646.527 319.792H508.333V255.208C508.333 243.704 499.7 234.375 488.194 234.375H461.11C449.604 234.375 439.583 243.704 439.583 255.208V319.792H304.86C298.775 319.792 293.467 323.062 290.558 327.933C289.996 328.673 231.59 440.625 231.59 440.625H222.569C211.11 440.625 200 448.958 200 460.417V473.958C200 530.912 246.171 577.083 303.125 577.083C360.079 577.083 406.25 530.912 406.25 473.958V460.417C406.25 448.958 398.61 440.625 387.152 440.625H376.048L330.492 353.125H439.583V646.875H360.402C348.898 646.875 338.875 656.202 338.875 667.708V694.792C338.875 706.298 348.898 715.625 360.402 715.625H592.644C604.15 715.625 612.783 706.298 612.783 694.792V667.708C612.783 656.202 604.148 646.875 592.644 646.875H508.333V353.125H620.896L575.34 440.625H566.319C554.86 440.625 543.75 448.958 543.75 460.417V473.958C543.75 530.912 589.921 577.083 646.875 577.083C703.829 577.083 750 530.912 750 473.958V460.417C750 448.958 742.36 440.625 730.902 440.625ZM338.469 440.625H269.169L303.819 374.077L338.469 440.625ZM612.919 440.625L647.569 374.077L682.219 440.625H612.919Z" fill="#282828"/>
</g>
<defs>
<clipPath id="clip0_108_287">
<rect width="550" height="550" fill="white" transform="translate(200 200)"/>
</clipPath>
</defs>
</svg>
