<svg width="950" height="950" viewBox="0 0 950 950" fill="none" xmlns="http://www.w3.org/2000/svg">
<path d="M399.744 371.147C410.86 373.943 418.892 381.501 425.252 390.838C429.529 398.26 432.457 406.058 435.203 414.152C435.949 416.341 436.703 418.529 437.574 420.671C440.21 427.167 441.436 433.461 442.332 440.399C442.485 441.544 442.638 442.688 442.796 443.867C444.533 457.811 444.931 471.831 445.25 485.868C446.777 486.252 448.304 486.636 449.878 487.032C450.737 487.248 451.596 487.464 452.481 487.687C454.874 488.271 457.281 488.797 459.689 489.318C466.634 491.023 473.123 494.06 479.658 496.909C479.658 497.718 479.658 498.528 479.658 499.362C480.553 499.68 481.448 499.998 482.371 500.326C498.931 507.517 512.135 524.934 518.982 541.074C523.989 555.963 524.954 570.137 518.185 584.52C511.88 596.563 503.629 605.094 490.718 609.775C486.167 611.022 481.577 612.076 476.956 613.034C472.691 613.926 469.814 614.691 466.141 617.135C464.909 620.589 463.875 623.956 462.915 627.486C459.455 639.68 455.462 651.652 451.267 663.612C450.805 664.959 450.344 666.305 449.868 667.693C449.452 668.886 449.035 670.079 448.606 671.308C447.629 675.103 447.386 678.254 447.708 682.156C449.961 684.408 449.961 684.408 453.007 685.913C460.742 690.636 460.742 690.636 462.454 695.651C463.329 700.98 463.7 705.721 460.971 710.535C457.779 714.392 454.846 717.076 450.166 718.96C446.466 719.26 446.466 719.26 442.082 719.254C440.878 719.257 440.878 719.257 439.651 719.261C437.91 719.266 436.169 719.265 434.429 719.259C431.65 719.252 428.871 719.263 426.092 719.28C418.191 719.325 410.29 719.349 402.388 719.335C373.338 718.964 373.338 718.964 345.071 724.889C317.485 734.129 276.604 726.59 250.95 714.192C235.552 706.107 222.661 694.369 215.586 678.284C211.923 668.71 211.923 668.71 204.8 661.985C201.338 661.182 201.338 661.182 197.854 660.735C191.113 659.381 186.748 654.224 182.805 648.874C176.719 639.474 176.522 630.537 177.357 619.589C178.456 615.821 180 612.955 182.272 609.775C182.931 608.686 183.59 607.598 184.269 606.477C189.502 601.391 196.427 598.896 203.009 595.896C206.981 592.748 208.521 588.534 210.536 584.012C222.605 556.994 243.379 537.46 271.25 526.64C300.411 516.64 336.575 513.198 365.657 525.59C367.744 526.621 369.808 527.702 371.825 528.863C373.927 530.228 373.927 530.228 376.433 530.032C377.27 528.354 378.085 526.665 378.891 524.972C379.576 523.563 379.576 523.563 380.274 522.125C381.614 518.219 382.014 515.732 381.349 511.63C378.993 509.17 376.907 507.343 374.206 505.343C348.052 484.546 327.804 452.905 322.363 419.62C321.182 402.186 321.182 402.186 324.283 395.928C328.605 391.171 332.111 390.412 338.42 390.019C355.27 390.53 369.012 407.263 380.12 418.393C380.091 417.375 380.091 417.375 380.062 416.336C379.336 386.965 379.336 386.965 387.724 375.915C391.543 371.958 394.233 370.502 399.744 371.147Z" fill="#282828"/>
<circle cx="436" cy="530" r="9" fill="white"/>
<path d="M587.951 221.123C578.666 223.466 571.957 229.799 566.645 237.624C563.073 243.844 560.627 250.379 558.333 257.161C557.71 258.995 557.08 260.829 556.353 262.623C554.151 268.067 553.127 273.342 552.379 279.156C552.251 280.115 552.123 281.074 551.991 282.062C550.54 293.747 550.208 305.495 549.941 317.258C548.666 317.58 547.39 317.902 546.076 318.234C545.359 318.415 544.641 318.596 543.902 318.782C541.903 319.271 539.892 319.713 537.881 320.149C532.08 321.578 526.66 324.123 521.201 326.51C521.201 327.189 521.201 327.867 521.201 328.566C520.454 328.833 519.706 329.099 518.936 329.373C505.104 335.399 494.075 349.995 488.356 363.52C484.174 375.997 483.368 387.874 489.021 399.927C494.288 410.019 501.18 417.168 511.964 421.09C515.765 422.136 519.599 423.019 523.458 423.822C527.021 424.569 529.424 425.21 532.492 427.259C533.521 430.153 534.385 432.975 535.187 435.933C538.077 446.15 541.412 456.183 544.916 466.206C545.302 467.334 545.687 468.463 546.084 469.625C546.432 470.625 546.78 471.625 547.138 472.655C547.955 475.835 548.158 478.475 547.889 481.745C546.006 483.632 546.006 483.632 543.462 484.893C537.002 488.851 537.002 488.851 535.571 493.054C534.841 497.52 534.531 501.493 536.81 505.527C539.477 508.758 541.926 511.008 545.836 512.586C548.926 512.838 548.926 512.838 552.588 512.833C553.593 512.836 553.593 512.836 554.618 512.839C556.072 512.843 557.526 512.842 558.98 512.837C561.301 512.831 563.622 512.841 565.943 512.855C572.543 512.893 579.142 512.912 585.742 512.9C610.007 512.59 610.007 512.59 633.617 517.555C656.659 525.298 690.805 518.981 712.233 508.591C725.094 501.816 735.861 491.979 741.77 478.5C744.83 470.477 744.83 470.477 750.78 464.843C753.671 464.169 753.671 464.169 756.581 463.794C762.212 462.66 765.857 458.339 769.151 453.855C774.235 445.978 774.399 438.489 773.702 429.315C772.784 426.157 771.494 423.755 769.596 421.09C769.046 420.179 768.495 419.267 767.928 418.327C763.558 414.065 757.773 411.975 752.275 409.461C748.958 406.822 747.672 403.291 745.988 399.501C735.908 376.861 718.556 360.492 695.277 351.424C670.92 343.045 640.713 340.16 616.422 350.545C614.679 351.409 612.955 352.315 611.27 353.288C609.514 354.431 609.514 354.431 607.421 354.267C606.722 352.861 606.042 351.446 605.368 350.027C604.797 348.846 604.797 348.846 604.214 347.641C603.094 344.368 602.76 342.283 603.315 338.847C605.283 336.785 607.026 335.254 609.282 333.578C631.127 316.15 648.04 289.635 652.584 261.743C653.57 247.133 653.57 247.133 650.98 241.889C647.37 237.903 644.442 237.267 639.172 236.938C625.098 237.366 613.62 251.388 604.342 260.715C604.366 259.862 604.366 259.862 604.391 258.991C604.997 234.379 604.997 234.379 597.991 225.119C594.801 221.803 592.554 220.583 587.951 221.123Z" fill="#282828"/>
<ellipse cx="7" cy="7.5" rx="7" ry="7.5" transform="matrix(-1 0 0 1 547 346)" fill="white"/>
</svg>
