<svg width="1209" height="1209" viewBox="0 0 1209 1209" fill="none" xmlns="http://www.w3.org/2000/svg">
<circle cx="604.5" cy="604.5" r="600.5" stroke="#282828" stroke-width="8"/>
<path fill-rule="evenodd" clip-rule="evenodd" d="M643.276 230.493C615.976 184.64 550.317 182.579 520.147 226.593L503.628 250.717L480.785 239.435C477.634 237.874 474.083 237.304 470.601 237.8C467.119 238.296 463.869 239.834 461.279 242.214C458.688 244.593 456.879 247.701 456.09 251.128C455.3 254.556 455.567 258.142 456.856 261.414L488.919 343.203C490.486 347.206 493.479 350.488 497.321 352.416C501.163 354.345 505.582 354.784 509.729 353.649L595.668 330.138C599.073 329.205 602.114 327.259 604.388 324.558C606.662 321.857 608.06 318.529 608.399 315.015C608.737 311.5 607.999 307.966 606.283 304.881C604.566 301.796 601.953 299.305 598.788 297.74L579.678 288.296L595.306 263.782C596.173 262.417 597.345 261.271 598.73 260.436C600.115 259.6 601.676 259.098 603.288 258.968C604.9 258.839 606.521 259.085 608.022 259.689C609.522 260.292 610.863 261.236 611.937 262.445L643.22 297.74C646.1 300.973 650.081 303.018 654.386 303.474C658.692 303.931 663.013 302.767 666.507 300.209C670 297.652 672.415 293.884 673.281 289.642C674.147 285.4 673.401 280.987 671.189 277.265L643.276 230.493ZM694.812 324.037C690.568 323.402 686.24 324.355 682.657 326.715C679.073 329.075 676.487 332.674 675.395 336.824L652.775 422.986C651.878 426.401 652.04 430.009 653.24 433.33C654.441 436.651 656.623 439.529 659.497 441.581C662.371 443.633 665.801 444.762 669.332 444.82C672.863 444.877 676.328 443.859 679.267 441.901L697.012 430.061L710.439 455.885C711.183 457.318 711.584 458.903 711.612 460.517C711.64 462.131 711.294 463.729 710.6 465.187C709.906 466.644 708.885 467.921 707.615 468.917C706.344 469.913 704.861 470.601 703.28 470.928L657.065 480.399C652.857 481.305 649.134 483.738 646.614 487.228C644.094 490.718 642.956 495.017 643.42 499.297C643.884 503.576 645.917 507.532 649.126 510.401C652.335 513.27 656.493 514.848 660.798 514.831L715.287 514.079C768.633 513.326 803.259 457.529 780.194 409.391L767.574 382.983L788.746 368.859C791.659 366.909 793.915 364.125 795.22 360.872C796.525 357.618 796.817 354.046 796.059 350.624C795.3 347.201 793.526 344.088 790.969 341.69C788.412 339.292 785.19 337.722 781.726 337.186L694.867 324.065L694.812 324.037ZM600.487 506.557C603.163 503.195 604.501 498.963 604.243 494.674C603.986 490.385 602.152 486.343 599.094 483.324L535.803 420.646C533.293 418.154 530.084 416.485 526.602 415.862C523.121 415.239 519.532 415.691 516.314 417.158C513.096 418.625 510.4 421.037 508.587 424.074C506.774 427.11 505.928 430.627 506.163 434.156L507.556 455.411L478.473 454.158C476.854 454.091 475.272 453.648 473.854 452.864C472.435 452.081 471.219 450.978 470.3 449.643C469.381 448.308 468.785 446.778 468.56 445.173C468.335 443.568 468.486 441.933 469.002 440.396L483.961 395.686C485.361 391.565 485.167 387.07 483.417 383.086C481.668 379.101 478.49 375.916 474.509 374.159C470.528 372.401 466.034 372.197 461.91 373.588C457.787 374.979 454.334 377.864 452.232 381.674L425.656 429.254C399.637 475.831 430.67 533.718 483.877 537.813L513.044 540.069L514.687 565.475C514.913 568.981 516.194 572.337 518.362 575.101C520.53 577.866 523.484 579.91 526.835 580.965C530.186 582.02 533.778 582.036 537.139 581.011C540.499 579.987 543.471 577.97 545.664 575.225L600.487 506.557Z" fill="#282828"/>
<mask id="path-3-outside-1_82_2212" maskUnits="userSpaceOnUse" x="262.535" y="602.989" width="685" height="441" fill="black">
<rect fill="white" x="262.535" y="602.989" width="685" height="441"/>
<path d="M791.396 605.056C795.735 606.835 797.849 610.505 798.406 617.177C798.962 624.738 800.409 626.629 807.641 629.186C810.756 630.298 814.094 632.077 815.207 633.078C818.322 635.969 821.549 637.415 830.561 639.75C839.24 641.974 845.693 644.754 849.365 647.534C854.817 651.871 862.383 660.544 866.055 666.883C870.172 673.888 870.394 674.11 874.956 674.11C878.183 674.11 880.408 673.332 882.745 671.33C884.525 669.774 886.75 668.551 887.752 668.551C891.09 668.551 893.649 672.776 893.649 678.336C893.649 690.679 883.857 706.136 873.621 710.25C870.505 711.473 868.169 713.03 868.391 713.697C868.614 714.476 867.501 715.254 865.944 715.699C863.385 716.366 863.162 716.811 863.162 723.372C863.162 732.601 860.047 738.828 852.258 744.722C849.031 747.168 845.36 750.726 844.136 752.728C842.022 755.953 838.906 757.954 831.674 760.734C830.005 761.401 827.668 763.514 826.667 765.405C822.884 772.41 820.102 774.857 814.539 776.191C807.529 777.748 802.189 776.413 794.178 771.076C785.276 765.071 782.717 760.734 783.385 753.062L783.941 746.946L781.939 751.95C780.937 754.73 779.379 761.179 778.601 766.405L777.265 775.857L780.826 784.753C782.829 789.646 785.61 797.652 786.945 802.545C791.174 817.334 793.955 824.451 797.071 827.676C798.628 829.344 804.97 833.792 811.201 837.684C821.549 844.133 824.33 846.024 828.002 849.249C828.67 849.916 831.451 852.14 834.233 854.252C839.017 858.033 843.246 861.369 845.805 863.704C846.472 864.26 850.255 867.596 854.261 870.932C858.266 874.268 861.716 877.271 862.049 877.604C862.383 877.938 864.386 879.606 866.5 881.385C878.739 891.17 897.432 912.521 902.884 922.64C905.22 927.088 910.227 942.767 911.562 949.883C912.119 953.331 913.009 954.109 918.572 956.667C922.021 958.335 926.694 960.225 928.92 960.892C933.704 962.449 939.935 968.676 943.384 975.459C946.499 981.464 947.501 992.361 945.498 999.589C944.163 1004.26 943.495 1004.93 937.264 1007.82C933.481 1009.6 929.253 1011.82 927.807 1012.6C922.132 1015.94 909.337 1010.93 902.439 1002.59C900.102 999.812 896.319 996.365 894.094 995.03C882.522 988.136 875.735 978.906 874.177 968.12C872.953 959.224 863.273 937.874 858.266 932.87C847.474 922.084 781.605 898.732 762.022 898.732C755.68 898.732 753.455 896.73 749.338 887.612C744.553 876.826 741.549 870.487 739.88 867.819L738.211 865.261L733.204 870.043C730.534 872.711 725.305 878.716 721.744 883.387C718.072 888.168 714.734 892.06 714.289 892.06C712.732 892.171 699.825 905.07 695.263 911.409C692.593 914.967 684.804 924.085 677.906 931.647C665.11 945.658 655.541 959.558 647.975 975.57C645.75 980.241 643.636 985.578 643.302 987.469L642.523 991.027H647.642C655.096 991.027 658.434 992.584 664.22 999.033C672.454 1008.04 675.569 1014.6 675.569 1023.16C675.68 1030.06 675.569 1030.39 672.231 1032.39C666.557 1035.73 649.533 1038.06 635.625 1037.4C622.273 1036.73 616.71 1035.28 614.93 1031.95C614.262 1030.84 612.816 1026.17 611.703 1021.72C610.479 1017.27 608.031 1009.93 606.029 1005.48C601.8 995.475 602.023 992.25 607.809 974.792C614.485 955.11 618.713 935.205 621.161 913.188L621.828 906.961L613.149 905.515C591.453 902.068 568.421 894.618 548.171 884.499C547.726 884.387 547.169 887.723 546.724 892.06C545.278 906.182 541.495 921.75 536.599 933.204C532.705 942.433 529.812 951.44 528.032 960.003C526.808 965.896 526.919 967.342 528.699 972.346C533.372 985.467 541.606 994.141 555.18 1000.48C562.635 1003.93 564.527 1003.93 569.645 1000.48C579.102 994.029 585.222 994.697 593.678 1003.15C599.686 1009.26 601.689 1013.6 601.689 1020.94C601.689 1025.61 601.133 1026.94 598.685 1029.39C593.233 1034.39 588.449 1035.95 576.988 1036.4C554.847 1037.4 544.276 1033.5 519.909 1015.49C516.794 1013.16 509.005 1005.93 502.552 999.256L490.758 987.135L490.09 963.783C489.312 934.983 486.641 922.529 476.739 900.956C474.847 896.842 466.057 883.164 462.83 879.272C452.483 866.818 451.37 866.151 446.363 870.71C445.251 871.711 442.803 873.49 441.134 874.602C438.018 876.603 436.683 877.604 429.896 883.275C421.996 889.725 397.295 904.292 394.18 904.292C393.846 904.292 389.618 906.849 384.834 909.852C380.049 912.965 375.932 915.412 375.599 915.412C375.042 915.412 360.467 923.974 359.354 924.975C358.464 925.642 368.7 935.761 374.931 940.432C390.953 952.441 415.654 959.447 434.235 957.111C438.686 956.555 441.69 955.443 445.139 952.775C456.6 943.99 457.712 935.872 448.922 924.753C443.137 917.413 440.355 911.52 440.355 906.627C440.355 903.625 440.689 903.291 445.807 902.624C456.043 901.29 466.613 905.849 475.181 915.412C480.744 921.639 485.974 931.424 485.974 935.761C485.974 939.764 482.858 947.882 480.299 950.439C479.186 951.663 476.182 955.221 473.734 958.446C469.951 963.227 468.394 964.339 463.721 965.562C459.938 966.563 458.269 967.453 458.602 968.454C459.047 969.566 457.712 969.899 453.595 969.899C449.034 969.899 448.143 970.233 448.366 971.79C449.256 976.571 433.345 976.238 409.757 971.011C384.166 965.34 366.586 957.111 347.337 941.988L340.55 936.651L336.211 939.542C327.977 944.991 322.414 953.442 317.185 968.231C314.514 975.793 314.514 996.365 317.185 1002.48C318.297 1004.7 319.187 1006.59 319.41 1006.59C319.521 1006.59 322.414 1005.82 325.752 1004.93C334.431 1002.59 340.105 1004.26 345.78 1010.82C351.454 1017.16 353.234 1022.61 351.343 1028.17C349.006 1035.28 340.439 1039.51 324.528 1041.18C302.609 1043.51 301.496 1043.51 295.043 1041.62C279.577 1037.17 277.352 1031.84 277.463 1001.59C277.574 976.571 279.799 962.56 286.809 942.1C290.703 930.757 291.816 929.312 299.827 924.308C303.944 921.639 309.507 917.747 312.178 915.634L316.962 911.742L308.728 903.291C299.827 894.062 294.153 887.612 290.703 882.719C289.48 880.94 286.698 877.271 284.695 874.379C278.464 866.151 270.342 848.47 267.115 836.238C264.445 826.23 264 822.672 264 808.105C264 788.868 265.78 781.084 273.124 768.741C291.482 737.827 328.2 724.15 393.067 724.15C405.306 724.15 420.327 724.817 426.558 725.707C434.458 726.707 439.91 726.819 444.917 726.151C448.811 725.595 457.045 725.373 463.164 725.707C476.739 726.485 485.862 729.154 503.22 737.716C537.267 754.396 559.186 760.623 589.45 762.069C610.813 763.181 621.494 762.291 633.066 758.51C646.306 754.174 650.201 750.726 658.657 736.493C661.661 731.267 664.888 726.151 665.555 725.262C666.334 724.372 667.892 721.148 668.893 718.256C671.897 710.139 675.124 706.914 682.245 705.246C687.808 703.912 690.479 704.023 697.488 705.802C699.714 706.358 700.604 705.802 702.384 702.8C709.171 691.124 723.079 675.222 736.32 663.658C742.106 658.654 754.79 650.314 758.35 649.202C760.353 648.535 760.798 647.534 760.798 643.864C760.798 637.86 763.691 627.073 767.252 619.845C773.482 607.058 782.606 601.498 791.396 605.056ZM777.599 611.394C765.471 621.847 760.353 645.977 767.808 657.319C771.48 662.879 775.485 665.103 778.044 662.991C779.491 661.767 779.268 661.1 775.374 657.875C769.366 652.76 767.029 646.2 767.697 636.97C768.03 632.744 769.366 627.741 770.923 624.627C773.927 618.622 780.492 612.284 784.831 611.172C789.838 609.949 790.951 612.84 790.617 625.183C790.283 635.636 790.395 635.858 793.844 640.751C795.847 643.42 797.516 646.2 797.516 646.756C797.516 648.312 782.717 663.547 776.709 668.217C770.256 673.332 767.474 679.67 767.474 689.345C767.474 693.57 768.142 699.464 769.032 702.244C769.811 705.024 770.256 707.581 769.922 707.915C768.809 709.138 766.695 704.69 765.249 698.463C762.801 687.677 764.47 679.114 770.923 668.773C772.147 666.883 771.702 666.104 768.142 662.546C765.916 660.211 763.802 656.875 763.357 655.095C763.023 653.316 762.356 651.648 761.911 651.315C760.464 650.425 744.331 660.878 735.541 668.439C724.748 677.78 705.166 701.021 703.83 706.247C703.608 706.803 706.501 708.916 710.173 710.806C715.958 714.031 721.967 718.145 730.757 725.151C732.314 726.374 733.204 727.708 732.759 728.042C732.426 728.487 728.643 726.263 724.415 723.26C720.298 720.258 712.843 715.81 708.059 713.475C700.381 709.694 697.933 709.138 690.256 708.804C682.468 708.471 680.799 708.693 678.351 710.695C673.01 714.92 669.561 725.707 665.667 750.282C663.219 765.961 661.439 769.297 662.217 756.398C662.662 751.171 663.219 745.722 663.664 744.166C664.331 741.831 663.219 742.498 657.21 747.835C649.422 754.952 640.854 759.4 628.949 762.625C622.273 764.404 617.378 764.737 595.013 764.626C572.204 764.626 567.642 764.293 559.408 762.291C537.601 756.842 534.04 755.508 507.114 742.72C492.427 735.826 479.965 731.044 473.178 729.821C462.83 727.931 448.477 728.375 438.686 730.822C428.338 733.491 429.117 733.379 429.896 731.378C430.341 730.155 429.785 729.71 428.005 729.599C426.558 729.487 423.776 729.154 421.996 728.82C420.105 728.487 405.418 728.153 389.173 728.153C356.127 728.153 343.443 729.599 323.082 735.27C310.731 738.717 299.048 744.61 291.816 750.949C287.699 754.618 278.131 767.184 275.349 772.521C274.459 774.412 272.456 779.416 271.01 783.641C268.784 790.424 268.45 793.427 268.562 808.105C268.673 832.902 273.346 849.36 285.919 868.708C291.816 877.938 317.518 908.517 319.41 908.629C320.411 908.74 327.977 900.956 327.977 899.844C327.977 899.51 326.308 897.509 324.306 895.285C322.414 892.95 319.855 890.17 318.742 888.835C316.517 886.167 307.95 873.935 306.281 871.155C305.613 870.043 304.055 867.708 302.831 865.928C299.16 860.813 290.147 841.353 287.032 832.013C283.694 821.782 282.692 808.439 284.584 801.099C286.809 792.871 294.375 778.304 300.05 771.187C304.612 765.516 315.627 756.62 318.297 756.509C318.854 756.398 320.856 755.73 322.748 754.841C331.093 751.282 333.095 750.726 342.776 749.17C361.134 746.167 381.941 747.279 397.295 752.172C401.301 753.395 401.635 753.284 405.084 750.059C409.089 746.167 415.432 742.72 417.212 743.276C417.879 743.498 415.877 745.611 412.65 747.946C409.423 750.282 403.081 756.509 398.519 761.846C388.95 772.855 385.39 780.416 380.272 800.543C370.814 837.128 365.362 850.583 350.453 874.268C335.321 898.398 316.962 919.081 305.168 925.42C296.712 929.979 294.82 931.647 292.817 936.428C290.481 942.1 286.03 959.335 284.584 968.787C281.802 986.579 280.133 1000.7 280.133 1006.37C280.133 1015.6 282.359 1027.94 284.695 1031.17C287.811 1035.62 297.157 1039.18 305.947 1039.29C315.849 1039.4 317.852 1037.73 315.849 1030.84C314.069 1025.05 307.059 1017.71 303.388 1017.71C301.941 1017.71 299.048 1018.72 297.046 1019.94C292.818 1022.61 292.261 1021.05 296.378 1017.83C301.385 1013.93 307.059 1015.05 313.29 1021.16C317.073 1024.94 320.189 1030.84 320.189 1034.51C320.189 1036.28 321.079 1036.62 326.531 1036.62C335.098 1036.62 337.991 1035.73 337.991 1033.17C337.991 1028.61 332.984 1018.05 328.867 1013.93C325.196 1010.26 324.194 1009.71 321.19 1010.38C319.299 1010.71 316.294 1012.04 314.514 1013.38C309.73 1016.71 308.283 1015.49 312.178 1011.38L315.404 1007.82L313.29 1001.37C310.286 992.584 310.954 974.903 314.625 964.339C317.741 955.666 322.08 947.548 326.865 941.766C328.645 939.542 347.56 926.865 353.679 923.752C355.793 922.64 364.472 917.636 373.04 912.632C381.607 907.517 392.4 901.623 396.962 899.288C404.973 895.285 416.989 888.168 422.553 884.054C424.11 882.942 431.565 877.493 439.242 871.822C446.92 866.262 455.598 859.59 458.714 857.032C461.718 854.475 467.059 850.805 470.508 848.804C479.186 843.911 498.769 838.573 495.32 842.021C494.652 842.688 490.981 844.133 486.975 845.245C479.631 847.358 468.839 852.362 467.726 854.141C467.392 854.697 470.508 855.698 474.625 856.476C487.531 858.923 520.132 869.487 536.488 876.603C575.542 893.506 587.113 897.731 606.14 901.623C617.6 903.958 643.414 904.848 655.319 903.291C683.024 899.622 710.618 887.056 728.198 870.154L736.542 862.148L733.983 858.478C726.862 848.47 715.18 838.685 697.711 828.232C690.812 824.118 693.149 823.228 700.938 827.12C714.067 833.681 727.864 845.579 736.876 857.7C739.324 861.147 744.553 870.265 748.448 878.049C756.348 893.95 757.126 894.618 769.254 896.508C784.498 898.843 810.2 906.182 827.223 913.077C830.45 914.3 838.906 918.192 846.027 921.639C861.048 928.978 861.938 929.979 872.174 950.328C875.846 957.779 879.295 964.228 879.963 964.784C880.519 965.451 880.964 966.563 880.964 967.453C880.964 968.787 880.631 968.787 879.295 967.675C874.622 963.783 879.74 977.127 884.97 982.687C886.75 984.577 890.088 987.58 892.536 989.359C896.208 992.139 896.764 992.361 896.208 990.471C894.65 985.356 894.094 982.131 894.761 982.131C895.206 982.131 897.32 985.912 899.546 990.582C905.443 1002.7 914.455 1009.93 923.801 1009.93C928.586 1009.93 929.365 1008.26 929.365 998.811C929.253 991.583 928.808 989.359 926.917 986.913C925.025 984.355 923.801 983.799 920.018 984.021C916.68 984.133 915.457 983.799 915.457 982.576C915.457 981.464 916.903 981.019 920.463 981.019C924.469 981.019 926.138 981.575 928.141 983.799C931.034 986.913 933.259 994.252 933.259 1000.81C933.259 1004.82 933.481 1005.15 936.041 1004.7C940.602 1003.81 942.605 999.256 942.716 989.915C942.716 980.463 940.491 974.347 935.929 971.345C933.37 969.677 932.703 969.677 927.696 971.345C924.024 972.568 921.242 972.79 919.573 972.234C917.348 971.345 917.571 971.122 921.687 970.01C924.135 969.343 927.807 968.454 929.81 968.12C935.707 966.897 931.701 964.562 922.244 963.672L914.121 962.894L914.9 966.563C915.457 969.121 915.345 969.899 914.455 969.454C912.452 968.12 910.005 961.337 907.779 950.551C902.884 926.643 897.32 917.08 876.069 895.841C860.492 880.273 852.258 873.156 838.127 862.704C835.68 860.813 833.454 859.034 833.12 858.7C832.675 858.144 828.892 855.253 818.1 847.358C810.422 841.687 805.972 838.573 801.076 835.46C794.066 831.012 791.73 828.01 788.837 819.225C783.719 803.991 776.153 784.308 773.037 777.97C768.809 769.297 758.35 755.286 748.003 744.499C739.658 735.826 737.878 733.046 741.772 735.159C746.334 737.605 758.239 750.282 767.808 762.736C770.812 766.628 773.594 769.741 774.261 769.741C774.818 769.741 775.263 768.296 775.263 766.517C775.263 762.958 780.381 746.39 782.05 744.722C783.496 743.276 783.274 737.716 781.382 731.489C779.157 724.15 779.268 722.927 781.939 726.93C785.388 732.156 786.612 738.272 786.5 749.614L786.389 760.067L791.174 764.737C798.183 771.409 805.304 774.634 811.535 773.856C817.321 773.3 822.328 769.297 824.108 763.848C825.221 760.845 824.998 760.178 821.549 757.065C819.324 754.952 815.095 752.728 810.867 751.394C800.52 748.28 794.623 744.054 793.176 738.939C791.507 732.935 791.619 723.816 793.51 721.259C795.958 717.923 796.737 720.147 795.29 726.04C793.51 732.823 795.179 739.718 799.296 742.942C802.523 745.5 811.869 749.17 817.877 750.282C820.881 750.838 822.439 752.061 824.108 754.841C826.556 759.066 828.892 759.511 834.567 757.065C838.795 755.286 842.578 751.394 843.691 747.613C844.469 745.166 844.247 745.055 841.91 745.722C840.464 746.167 835.902 746.834 831.897 747.168L824.553 747.724L821.994 743.61C820.547 741.386 817.543 735.492 815.095 730.488C811.201 722.482 810.979 721.37 812.425 719.924C813.983 718.368 815.095 719.146 822.884 727.152C830.228 734.714 832.564 736.493 837.571 737.939C846.917 740.719 846.472 741.386 846.472 726.374C846.472 715.365 846.806 712.14 848.586 708.804C851.59 702.911 863.051 691.902 866.834 691.124C868.614 690.79 870.283 689.901 870.505 689.122C871.507 686.676 865.499 670.774 861.382 664.547C853.148 652.093 843.468 646.088 824.219 641.196C820.214 640.195 816.542 638.638 816.097 637.86C815.207 636.192 810.2 633.412 802.634 630.298L798.406 628.519L798.851 631.299C799.518 634.301 798.183 635.191 797.182 632.522C796.848 631.632 795.958 626.851 795.179 621.736C793.065 606.946 786.945 603.388 777.599 611.394ZM778.044 618.622C774.039 623.515 770.589 630.521 772.036 630.965C772.815 631.188 772.815 632.3 772.036 634.412C768.921 642.641 771.257 649.98 779.268 656.875L782.495 659.655L784.943 656.763C786.167 655.095 787.613 652.315 787.947 650.425C788.503 647.645 788.948 647.312 791.396 647.868C794.845 648.757 794.845 648.424 791.062 642.641C788.281 638.416 788.058 637.081 788.058 627.407C788.169 621.291 787.724 616.509 786.945 616.065C784.498 614.286 780.937 615.286 778.044 618.622ZM880.964 676.89C876.848 681.116 875.401 681.672 875.401 679.003C875.401 678.002 874.622 677.446 873.621 677.669C871.729 678.114 871.729 677.78 872.731 683.785C873.065 686.454 873.843 688.566 874.4 688.566C874.845 688.566 877.626 685.675 880.519 682.117C886.083 675.334 887.306 674.666 889.087 677.669C890.867 680.338 887.418 690.457 882.633 696.684C880.408 699.575 876.18 703.133 872.953 704.913C869.282 706.914 867.946 708.137 869.059 708.36C873.176 709.138 883.857 699.13 887.752 690.79C890.311 685.453 891.646 677.558 890.644 674.666C889.421 671.775 884.97 672.776 880.964 676.89ZM880.186 687.454C873.065 696.906 870.617 704.801 876.514 699.13C880.074 695.794 886.528 683.896 886.528 680.894C886.528 679.003 886.416 679.114 880.186 687.454ZM861.493 699.353C859.935 700.576 859.713 701.243 860.603 701.577C863.273 702.577 862.049 704.134 858.711 704.134C856.375 704.134 854.372 705.135 852.481 707.136C851.034 708.693 849.921 710.139 850.033 710.361C850.255 710.472 853.148 710.25 856.486 709.916C861.827 709.249 862.606 708.804 862.939 706.58C863.162 704.913 863.941 704.134 864.831 704.579C865.721 704.912 867.501 703.801 868.725 702.133C870.839 699.464 870.951 699.13 869.282 697.907C867.279 696.35 864.72 696.906 861.493 699.353ZM857.265 715.254C856.82 717.144 857.042 717.256 858.823 716.255C860.047 715.699 860.714 714.698 860.38 714.031C859.268 712.363 857.933 712.919 857.265 715.254ZM850.033 716.366C850.812 717.478 851.479 718.368 851.479 718.256C851.479 718.145 852.258 717.144 853.037 716.032C854.372 714.364 854.261 714.142 851.59 714.142C849.031 714.142 848.809 714.364 850.033 716.366ZM853.259 720.369C850.033 721.036 849.81 721.37 849.81 726.374C849.81 729.265 849.254 734.269 848.698 737.494C848.03 740.719 847.807 743.61 848.03 743.832C848.252 744.166 850.7 742.164 853.482 739.495C858.823 734.38 860.937 729.154 860.047 723.26C859.49 719.48 858.934 719.257 853.259 720.369ZM818.545 729.043C820.881 731.489 821.994 733.713 821.994 736.048C821.994 737.939 822.884 740.607 824.108 742.053C825.888 744.277 826.445 744.388 828.002 743.165C829.56 741.942 829.782 741.942 829.782 743.498C829.782 745.611 829.894 745.611 837.015 743.832L842.467 742.386L837.015 740.83C832.564 739.607 829.894 737.716 823.663 731.489C819.324 727.152 815.652 724.039 815.429 724.483C815.207 725.039 816.653 727.041 818.545 729.043ZM662.774 735.492C660.437 740.163 660.437 740.163 662.662 738.272C664.554 736.604 666.779 730.822 665.555 730.822C665.333 730.822 664.109 732.935 662.774 735.492ZM342.998 752.061C330.203 753.951 319.744 758.399 309.285 766.183C304.723 769.63 294.264 785.198 290.481 794.428C288.033 800.321 287.477 803.101 287.588 811.997C287.588 821.894 287.922 823.45 292.706 836.238C295.599 843.689 298.937 851.917 300.272 854.586C305.502 864.705 323.082 889.391 328.756 894.618C330.87 896.508 331.093 896.397 333.095 893.617C334.208 891.949 336.211 889.391 337.546 887.723C341.218 883.053 357.462 856.476 361.134 849.249C365.14 841.242 372.928 817.223 378.603 795.984C383.276 778.193 386.169 771.854 393.846 762.625C399.187 756.175 399.298 755.953 396.85 755.063C394.069 753.951 381.273 751.171 376.378 750.504C371.593 749.837 352.122 750.726 342.998 752.061ZM457.824 861.592L453.595 864.372L461.718 873.045C470.842 882.719 480.967 898.287 485.195 908.962C490.647 922.862 493.762 943.99 493.762 967.898V986.023L501.996 993.918C506.558 998.255 513.122 1004.04 516.683 1006.71C520.354 1009.37 523.47 1011.82 523.804 1012.15C525.584 1014.05 539.158 1023.61 544.276 1026.61C552.288 1031.17 565.194 1033.62 576.098 1032.84C580.66 1032.5 584.666 1031.84 585.111 1031.28C586.78 1029.61 584.554 1020.61 581.216 1015.6C576.877 1009.26 573.65 1008.6 566.529 1012.71C560.521 1016.27 559.297 1015.82 563.414 1011.82C567.642 1007.6 573.762 1005.93 577.878 1007.82C581.55 1009.6 588.894 1020.83 589.895 1026.28C590.785 1030.61 592.009 1030.84 595.57 1027.17C601.467 1021.38 597.239 1008.37 587.336 1001.92C583.108 999.033 576.766 999.367 571.87 1002.7C564.527 1007.71 555.069 1005.59 541.94 996.142C536.043 991.917 529.033 982.465 526.474 975.237C523.247 966.118 525.028 955.11 533.372 932.536C539.826 914.745 543.831 897.398 543.831 886.945V882.386L535.153 878.716C525.695 874.713 515.681 871.155 502.107 866.818C473.512 857.811 464.833 856.81 457.824 861.592ZM697.933 893.728C679.908 902.068 657.989 906.849 638.963 906.849H625.5L622.496 927.532C619.603 946.881 614.373 968.009 608.476 984.577C605.472 992.917 605.583 997.699 608.81 1004.15C610.257 1007.04 612.816 1013.93 614.485 1019.38C616.154 1024.94 618.268 1030.17 619.158 1031.28C621.383 1033.73 642.301 1035.06 654.985 1033.39C667.113 1031.84 672.231 1029.39 672.676 1024.94C673.455 1018.38 668.337 1006.93 663.33 1004.26C660.66 1002.93 657.655 1004.04 653.539 1007.82C652.315 1009.04 650.535 1009.93 649.644 1009.93C647.419 1009.93 653.094 1004.15 657.878 1001.48L661.661 999.478L657.878 996.921C650.312 991.805 644.415 995.253 645.305 1004.26C645.528 1007.15 645.305 1008.37 644.415 1008.04C642.301 1007.26 640.076 998.7 640.187 991.583C640.187 985.801 640.966 983.243 646.084 972.679C655.875 952.33 662.774 942.767 682.245 922.084C686.028 918.081 691.035 912.298 693.483 909.296C695.819 906.182 702.384 899.066 707.836 893.394L717.961 882.942L711.842 886.5C708.504 888.502 702.162 891.726 697.933 893.728ZM442.803 908.517C442.469 910.519 444.249 912.965 450.48 918.97C456.155 924.419 458.157 926.976 457.156 927.644C456.043 928.311 456.043 928.978 456.933 930.757C458.602 933.982 458.491 941.655 456.6 945.213C454.374 949.55 447.253 955.888 441.801 958.668C433.679 962.782 414.653 961.115 396.405 954.887C389.618 952.552 375.376 944.991 372.149 941.988C370.926 940.876 369.479 939.876 369.034 939.876C368.589 939.876 365.362 937.207 361.802 933.982C358.353 930.868 355.126 927.977 354.458 927.755C353.234 927.31 344.667 933.092 344.667 934.538C344.667 936.54 367.921 952.663 377.601 957.223C388.505 962.449 410.647 968.676 427.893 971.345C438.13 972.902 438.241 972.902 436.238 970.678C434.235 968.454 434.347 968.454 437.796 969.121C440.355 969.677 441.356 969.454 441.134 968.454C441.022 967.564 442.58 967.23 446.474 967.453C451.481 967.786 451.815 967.675 449.924 966.23C448.032 964.784 448.477 964.673 455.153 964.006C459.27 963.672 464.388 962.338 466.725 961.115L470.953 958.891L466.168 958.779C460.828 958.779 460.716 957.223 465.835 956.222C469.84 955.443 477.629 948.66 480.077 943.99C485.083 934.316 474.513 914.856 461.05 908.74C454.152 905.626 453.484 905.515 448.143 905.738C443.804 905.96 443.137 906.294 442.803 908.517ZM331.093 1011.49C336.322 1017.16 339.66 1023.27 340.773 1029.17C341.663 1033.5 342.33 1034.06 344.444 1031.95C348.339 1028.06 343.109 1012.93 336.878 1009.71C327.977 1005.26 325.974 1005.93 331.093 1011.49Z"/>
</mask>
<path d="M791.396 605.056C795.735 606.835 797.849 610.505 798.406 617.177C798.962 624.738 800.409 626.629 807.641 629.186C810.756 630.298 814.094 632.077 815.207 633.078C818.322 635.969 821.549 637.415 830.561 639.75C839.24 641.974 845.693 644.754 849.365 647.534C854.817 651.871 862.383 660.544 866.055 666.883C870.172 673.888 870.394 674.11 874.956 674.11C878.183 674.11 880.408 673.332 882.745 671.33C884.525 669.774 886.75 668.551 887.752 668.551C891.09 668.551 893.649 672.776 893.649 678.336C893.649 690.679 883.857 706.136 873.621 710.25C870.505 711.473 868.169 713.03 868.391 713.697C868.614 714.476 867.501 715.254 865.944 715.699C863.385 716.366 863.162 716.811 863.162 723.372C863.162 732.601 860.047 738.828 852.258 744.722C849.031 747.168 845.36 750.726 844.136 752.728C842.022 755.953 838.906 757.954 831.674 760.734C830.005 761.401 827.668 763.514 826.667 765.405C822.884 772.41 820.102 774.857 814.539 776.191C807.529 777.748 802.189 776.413 794.178 771.076C785.276 765.071 782.717 760.734 783.385 753.062L783.941 746.946L781.939 751.95C780.937 754.73 779.379 761.179 778.601 766.405L777.265 775.857L780.826 784.753C782.829 789.646 785.61 797.652 786.945 802.545C791.174 817.334 793.955 824.451 797.071 827.676C798.628 829.344 804.97 833.792 811.201 837.684C821.549 844.133 824.33 846.024 828.002 849.249C828.67 849.916 831.451 852.14 834.233 854.252C839.017 858.033 843.246 861.369 845.805 863.704C846.472 864.26 850.255 867.596 854.261 870.932C858.266 874.268 861.716 877.271 862.049 877.604C862.383 877.938 864.386 879.606 866.5 881.385C878.739 891.17 897.432 912.521 902.884 922.64C905.22 927.088 910.227 942.767 911.562 949.883C912.119 953.331 913.009 954.109 918.572 956.667C922.021 958.335 926.694 960.225 928.92 960.892C933.704 962.449 939.935 968.676 943.384 975.459C946.499 981.464 947.501 992.361 945.498 999.589C944.163 1004.26 943.495 1004.93 937.264 1007.82C933.481 1009.6 929.253 1011.82 927.807 1012.6C922.132 1015.94 909.337 1010.93 902.439 1002.59C900.102 999.812 896.319 996.365 894.094 995.03C882.522 988.136 875.735 978.906 874.177 968.12C872.953 959.224 863.273 937.874 858.266 932.87C847.474 922.084 781.605 898.732 762.022 898.732C755.68 898.732 753.455 896.73 749.338 887.612C744.553 876.826 741.549 870.487 739.88 867.819L738.211 865.261L733.204 870.043C730.534 872.711 725.305 878.716 721.744 883.387C718.072 888.168 714.734 892.06 714.289 892.06C712.732 892.171 699.825 905.07 695.263 911.409C692.593 914.967 684.804 924.085 677.906 931.647C665.11 945.658 655.541 959.558 647.975 975.57C645.75 980.241 643.636 985.578 643.302 987.469L642.523 991.027H647.642C655.096 991.027 658.434 992.584 664.22 999.033C672.454 1008.04 675.569 1014.6 675.569 1023.16C675.68 1030.06 675.569 1030.39 672.231 1032.39C666.557 1035.73 649.533 1038.06 635.625 1037.4C622.273 1036.73 616.71 1035.28 614.93 1031.95C614.262 1030.84 612.816 1026.17 611.703 1021.72C610.479 1017.27 608.031 1009.93 606.029 1005.48C601.8 995.475 602.023 992.25 607.809 974.792C614.485 955.11 618.713 935.205 621.161 913.188L621.828 906.961L613.149 905.515C591.453 902.068 568.421 894.618 548.171 884.499C547.726 884.387 547.169 887.723 546.724 892.06C545.278 906.182 541.495 921.75 536.599 933.204C532.705 942.433 529.812 951.44 528.032 960.003C526.808 965.896 526.919 967.342 528.699 972.346C533.372 985.467 541.606 994.141 555.18 1000.48C562.635 1003.93 564.527 1003.93 569.645 1000.48C579.102 994.029 585.222 994.697 593.678 1003.15C599.686 1009.26 601.689 1013.6 601.689 1020.94C601.689 1025.61 601.133 1026.94 598.685 1029.39C593.233 1034.39 588.449 1035.95 576.988 1036.4C554.847 1037.4 544.276 1033.5 519.909 1015.49C516.794 1013.16 509.005 1005.93 502.552 999.256L490.758 987.135L490.09 963.783C489.312 934.983 486.641 922.529 476.739 900.956C474.847 896.842 466.057 883.164 462.83 879.272C452.483 866.818 451.37 866.151 446.363 870.71C445.251 871.711 442.803 873.49 441.134 874.602C438.018 876.603 436.683 877.604 429.896 883.275C421.996 889.725 397.295 904.292 394.18 904.292C393.846 904.292 389.618 906.849 384.834 909.852C380.049 912.965 375.932 915.412 375.599 915.412C375.042 915.412 360.467 923.974 359.354 924.975C358.464 925.642 368.7 935.761 374.931 940.432C390.953 952.441 415.654 959.447 434.235 957.111C438.686 956.555 441.69 955.443 445.139 952.775C456.6 943.99 457.712 935.872 448.922 924.753C443.137 917.413 440.355 911.52 440.355 906.627C440.355 903.625 440.689 903.291 445.807 902.624C456.043 901.29 466.613 905.849 475.181 915.412C480.744 921.639 485.974 931.424 485.974 935.761C485.974 939.764 482.858 947.882 480.299 950.439C479.186 951.663 476.182 955.221 473.734 958.446C469.951 963.227 468.394 964.339 463.721 965.562C459.938 966.563 458.269 967.453 458.602 968.454C459.047 969.566 457.712 969.899 453.595 969.899C449.034 969.899 448.143 970.233 448.366 971.79C449.256 976.571 433.345 976.238 409.757 971.011C384.166 965.34 366.586 957.111 347.337 941.988L340.55 936.651L336.211 939.542C327.977 944.991 322.414 953.442 317.185 968.231C314.514 975.793 314.514 996.365 317.185 1002.48C318.297 1004.7 319.187 1006.59 319.41 1006.59C319.521 1006.59 322.414 1005.82 325.752 1004.93C334.431 1002.59 340.105 1004.26 345.78 1010.82C351.454 1017.16 353.234 1022.61 351.343 1028.17C349.006 1035.28 340.439 1039.51 324.528 1041.18C302.609 1043.51 301.496 1043.51 295.043 1041.62C279.577 1037.17 277.352 1031.84 277.463 1001.59C277.574 976.571 279.799 962.56 286.809 942.1C290.703 930.757 291.816 929.312 299.827 924.308C303.944 921.639 309.507 917.747 312.178 915.634L316.962 911.742L308.728 903.291C299.827 894.062 294.153 887.612 290.703 882.719C289.48 880.94 286.698 877.271 284.695 874.379C278.464 866.151 270.342 848.47 267.115 836.238C264.445 826.23 264 822.672 264 808.105C264 788.868 265.78 781.084 273.124 768.741C291.482 737.827 328.2 724.15 393.067 724.15C405.306 724.15 420.327 724.817 426.558 725.707C434.458 726.707 439.91 726.819 444.917 726.151C448.811 725.595 457.045 725.373 463.164 725.707C476.739 726.485 485.862 729.154 503.22 737.716C537.267 754.396 559.186 760.623 589.45 762.069C610.813 763.181 621.494 762.291 633.066 758.51C646.306 754.174 650.201 750.726 658.657 736.493C661.661 731.267 664.888 726.151 665.555 725.262C666.334 724.372 667.892 721.148 668.893 718.256C671.897 710.139 675.124 706.914 682.245 705.246C687.808 703.912 690.479 704.023 697.488 705.802C699.714 706.358 700.604 705.802 702.384 702.8C709.171 691.124 723.079 675.222 736.32 663.658C742.106 658.654 754.79 650.314 758.35 649.202C760.353 648.535 760.798 647.534 760.798 643.864C760.798 637.86 763.691 627.073 767.252 619.845C773.482 607.058 782.606 601.498 791.396 605.056ZM777.599 611.394C765.471 621.847 760.353 645.977 767.808 657.319C771.48 662.879 775.485 665.103 778.044 662.991C779.491 661.767 779.268 661.1 775.374 657.875C769.366 652.76 767.029 646.2 767.697 636.97C768.03 632.744 769.366 627.741 770.923 624.627C773.927 618.622 780.492 612.284 784.831 611.172C789.838 609.949 790.951 612.84 790.617 625.183C790.283 635.636 790.395 635.858 793.844 640.751C795.847 643.42 797.516 646.2 797.516 646.756C797.516 648.312 782.717 663.547 776.709 668.217C770.256 673.332 767.474 679.67 767.474 689.345C767.474 693.57 768.142 699.464 769.032 702.244C769.811 705.024 770.256 707.581 769.922 707.915C768.809 709.138 766.695 704.69 765.249 698.463C762.801 687.677 764.47 679.114 770.923 668.773C772.147 666.883 771.702 666.104 768.142 662.546C765.916 660.211 763.802 656.875 763.357 655.095C763.023 653.316 762.356 651.648 761.911 651.315C760.464 650.425 744.331 660.878 735.541 668.439C724.748 677.78 705.166 701.021 703.83 706.247C703.608 706.803 706.501 708.916 710.173 710.806C715.958 714.031 721.967 718.145 730.757 725.151C732.314 726.374 733.204 727.708 732.759 728.042C732.426 728.487 728.643 726.263 724.415 723.26C720.298 720.258 712.843 715.81 708.059 713.475C700.381 709.694 697.933 709.138 690.256 708.804C682.468 708.471 680.799 708.693 678.351 710.695C673.01 714.92 669.561 725.707 665.667 750.282C663.219 765.961 661.439 769.297 662.217 756.398C662.662 751.171 663.219 745.722 663.664 744.166C664.331 741.831 663.219 742.498 657.21 747.835C649.422 754.952 640.854 759.4 628.949 762.625C622.273 764.404 617.378 764.737 595.013 764.626C572.204 764.626 567.642 764.293 559.408 762.291C537.601 756.842 534.04 755.508 507.114 742.72C492.427 735.826 479.965 731.044 473.178 729.821C462.83 727.931 448.477 728.375 438.686 730.822C428.338 733.491 429.117 733.379 429.896 731.378C430.341 730.155 429.785 729.71 428.005 729.599C426.558 729.487 423.776 729.154 421.996 728.82C420.105 728.487 405.418 728.153 389.173 728.153C356.127 728.153 343.443 729.599 323.082 735.27C310.731 738.717 299.048 744.61 291.816 750.949C287.699 754.618 278.131 767.184 275.349 772.521C274.459 774.412 272.456 779.416 271.01 783.641C268.784 790.424 268.45 793.427 268.562 808.105C268.673 832.902 273.346 849.36 285.919 868.708C291.816 877.938 317.518 908.517 319.41 908.629C320.411 908.74 327.977 900.956 327.977 899.844C327.977 899.51 326.308 897.509 324.306 895.285C322.414 892.95 319.855 890.17 318.742 888.835C316.517 886.167 307.95 873.935 306.281 871.155C305.613 870.043 304.055 867.708 302.831 865.928C299.16 860.813 290.147 841.353 287.032 832.013C283.694 821.782 282.692 808.439 284.584 801.099C286.809 792.871 294.375 778.304 300.05 771.187C304.612 765.516 315.627 756.62 318.297 756.509C318.854 756.398 320.856 755.73 322.748 754.841C331.093 751.282 333.095 750.726 342.776 749.17C361.134 746.167 381.941 747.279 397.295 752.172C401.301 753.395 401.635 753.284 405.084 750.059C409.089 746.167 415.432 742.72 417.212 743.276C417.879 743.498 415.877 745.611 412.65 747.946C409.423 750.282 403.081 756.509 398.519 761.846C388.95 772.855 385.39 780.416 380.272 800.543C370.814 837.128 365.362 850.583 350.453 874.268C335.321 898.398 316.962 919.081 305.168 925.42C296.712 929.979 294.82 931.647 292.817 936.428C290.481 942.1 286.03 959.335 284.584 968.787C281.802 986.579 280.133 1000.7 280.133 1006.37C280.133 1015.6 282.359 1027.94 284.695 1031.17C287.811 1035.62 297.157 1039.18 305.947 1039.29C315.849 1039.4 317.852 1037.73 315.849 1030.84C314.069 1025.05 307.059 1017.71 303.388 1017.71C301.941 1017.71 299.048 1018.72 297.046 1019.94C292.818 1022.61 292.261 1021.05 296.378 1017.83C301.385 1013.93 307.059 1015.05 313.29 1021.16C317.073 1024.94 320.189 1030.84 320.189 1034.51C320.189 1036.28 321.079 1036.62 326.531 1036.62C335.098 1036.62 337.991 1035.73 337.991 1033.17C337.991 1028.61 332.984 1018.05 328.867 1013.93C325.196 1010.26 324.194 1009.71 321.19 1010.38C319.299 1010.71 316.294 1012.04 314.514 1013.38C309.73 1016.71 308.283 1015.49 312.178 1011.38L315.404 1007.82L313.29 1001.37C310.286 992.584 310.954 974.903 314.625 964.339C317.741 955.666 322.08 947.548 326.865 941.766C328.645 939.542 347.56 926.865 353.679 923.752C355.793 922.64 364.472 917.636 373.04 912.632C381.607 907.517 392.4 901.623 396.962 899.288C404.973 895.285 416.989 888.168 422.553 884.054C424.11 882.942 431.565 877.493 439.242 871.822C446.92 866.262 455.598 859.59 458.714 857.032C461.718 854.475 467.059 850.805 470.508 848.804C479.186 843.911 498.769 838.573 495.32 842.021C494.652 842.688 490.981 844.133 486.975 845.245C479.631 847.358 468.839 852.362 467.726 854.141C467.392 854.697 470.508 855.698 474.625 856.476C487.531 858.923 520.132 869.487 536.488 876.603C575.542 893.506 587.113 897.731 606.14 901.623C617.6 903.958 643.414 904.848 655.319 903.291C683.024 899.622 710.618 887.056 728.198 870.154L736.542 862.148L733.983 858.478C726.862 848.47 715.18 838.685 697.711 828.232C690.812 824.118 693.149 823.228 700.938 827.12C714.067 833.681 727.864 845.579 736.876 857.7C739.324 861.147 744.553 870.265 748.448 878.049C756.348 893.95 757.126 894.618 769.254 896.508C784.498 898.843 810.2 906.182 827.223 913.077C830.45 914.3 838.906 918.192 846.027 921.639C861.048 928.978 861.938 929.979 872.174 950.328C875.846 957.779 879.295 964.228 879.963 964.784C880.519 965.451 880.964 966.563 880.964 967.453C880.964 968.787 880.631 968.787 879.295 967.675C874.622 963.783 879.74 977.127 884.97 982.687C886.75 984.577 890.088 987.58 892.536 989.359C896.208 992.139 896.764 992.361 896.208 990.471C894.65 985.356 894.094 982.131 894.761 982.131C895.206 982.131 897.32 985.912 899.546 990.582C905.443 1002.7 914.455 1009.93 923.801 1009.93C928.586 1009.93 929.365 1008.26 929.365 998.811C929.253 991.583 928.808 989.359 926.917 986.913C925.025 984.355 923.801 983.799 920.018 984.021C916.68 984.133 915.457 983.799 915.457 982.576C915.457 981.464 916.903 981.019 920.463 981.019C924.469 981.019 926.138 981.575 928.141 983.799C931.034 986.913 933.259 994.252 933.259 1000.81C933.259 1004.82 933.481 1005.15 936.041 1004.7C940.602 1003.81 942.605 999.256 942.716 989.915C942.716 980.463 940.491 974.347 935.929 971.345C933.37 969.677 932.703 969.677 927.696 971.345C924.024 972.568 921.242 972.79 919.573 972.234C917.348 971.345 917.571 971.122 921.687 970.01C924.135 969.343 927.807 968.454 929.81 968.12C935.707 966.897 931.701 964.562 922.244 963.672L914.121 962.894L914.9 966.563C915.457 969.121 915.345 969.899 914.455 969.454C912.452 968.12 910.005 961.337 907.779 950.551C902.884 926.643 897.32 917.08 876.069 895.841C860.492 880.273 852.258 873.156 838.127 862.704C835.68 860.813 833.454 859.034 833.12 858.7C832.675 858.144 828.892 855.253 818.1 847.358C810.422 841.687 805.972 838.573 801.076 835.46C794.066 831.012 791.73 828.01 788.837 819.225C783.719 803.991 776.153 784.308 773.037 777.97C768.809 769.297 758.35 755.286 748.003 744.499C739.658 735.826 737.878 733.046 741.772 735.159C746.334 737.605 758.239 750.282 767.808 762.736C770.812 766.628 773.594 769.741 774.261 769.741C774.818 769.741 775.263 768.296 775.263 766.517C775.263 762.958 780.381 746.39 782.05 744.722C783.496 743.276 783.274 737.716 781.382 731.489C779.157 724.15 779.268 722.927 781.939 726.93C785.388 732.156 786.612 738.272 786.5 749.614L786.389 760.067L791.174 764.737C798.183 771.409 805.304 774.634 811.535 773.856C817.321 773.3 822.328 769.297 824.108 763.848C825.221 760.845 824.998 760.178 821.549 757.065C819.324 754.952 815.095 752.728 810.867 751.394C800.52 748.28 794.623 744.054 793.176 738.939C791.507 732.935 791.619 723.816 793.51 721.259C795.958 717.923 796.737 720.147 795.29 726.04C793.51 732.823 795.179 739.718 799.296 742.942C802.523 745.5 811.869 749.17 817.877 750.282C820.881 750.838 822.439 752.061 824.108 754.841C826.556 759.066 828.892 759.511 834.567 757.065C838.795 755.286 842.578 751.394 843.691 747.613C844.469 745.166 844.247 745.055 841.91 745.722C840.464 746.167 835.902 746.834 831.897 747.168L824.553 747.724L821.994 743.61C820.547 741.386 817.543 735.492 815.095 730.488C811.201 722.482 810.979 721.37 812.425 719.924C813.983 718.368 815.095 719.146 822.884 727.152C830.228 734.714 832.564 736.493 837.571 737.939C846.917 740.719 846.472 741.386 846.472 726.374C846.472 715.365 846.806 712.14 848.586 708.804C851.59 702.911 863.051 691.902 866.834 691.124C868.614 690.79 870.283 689.901 870.505 689.122C871.507 686.676 865.499 670.774 861.382 664.547C853.148 652.093 843.468 646.088 824.219 641.196C820.214 640.195 816.542 638.638 816.097 637.86C815.207 636.192 810.2 633.412 802.634 630.298L798.406 628.519L798.851 631.299C799.518 634.301 798.183 635.191 797.182 632.522C796.848 631.632 795.958 626.851 795.179 621.736C793.065 606.946 786.945 603.388 777.599 611.394ZM778.044 618.622C774.039 623.515 770.589 630.521 772.036 630.965C772.815 631.188 772.815 632.3 772.036 634.412C768.921 642.641 771.257 649.98 779.268 656.875L782.495 659.655L784.943 656.763C786.167 655.095 787.613 652.315 787.947 650.425C788.503 647.645 788.948 647.312 791.396 647.868C794.845 648.757 794.845 648.424 791.062 642.641C788.281 638.416 788.058 637.081 788.058 627.407C788.169 621.291 787.724 616.509 786.945 616.065C784.498 614.286 780.937 615.286 778.044 618.622ZM880.964 676.89C876.848 681.116 875.401 681.672 875.401 679.003C875.401 678.002 874.622 677.446 873.621 677.669C871.729 678.114 871.729 677.78 872.731 683.785C873.065 686.454 873.843 688.566 874.4 688.566C874.845 688.566 877.626 685.675 880.519 682.117C886.083 675.334 887.306 674.666 889.087 677.669C890.867 680.338 887.418 690.457 882.633 696.684C880.408 699.575 876.18 703.133 872.953 704.913C869.282 706.914 867.946 708.137 869.059 708.36C873.176 709.138 883.857 699.13 887.752 690.79C890.311 685.453 891.646 677.558 890.644 674.666C889.421 671.775 884.97 672.776 880.964 676.89ZM880.186 687.454C873.065 696.906 870.617 704.801 876.514 699.13C880.074 695.794 886.528 683.896 886.528 680.894C886.528 679.003 886.416 679.114 880.186 687.454ZM861.493 699.353C859.935 700.576 859.713 701.243 860.603 701.577C863.273 702.577 862.049 704.134 858.711 704.134C856.375 704.134 854.372 705.135 852.481 707.136C851.034 708.693 849.921 710.139 850.033 710.361C850.255 710.472 853.148 710.25 856.486 709.916C861.827 709.249 862.606 708.804 862.939 706.58C863.162 704.913 863.941 704.134 864.831 704.579C865.721 704.912 867.501 703.801 868.725 702.133C870.839 699.464 870.951 699.13 869.282 697.907C867.279 696.35 864.72 696.906 861.493 699.353ZM857.265 715.254C856.82 717.144 857.042 717.256 858.823 716.255C860.047 715.699 860.714 714.698 860.38 714.031C859.268 712.363 857.933 712.919 857.265 715.254ZM850.033 716.366C850.812 717.478 851.479 718.368 851.479 718.256C851.479 718.145 852.258 717.144 853.037 716.032C854.372 714.364 854.261 714.142 851.59 714.142C849.031 714.142 848.809 714.364 850.033 716.366ZM853.259 720.369C850.033 721.036 849.81 721.37 849.81 726.374C849.81 729.265 849.254 734.269 848.698 737.494C848.03 740.719 847.807 743.61 848.03 743.832C848.252 744.166 850.7 742.164 853.482 739.495C858.823 734.38 860.937 729.154 860.047 723.26C859.49 719.48 858.934 719.257 853.259 720.369ZM818.545 729.043C820.881 731.489 821.994 733.713 821.994 736.048C821.994 737.939 822.884 740.607 824.108 742.053C825.888 744.277 826.445 744.388 828.002 743.165C829.56 741.942 829.782 741.942 829.782 743.498C829.782 745.611 829.894 745.611 837.015 743.832L842.467 742.386L837.015 740.83C832.564 739.607 829.894 737.716 823.663 731.489C819.324 727.152 815.652 724.039 815.429 724.483C815.207 725.039 816.653 727.041 818.545 729.043ZM662.774 735.492C660.437 740.163 660.437 740.163 662.662 738.272C664.554 736.604 666.779 730.822 665.555 730.822C665.333 730.822 664.109 732.935 662.774 735.492ZM342.998 752.061C330.203 753.951 319.744 758.399 309.285 766.183C304.723 769.63 294.264 785.198 290.481 794.428C288.033 800.321 287.477 803.101 287.588 811.997C287.588 821.894 287.922 823.45 292.706 836.238C295.599 843.689 298.937 851.917 300.272 854.586C305.502 864.705 323.082 889.391 328.756 894.618C330.87 896.508 331.093 896.397 333.095 893.617C334.208 891.949 336.211 889.391 337.546 887.723C341.218 883.053 357.462 856.476 361.134 849.249C365.14 841.242 372.928 817.223 378.603 795.984C383.276 778.193 386.169 771.854 393.846 762.625C399.187 756.175 399.298 755.953 396.85 755.063C394.069 753.951 381.273 751.171 376.378 750.504C371.593 749.837 352.122 750.726 342.998 752.061ZM457.824 861.592L453.595 864.372L461.718 873.045C470.842 882.719 480.967 898.287 485.195 908.962C490.647 922.862 493.762 943.99 493.762 967.898V986.023L501.996 993.918C506.558 998.255 513.122 1004.04 516.683 1006.71C520.354 1009.37 523.47 1011.82 523.804 1012.15C525.584 1014.05 539.158 1023.61 544.276 1026.61C552.288 1031.17 565.194 1033.62 576.098 1032.84C580.66 1032.5 584.666 1031.84 585.111 1031.28C586.78 1029.61 584.554 1020.61 581.216 1015.6C576.877 1009.26 573.65 1008.6 566.529 1012.71C560.521 1016.27 559.297 1015.82 563.414 1011.82C567.642 1007.6 573.762 1005.93 577.878 1007.82C581.55 1009.6 588.894 1020.83 589.895 1026.28C590.785 1030.61 592.009 1030.84 595.57 1027.17C601.467 1021.38 597.239 1008.37 587.336 1001.92C583.108 999.033 576.766 999.367 571.87 1002.7C564.527 1007.71 555.069 1005.59 541.94 996.142C536.043 991.917 529.033 982.465 526.474 975.237C523.247 966.118 525.028 955.11 533.372 932.536C539.826 914.745 543.831 897.398 543.831 886.945V882.386L535.153 878.716C525.695 874.713 515.681 871.155 502.107 866.818C473.512 857.811 464.833 856.81 457.824 861.592ZM697.933 893.728C679.908 902.068 657.989 906.849 638.963 906.849H625.5L622.496 927.532C619.603 946.881 614.373 968.009 608.476 984.577C605.472 992.917 605.583 997.699 608.81 1004.15C610.257 1007.04 612.816 1013.93 614.485 1019.38C616.154 1024.94 618.268 1030.17 619.158 1031.28C621.383 1033.73 642.301 1035.06 654.985 1033.39C667.113 1031.84 672.231 1029.39 672.676 1024.94C673.455 1018.38 668.337 1006.93 663.33 1004.26C660.66 1002.93 657.655 1004.04 653.539 1007.82C652.315 1009.04 650.535 1009.93 649.644 1009.93C647.419 1009.93 653.094 1004.15 657.878 1001.48L661.661 999.478L657.878 996.921C650.312 991.805 644.415 995.253 645.305 1004.26C645.528 1007.15 645.305 1008.37 644.415 1008.04C642.301 1007.26 640.076 998.7 640.187 991.583C640.187 985.801 640.966 983.243 646.084 972.679C655.875 952.33 662.774 942.767 682.245 922.084C686.028 918.081 691.035 912.298 693.483 909.296C695.819 906.182 702.384 899.066 707.836 893.394L717.961 882.942L711.842 886.5C708.504 888.502 702.162 891.726 697.933 893.728ZM442.803 908.517C442.469 910.519 444.249 912.965 450.48 918.97C456.155 924.419 458.157 926.976 457.156 927.644C456.043 928.311 456.043 928.978 456.933 930.757C458.602 933.982 458.491 941.655 456.6 945.213C454.374 949.55 447.253 955.888 441.801 958.668C433.679 962.782 414.653 961.115 396.405 954.887C389.618 952.552 375.376 944.991 372.149 941.988C370.926 940.876 369.479 939.876 369.034 939.876C368.589 939.876 365.362 937.207 361.802 933.982C358.353 930.868 355.126 927.977 354.458 927.755C353.234 927.31 344.667 933.092 344.667 934.538C344.667 936.54 367.921 952.663 377.601 957.223C388.505 962.449 410.647 968.676 427.893 971.345C438.13 972.902 438.241 972.902 436.238 970.678C434.235 968.454 434.347 968.454 437.796 969.121C440.355 969.677 441.356 969.454 441.134 968.454C441.022 967.564 442.58 967.23 446.474 967.453C451.481 967.786 451.815 967.675 449.924 966.23C448.032 964.784 448.477 964.673 455.153 964.006C459.27 963.672 464.388 962.338 466.725 961.115L470.953 958.891L466.168 958.779C460.828 958.779 460.716 957.223 465.835 956.222C469.84 955.443 477.629 948.66 480.077 943.99C485.083 934.316 474.513 914.856 461.05 908.74C454.152 905.626 453.484 905.515 448.143 905.738C443.804 905.96 443.137 906.294 442.803 908.517ZM331.093 1011.49C336.322 1017.16 339.66 1023.27 340.773 1029.17C341.663 1033.5 342.33 1034.06 344.444 1031.95C348.339 1028.06 343.109 1012.93 336.878 1009.71C327.977 1005.26 325.974 1005.93 331.093 1011.49Z" fill="#282828"/>
<path d="M791.396 605.056C795.735 606.835 797.849 610.505 798.406 617.177C798.962 624.738 800.409 626.629 807.641 629.186C810.756 630.298 814.094 632.077 815.207 633.078C818.322 635.969 821.549 637.415 830.561 639.75C839.24 641.974 845.693 644.754 849.365 647.534C854.817 651.871 862.383 660.544 866.055 666.883C870.172 673.888 870.394 674.11 874.956 674.11C878.183 674.11 880.408 673.332 882.745 671.33C884.525 669.774 886.75 668.551 887.752 668.551C891.09 668.551 893.649 672.776 893.649 678.336C893.649 690.679 883.857 706.136 873.621 710.25C870.505 711.473 868.169 713.03 868.391 713.697C868.614 714.476 867.501 715.254 865.944 715.699C863.385 716.366 863.162 716.811 863.162 723.372C863.162 732.601 860.047 738.828 852.258 744.722C849.031 747.168 845.36 750.726 844.136 752.728C842.022 755.953 838.906 757.954 831.674 760.734C830.005 761.401 827.668 763.514 826.667 765.405C822.884 772.41 820.102 774.857 814.539 776.191C807.529 777.748 802.189 776.413 794.178 771.076C785.276 765.071 782.717 760.734 783.385 753.062L783.941 746.946L781.939 751.95C780.937 754.73 779.379 761.179 778.601 766.405L777.265 775.857L780.826 784.753C782.829 789.646 785.61 797.652 786.945 802.545C791.174 817.334 793.955 824.451 797.071 827.676C798.628 829.344 804.97 833.792 811.201 837.684C821.549 844.133 824.33 846.024 828.002 849.249C828.67 849.916 831.451 852.14 834.233 854.252C839.017 858.033 843.246 861.369 845.805 863.704C846.472 864.26 850.255 867.596 854.261 870.932C858.266 874.268 861.716 877.271 862.049 877.604C862.383 877.938 864.386 879.606 866.5 881.385C878.739 891.17 897.432 912.521 902.884 922.64C905.22 927.088 910.227 942.767 911.562 949.883C912.119 953.331 913.009 954.109 918.572 956.667C922.021 958.335 926.694 960.225 928.92 960.892C933.704 962.449 939.935 968.676 943.384 975.459C946.499 981.464 947.501 992.361 945.498 999.589C944.163 1004.26 943.495 1004.93 937.264 1007.82C933.481 1009.6 929.253 1011.82 927.807 1012.6C922.132 1015.94 909.337 1010.93 902.439 1002.59C900.102 999.812 896.319 996.365 894.094 995.03C882.522 988.136 875.735 978.906 874.177 968.12C872.953 959.224 863.273 937.874 858.266 932.87C847.474 922.084 781.605 898.732 762.022 898.732C755.68 898.732 753.455 896.73 749.338 887.612C744.553 876.826 741.549 870.487 739.88 867.819L738.211 865.261L733.204 870.043C730.534 872.711 725.305 878.716 721.744 883.387C718.072 888.168 714.734 892.06 714.289 892.06C712.732 892.171 699.825 905.07 695.263 911.409C692.593 914.967 684.804 924.085 677.906 931.647C665.11 945.658 655.541 959.558 647.975 975.57C645.75 980.241 643.636 985.578 643.302 987.469L642.523 991.027H647.642C655.096 991.027 658.434 992.584 664.22 999.033C672.454 1008.04 675.569 1014.6 675.569 1023.16C675.68 1030.06 675.569 1030.39 672.231 1032.39C666.557 1035.73 649.533 1038.06 635.625 1037.4C622.273 1036.73 616.71 1035.28 614.93 1031.95C614.262 1030.84 612.816 1026.17 611.703 1021.72C610.479 1017.27 608.031 1009.93 606.029 1005.48C601.8 995.475 602.023 992.25 607.809 974.792C614.485 955.11 618.713 935.205 621.161 913.188L621.828 906.961L613.149 905.515C591.453 902.068 568.421 894.618 548.171 884.499C547.726 884.387 547.169 887.723 546.724 892.06C545.278 906.182 541.495 921.75 536.599 933.204C532.705 942.433 529.812 951.44 528.032 960.003C526.808 965.896 526.919 967.342 528.699 972.346C533.372 985.467 541.606 994.141 555.18 1000.48C562.635 1003.93 564.527 1003.93 569.645 1000.48C579.102 994.029 585.222 994.697 593.678 1003.15C599.686 1009.26 601.689 1013.6 601.689 1020.94C601.689 1025.61 601.133 1026.94 598.685 1029.39C593.233 1034.39 588.449 1035.95 576.988 1036.4C554.847 1037.4 544.276 1033.5 519.909 1015.49C516.794 1013.16 509.005 1005.93 502.552 999.256L490.758 987.135L490.09 963.783C489.312 934.983 486.641 922.529 476.739 900.956C474.847 896.842 466.057 883.164 462.83 879.272C452.483 866.818 451.37 866.151 446.363 870.71C445.251 871.711 442.803 873.49 441.134 874.602C438.018 876.603 436.683 877.604 429.896 883.275C421.996 889.725 397.295 904.292 394.18 904.292C393.846 904.292 389.618 906.849 384.834 909.852C380.049 912.965 375.932 915.412 375.599 915.412C375.042 915.412 360.467 923.974 359.354 924.975C358.464 925.642 368.7 935.761 374.931 940.432C390.953 952.441 415.654 959.447 434.235 957.111C438.686 956.555 441.69 955.443 445.139 952.775C456.6 943.99 457.712 935.872 448.922 924.753C443.137 917.413 440.355 911.52 440.355 906.627C440.355 903.625 440.689 903.291 445.807 902.624C456.043 901.29 466.613 905.849 475.181 915.412C480.744 921.639 485.974 931.424 485.974 935.761C485.974 939.764 482.858 947.882 480.299 950.439C479.186 951.663 476.182 955.221 473.734 958.446C469.951 963.227 468.394 964.339 463.721 965.562C459.938 966.563 458.269 967.453 458.602 968.454C459.047 969.566 457.712 969.899 453.595 969.899C449.034 969.899 448.143 970.233 448.366 971.79C449.256 976.571 433.345 976.238 409.757 971.011C384.166 965.34 366.586 957.111 347.337 941.988L340.55 936.651L336.211 939.542C327.977 944.991 322.414 953.442 317.185 968.231C314.514 975.793 314.514 996.365 317.185 1002.48C318.297 1004.7 319.187 1006.59 319.41 1006.59C319.521 1006.59 322.414 1005.82 325.752 1004.93C334.431 1002.59 340.105 1004.26 345.78 1010.82C351.454 1017.16 353.234 1022.61 351.343 1028.17C349.006 1035.28 340.439 1039.51 324.528 1041.18C302.609 1043.51 301.496 1043.51 295.043 1041.62C279.577 1037.17 277.352 1031.84 277.463 1001.59C277.574 976.571 279.799 962.56 286.809 942.1C290.703 930.757 291.816 929.312 299.827 924.308C303.944 921.639 309.507 917.747 312.178 915.634L316.962 911.742L308.728 903.291C299.827 894.062 294.153 887.612 290.703 882.719C289.48 880.94 286.698 877.271 284.695 874.379C278.464 866.151 270.342 848.47 267.115 836.238C264.445 826.23 264 822.672 264 808.105C264 788.868 265.78 781.084 273.124 768.741C291.482 737.827 328.2 724.15 393.067 724.15C405.306 724.15 420.327 724.817 426.558 725.707C434.458 726.707 439.91 726.819 444.917 726.151C448.811 725.595 457.045 725.373 463.164 725.707C476.739 726.485 485.862 729.154 503.22 737.716C537.267 754.396 559.186 760.623 589.45 762.069C610.813 763.181 621.494 762.291 633.066 758.51C646.306 754.174 650.201 750.726 658.657 736.493C661.661 731.267 664.888 726.151 665.555 725.262C666.334 724.372 667.892 721.148 668.893 718.256C671.897 710.139 675.124 706.914 682.245 705.246C687.808 703.912 690.479 704.023 697.488 705.802C699.714 706.358 700.604 705.802 702.384 702.8C709.171 691.124 723.079 675.222 736.32 663.658C742.106 658.654 754.79 650.314 758.35 649.202C760.353 648.535 760.798 647.534 760.798 643.864C760.798 637.86 763.691 627.073 767.252 619.845C773.482 607.058 782.606 601.498 791.396 605.056ZM777.599 611.394C765.471 621.847 760.353 645.977 767.808 657.319C771.48 662.879 775.485 665.103 778.044 662.991C779.491 661.767 779.268 661.1 775.374 657.875C769.366 652.76 767.029 646.2 767.697 636.97C768.03 632.744 769.366 627.741 770.923 624.627C773.927 618.622 780.492 612.284 784.831 611.172C789.838 609.949 790.951 612.84 790.617 625.183C790.283 635.636 790.395 635.858 793.844 640.751C795.847 643.42 797.516 646.2 797.516 646.756C797.516 648.312 782.717 663.547 776.709 668.217C770.256 673.332 767.474 679.67 767.474 689.345C767.474 693.57 768.142 699.464 769.032 702.244C769.811 705.024 770.256 707.581 769.922 707.915C768.809 709.138 766.695 704.69 765.249 698.463C762.801 687.677 764.47 679.114 770.923 668.773C772.147 666.883 771.702 666.104 768.142 662.546C765.916 660.211 763.802 656.875 763.357 655.095C763.023 653.316 762.356 651.648 761.911 651.315C760.464 650.425 744.331 660.878 735.541 668.439C724.748 677.78 705.166 701.021 703.83 706.247C703.608 706.803 706.501 708.916 710.173 710.806C715.958 714.031 721.967 718.145 730.757 725.151C732.314 726.374 733.204 727.708 732.759 728.042C732.426 728.487 728.643 726.263 724.415 723.26C720.298 720.258 712.843 715.81 708.059 713.475C700.381 709.694 697.933 709.138 690.256 708.804C682.468 708.471 680.799 708.693 678.351 710.695C673.01 714.92 669.561 725.707 665.667 750.282C663.219 765.961 661.439 769.297 662.217 756.398C662.662 751.171 663.219 745.722 663.664 744.166C664.331 741.831 663.219 742.498 657.21 747.835C649.422 754.952 640.854 759.4 628.949 762.625C622.273 764.404 617.378 764.737 595.013 764.626C572.204 764.626 567.642 764.293 559.408 762.291C537.601 756.842 534.04 755.508 507.114 742.72C492.427 735.826 479.965 731.044 473.178 729.821C462.83 727.931 448.477 728.375 438.686 730.822C428.338 733.491 429.117 733.379 429.896 731.378C430.341 730.155 429.785 729.71 428.005 729.599C426.558 729.487 423.776 729.154 421.996 728.82C420.105 728.487 405.418 728.153 389.173 728.153C356.127 728.153 343.443 729.599 323.082 735.27C310.731 738.717 299.048 744.61 291.816 750.949C287.699 754.618 278.131 767.184 275.349 772.521C274.459 774.412 272.456 779.416 271.01 783.641C268.784 790.424 268.45 793.427 268.562 808.105C268.673 832.902 273.346 849.36 285.919 868.708C291.816 877.938 317.518 908.517 319.41 908.629C320.411 908.74 327.977 900.956 327.977 899.844C327.977 899.51 326.308 897.509 324.306 895.285C322.414 892.95 319.855 890.17 318.742 888.835C316.517 886.167 307.95 873.935 306.281 871.155C305.613 870.043 304.055 867.708 302.831 865.928C299.16 860.813 290.147 841.353 287.032 832.013C283.694 821.782 282.692 808.439 284.584 801.099C286.809 792.871 294.375 778.304 300.05 771.187C304.612 765.516 315.627 756.62 318.297 756.509C318.854 756.398 320.856 755.73 322.748 754.841C331.093 751.282 333.095 750.726 342.776 749.17C361.134 746.167 381.941 747.279 397.295 752.172C401.301 753.395 401.635 753.284 405.084 750.059C409.089 746.167 415.432 742.72 417.212 743.276C417.879 743.498 415.877 745.611 412.65 747.946C409.423 750.282 403.081 756.509 398.519 761.846C388.95 772.855 385.39 780.416 380.272 800.543C370.814 837.128 365.362 850.583 350.453 874.268C335.321 898.398 316.962 919.081 305.168 925.42C296.712 929.979 294.82 931.647 292.817 936.428C290.481 942.1 286.03 959.335 284.584 968.787C281.802 986.579 280.133 1000.7 280.133 1006.37C280.133 1015.6 282.359 1027.94 284.695 1031.17C287.811 1035.62 297.157 1039.18 305.947 1039.29C315.849 1039.4 317.852 1037.73 315.849 1030.84C314.069 1025.05 307.059 1017.71 303.388 1017.71C301.941 1017.71 299.048 1018.72 297.046 1019.94C292.818 1022.61 292.261 1021.05 296.378 1017.83C301.385 1013.93 307.059 1015.05 313.29 1021.16C317.073 1024.94 320.189 1030.84 320.189 1034.51C320.189 1036.28 321.079 1036.62 326.531 1036.62C335.098 1036.62 337.991 1035.73 337.991 1033.17C337.991 1028.61 332.984 1018.05 328.867 1013.93C325.196 1010.26 324.194 1009.71 321.19 1010.38C319.299 1010.71 316.294 1012.04 314.514 1013.38C309.73 1016.71 308.283 1015.49 312.178 1011.38L315.404 1007.82L313.29 1001.37C310.286 992.584 310.954 974.903 314.625 964.339C317.741 955.666 322.08 947.548 326.865 941.766C328.645 939.542 347.56 926.865 353.679 923.752C355.793 922.64 364.472 917.636 373.04 912.632C381.607 907.517 392.4 901.623 396.962 899.288C404.973 895.285 416.989 888.168 422.553 884.054C424.11 882.942 431.565 877.493 439.242 871.822C446.92 866.262 455.598 859.59 458.714 857.032C461.718 854.475 467.059 850.805 470.508 848.804C479.186 843.911 498.769 838.573 495.32 842.021C494.652 842.688 490.981 844.133 486.975 845.245C479.631 847.358 468.839 852.362 467.726 854.141C467.392 854.697 470.508 855.698 474.625 856.476C487.531 858.923 520.132 869.487 536.488 876.603C575.542 893.506 587.113 897.731 606.14 901.623C617.6 903.958 643.414 904.848 655.319 903.291C683.024 899.622 710.618 887.056 728.198 870.154L736.542 862.148L733.983 858.478C726.862 848.47 715.18 838.685 697.711 828.232C690.812 824.118 693.149 823.228 700.938 827.12C714.067 833.681 727.864 845.579 736.876 857.7C739.324 861.147 744.553 870.265 748.448 878.049C756.348 893.95 757.126 894.618 769.254 896.508C784.498 898.843 810.2 906.182 827.223 913.077C830.45 914.3 838.906 918.192 846.027 921.639C861.048 928.978 861.938 929.979 872.174 950.328C875.846 957.779 879.295 964.228 879.963 964.784C880.519 965.451 880.964 966.563 880.964 967.453C880.964 968.787 880.631 968.787 879.295 967.675C874.622 963.783 879.74 977.127 884.97 982.687C886.75 984.577 890.088 987.58 892.536 989.359C896.208 992.139 896.764 992.361 896.208 990.471C894.65 985.356 894.094 982.131 894.761 982.131C895.206 982.131 897.32 985.912 899.546 990.582C905.443 1002.7 914.455 1009.93 923.801 1009.93C928.586 1009.93 929.365 1008.26 929.365 998.811C929.253 991.583 928.808 989.359 926.917 986.913C925.025 984.355 923.801 983.799 920.018 984.021C916.68 984.133 915.457 983.799 915.457 982.576C915.457 981.464 916.903 981.019 920.463 981.019C924.469 981.019 926.138 981.575 928.141 983.799C931.034 986.913 933.259 994.252 933.259 1000.81C933.259 1004.82 933.481 1005.15 936.041 1004.7C940.602 1003.81 942.605 999.256 942.716 989.915C942.716 980.463 940.491 974.347 935.929 971.345C933.37 969.677 932.703 969.677 927.696 971.345C924.024 972.568 921.242 972.79 919.573 972.234C917.348 971.345 917.571 971.122 921.687 970.01C924.135 969.343 927.807 968.454 929.81 968.12C935.707 966.897 931.701 964.562 922.244 963.672L914.121 962.894L914.9 966.563C915.457 969.121 915.345 969.899 914.455 969.454C912.452 968.12 910.005 961.337 907.779 950.551C902.884 926.643 897.32 917.08 876.069 895.841C860.492 880.273 852.258 873.156 838.127 862.704C835.68 860.813 833.454 859.034 833.12 858.7C832.675 858.144 828.892 855.253 818.1 847.358C810.422 841.687 805.972 838.573 801.076 835.46C794.066 831.012 791.73 828.01 788.837 819.225C783.719 803.991 776.153 784.308 773.037 777.97C768.809 769.297 758.35 755.286 748.003 744.499C739.658 735.826 737.878 733.046 741.772 735.159C746.334 737.605 758.239 750.282 767.808 762.736C770.812 766.628 773.594 769.741 774.261 769.741C774.818 769.741 775.263 768.296 775.263 766.517C775.263 762.958 780.381 746.39 782.05 744.722C783.496 743.276 783.274 737.716 781.382 731.489C779.157 724.15 779.268 722.927 781.939 726.93C785.388 732.156 786.612 738.272 786.5 749.614L786.389 760.067L791.174 764.737C798.183 771.409 805.304 774.634 811.535 773.856C817.321 773.3 822.328 769.297 824.108 763.848C825.221 760.845 824.998 760.178 821.549 757.065C819.324 754.952 815.095 752.728 810.867 751.394C800.52 748.28 794.623 744.054 793.176 738.939C791.507 732.935 791.619 723.816 793.51 721.259C795.958 717.923 796.737 720.147 795.29 726.04C793.51 732.823 795.179 739.718 799.296 742.942C802.523 745.5 811.869 749.17 817.877 750.282C820.881 750.838 822.439 752.061 824.108 754.841C826.556 759.066 828.892 759.511 834.567 757.065C838.795 755.286 842.578 751.394 843.691 747.613C844.469 745.166 844.247 745.055 841.91 745.722C840.464 746.167 835.902 746.834 831.897 747.168L824.553 747.724L821.994 743.61C820.547 741.386 817.543 735.492 815.095 730.488C811.201 722.482 810.979 721.37 812.425 719.924C813.983 718.368 815.095 719.146 822.884 727.152C830.228 734.714 832.564 736.493 837.571 737.939C846.917 740.719 846.472 741.386 846.472 726.374C846.472 715.365 846.806 712.14 848.586 708.804C851.59 702.911 863.051 691.902 866.834 691.124C868.614 690.79 870.283 689.901 870.505 689.122C871.507 686.676 865.499 670.774 861.382 664.547C853.148 652.093 843.468 646.088 824.219 641.196C820.214 640.195 816.542 638.638 816.097 637.86C815.207 636.192 810.2 633.412 802.634 630.298L798.406 628.519L798.851 631.299C799.518 634.301 798.183 635.191 797.182 632.522C796.848 631.632 795.958 626.851 795.179 621.736C793.065 606.946 786.945 603.388 777.599 611.394ZM778.044 618.622C774.039 623.515 770.589 630.521 772.036 630.965C772.815 631.188 772.815 632.3 772.036 634.412C768.921 642.641 771.257 649.98 779.268 656.875L782.495 659.655L784.943 656.763C786.167 655.095 787.613 652.315 787.947 650.425C788.503 647.645 788.948 647.312 791.396 647.868C794.845 648.757 794.845 648.424 791.062 642.641C788.281 638.416 788.058 637.081 788.058 627.407C788.169 621.291 787.724 616.509 786.945 616.065C784.498 614.286 780.937 615.286 778.044 618.622ZM880.964 676.89C876.848 681.116 875.401 681.672 875.401 679.003C875.401 678.002 874.622 677.446 873.621 677.669C871.729 678.114 871.729 677.78 872.731 683.785C873.065 686.454 873.843 688.566 874.4 688.566C874.845 688.566 877.626 685.675 880.519 682.117C886.083 675.334 887.306 674.666 889.087 677.669C890.867 680.338 887.418 690.457 882.633 696.684C880.408 699.575 876.18 703.133 872.953 704.913C869.282 706.914 867.946 708.137 869.059 708.36C873.176 709.138 883.857 699.13 887.752 690.79C890.311 685.453 891.646 677.558 890.644 674.666C889.421 671.775 884.97 672.776 880.964 676.89ZM880.186 687.454C873.065 696.906 870.617 704.801 876.514 699.13C880.074 695.794 886.528 683.896 886.528 680.894C886.528 679.003 886.416 679.114 880.186 687.454ZM861.493 699.353C859.935 700.576 859.713 701.243 860.603 701.577C863.273 702.577 862.049 704.134 858.711 704.134C856.375 704.134 854.372 705.135 852.481 707.136C851.034 708.693 849.921 710.139 850.033 710.361C850.255 710.472 853.148 710.25 856.486 709.916C861.827 709.249 862.606 708.804 862.939 706.58C863.162 704.913 863.941 704.134 864.831 704.579C865.721 704.912 867.501 703.801 868.725 702.133C870.839 699.464 870.951 699.13 869.282 697.907C867.279 696.35 864.72 696.906 861.493 699.353ZM857.265 715.254C856.82 717.144 857.042 717.256 858.823 716.255C860.047 715.699 860.714 714.698 860.38 714.031C859.268 712.363 857.933 712.919 857.265 715.254ZM850.033 716.366C850.812 717.478 851.479 718.368 851.479 718.256C851.479 718.145 852.258 717.144 853.037 716.032C854.372 714.364 854.261 714.142 851.59 714.142C849.031 714.142 848.809 714.364 850.033 716.366ZM853.259 720.369C850.033 721.036 849.81 721.37 849.81 726.374C849.81 729.265 849.254 734.269 848.698 737.494C848.03 740.719 847.807 743.61 848.03 743.832C848.252 744.166 850.7 742.164 853.482 739.495C858.823 734.38 860.937 729.154 860.047 723.26C859.49 719.48 858.934 719.257 853.259 720.369ZM818.545 729.043C820.881 731.489 821.994 733.713 821.994 736.048C821.994 737.939 822.884 740.607 824.108 742.053C825.888 744.277 826.445 744.388 828.002 743.165C829.56 741.942 829.782 741.942 829.782 743.498C829.782 745.611 829.894 745.611 837.015 743.832L842.467 742.386L837.015 740.83C832.564 739.607 829.894 737.716 823.663 731.489C819.324 727.152 815.652 724.039 815.429 724.483C815.207 725.039 816.653 727.041 818.545 729.043ZM662.774 735.492C660.437 740.163 660.437 740.163 662.662 738.272C664.554 736.604 666.779 730.822 665.555 730.822C665.333 730.822 664.109 732.935 662.774 735.492ZM342.998 752.061C330.203 753.951 319.744 758.399 309.285 766.183C304.723 769.63 294.264 785.198 290.481 794.428C288.033 800.321 287.477 803.101 287.588 811.997C287.588 821.894 287.922 823.45 292.706 836.238C295.599 843.689 298.937 851.917 300.272 854.586C305.502 864.705 323.082 889.391 328.756 894.618C330.87 896.508 331.093 896.397 333.095 893.617C334.208 891.949 336.211 889.391 337.546 887.723C341.218 883.053 357.462 856.476 361.134 849.249C365.14 841.242 372.928 817.223 378.603 795.984C383.276 778.193 386.169 771.854 393.846 762.625C399.187 756.175 399.298 755.953 396.85 755.063C394.069 753.951 381.273 751.171 376.378 750.504C371.593 749.837 352.122 750.726 342.998 752.061ZM457.824 861.592L453.595 864.372L461.718 873.045C470.842 882.719 480.967 898.287 485.195 908.962C490.647 922.862 493.762 943.99 493.762 967.898V986.023L501.996 993.918C506.558 998.255 513.122 1004.04 516.683 1006.71C520.354 1009.37 523.47 1011.82 523.804 1012.15C525.584 1014.05 539.158 1023.61 544.276 1026.61C552.288 1031.17 565.194 1033.62 576.098 1032.84C580.66 1032.5 584.666 1031.84 585.111 1031.28C586.78 1029.61 584.554 1020.61 581.216 1015.6C576.877 1009.26 573.65 1008.6 566.529 1012.71C560.521 1016.27 559.297 1015.82 563.414 1011.82C567.642 1007.6 573.762 1005.93 577.878 1007.82C581.55 1009.6 588.894 1020.83 589.895 1026.28C590.785 1030.61 592.009 1030.84 595.57 1027.17C601.467 1021.38 597.239 1008.37 587.336 1001.92C583.108 999.033 576.766 999.367 571.87 1002.7C564.527 1007.71 555.069 1005.59 541.94 996.142C536.043 991.917 529.033 982.465 526.474 975.237C523.247 966.118 525.028 955.11 533.372 932.536C539.826 914.745 543.831 897.398 543.831 886.945V882.386L535.153 878.716C525.695 874.713 515.681 871.155 502.107 866.818C473.512 857.811 464.833 856.81 457.824 861.592ZM697.933 893.728C679.908 902.068 657.989 906.849 638.963 906.849H625.5L622.496 927.532C619.603 946.881 614.373 968.009 608.476 984.577C605.472 992.917 605.583 997.699 608.81 1004.15C610.257 1007.04 612.816 1013.93 614.485 1019.38C616.154 1024.94 618.268 1030.17 619.158 1031.28C621.383 1033.73 642.301 1035.06 654.985 1033.39C667.113 1031.84 672.231 1029.39 672.676 1024.94C673.455 1018.38 668.337 1006.93 663.33 1004.26C660.66 1002.93 657.655 1004.04 653.539 1007.82C652.315 1009.04 650.535 1009.93 649.644 1009.93C647.419 1009.93 653.094 1004.15 657.878 1001.48L661.661 999.478L657.878 996.921C650.312 991.805 644.415 995.253 645.305 1004.26C645.528 1007.15 645.305 1008.37 644.415 1008.04C642.301 1007.26 640.076 998.7 640.187 991.583C640.187 985.801 640.966 983.243 646.084 972.679C655.875 952.33 662.774 942.767 682.245 922.084C686.028 918.081 691.035 912.298 693.483 909.296C695.819 906.182 702.384 899.066 707.836 893.394L717.961 882.942L711.842 886.5C708.504 888.502 702.162 891.726 697.933 893.728ZM442.803 908.517C442.469 910.519 444.249 912.965 450.48 918.97C456.155 924.419 458.157 926.976 457.156 927.644C456.043 928.311 456.043 928.978 456.933 930.757C458.602 933.982 458.491 941.655 456.6 945.213C454.374 949.55 447.253 955.888 441.801 958.668C433.679 962.782 414.653 961.115 396.405 954.887C389.618 952.552 375.376 944.991 372.149 941.988C370.926 940.876 369.479 939.876 369.034 939.876C368.589 939.876 365.362 937.207 361.802 933.982C358.353 930.868 355.126 927.977 354.458 927.755C353.234 927.31 344.667 933.092 344.667 934.538C344.667 936.54 367.921 952.663 377.601 957.223C388.505 962.449 410.647 968.676 427.893 971.345C438.13 972.902 438.241 972.902 436.238 970.678C434.235 968.454 434.347 968.454 437.796 969.121C440.355 969.677 441.356 969.454 441.134 968.454C441.022 967.564 442.58 967.23 446.474 967.453C451.481 967.786 451.815 967.675 449.924 966.23C448.032 964.784 448.477 964.673 455.153 964.006C459.27 963.672 464.388 962.338 466.725 961.115L470.953 958.891L466.168 958.779C460.828 958.779 460.716 957.223 465.835 956.222C469.84 955.443 477.629 948.66 480.077 943.99C485.083 934.316 474.513 914.856 461.05 908.74C454.152 905.626 453.484 905.515 448.143 905.738C443.804 905.96 443.137 906.294 442.803 908.517ZM331.093 1011.49C336.322 1017.16 339.66 1023.27 340.773 1029.17C341.663 1033.5 342.33 1034.06 344.444 1031.95C348.339 1028.06 343.109 1012.93 336.878 1009.71C327.977 1005.26 325.974 1005.93 331.093 1011.49Z" stroke="#282828" stroke-width="2" mask="url(#path-3-outside-1_82_2212)"/>
<path d="M827.364 679.392L827.376 679.41L827.389 679.427C827.456 679.509 827.596 679.648 827.819 679.668C828.056 679.689 828.223 679.564 828.306 679.477C828.452 679.325 828.533 679.101 828.585 678.929C828.703 678.539 828.805 677.939 828.889 677.197C829.058 675.699 829.17 673.511 829.17 670.997C829.17 660.862 827.286 654.525 823.083 651.256C821.519 649.995 819.033 649.343 816.629 649.258C814.229 649.173 811.755 649.648 810.231 650.805C809.537 651.333 808.987 651.799 808.657 652.225C808.49 652.441 808.353 652.679 808.299 652.941C808.242 653.22 808.288 653.493 808.436 653.74C808.575 653.972 808.788 654.154 809.027 654.306C809.269 654.459 809.568 654.6 809.914 654.734C810.604 655.003 811.545 655.273 812.74 655.578C815.764 656.443 818.117 657.918 819.99 660.259C821.875 662.613 823.298 665.871 824.402 670.338L824.401 670.338L824.403 670.346C824.962 672.468 825.577 674.534 826.109 676.156C826.374 676.967 826.621 677.671 826.83 678.216C827.031 678.742 827.216 679.171 827.364 679.392ZM822.389 656.567L822.379 656.555L822.368 656.542C822.018 656.149 821.867 655.867 821.817 655.708C822.014 655.719 822.25 655.803 822.501 655.967C822.768 656.142 823.021 656.387 823.218 656.656C823.418 656.928 823.54 657.197 823.58 657.409C823.596 657.496 823.597 657.562 823.59 657.612C823.54 657.591 823.478 657.56 823.406 657.516C823.119 657.344 822.746 657.027 822.389 656.567ZM821.707 655.713C821.707 655.713 821.708 655.712 821.709 655.712L821.707 655.713ZM823.731 657.655C823.731 657.655 823.728 657.655 823.721 657.654C823.727 657.654 823.731 657.655 823.731 657.655Z" fill="#282828" stroke="#282828"/>
<path d="M814.157 672.032L814.157 672.032L814.149 672.026C813.446 671.558 812.577 671.124 811.74 670.807C810.915 670.494 810.068 670.274 809.421 670.274C809.222 670.274 809.03 670.288 808.86 670.324C808.695 670.359 808.504 670.425 808.349 670.565C808.174 670.723 808.087 670.936 808.092 671.165C808.096 671.369 808.17 671.559 808.258 671.721C808.433 672.045 808.755 672.425 809.192 672.863C809.636 673.308 810.23 673.845 810.982 674.486C813.355 676.644 815.423 679.9 816.623 683.495C817.678 686.823 818.642 689.144 819.373 690.187C819.554 690.446 819.757 690.681 819.986 690.817C820.106 690.889 820.263 690.951 820.444 690.945C820.638 690.94 820.803 690.859 820.929 690.742C821.148 690.537 821.244 690.223 821.297 689.943C821.355 689.636 821.381 689.249 821.381 688.789C821.381 687.689 821.087 686.21 820.626 684.611C820.163 683.001 819.519 681.234 818.796 679.543C818.073 677.853 817.267 676.23 816.475 674.911C815.697 673.614 814.892 672.543 814.157 672.032Z" fill="#282828" stroke="#282828"/>
<path d="M796.959 676.112C802.411 677.113 809.421 680.449 811.646 683.006C814.317 686.009 815.874 690.123 816.764 696.573C817.543 701.799 815.874 702.021 808.197 698.018C802.189 694.793 800.742 693.57 798.628 689.678C797.293 687.121 793.955 676.001 794.511 675.778C794.623 675.667 795.735 675.778 796.959 676.112ZM800.297 684.007C798.739 689.122 806.306 694.349 809.421 690.234C811.535 687.232 811.312 686.565 807.196 684.118C802.745 681.338 801.187 681.338 800.297 684.007ZM810.311 694.126C810.311 694.905 810.979 695.794 811.646 696.017C812.536 696.35 813.093 695.572 813.093 694.126C813.093 692.681 812.536 691.902 811.646 692.125C810.979 692.458 810.311 693.348 810.311 694.126Z" fill="#282828"/>
<path d="M796.959 676.112C802.411 677.113 809.421 680.449 811.646 683.006C814.317 686.009 815.874 690.123 816.764 696.573C817.543 701.799 815.874 702.021 808.197 698.018C802.189 694.793 800.742 693.57 798.628 689.678C797.293 687.121 793.955 676.001 794.511 675.778C794.623 675.667 795.735 675.778 796.959 676.112ZM800.297 684.007C798.739 689.122 806.306 694.349 809.421 690.234C811.535 687.232 811.312 686.565 807.196 684.118C802.745 681.338 801.187 681.338 800.297 684.007ZM810.311 694.126C810.311 694.905 810.979 695.794 811.646 696.017C812.536 696.35 813.093 695.572 813.093 694.126C813.093 692.681 812.536 691.902 811.646 692.125C810.979 692.458 810.311 693.348 810.311 694.126Z" stroke="#282828"/>
<path d="M815.203 713.777C815.48 713.332 815.781 712.748 816.106 712.015C817.115 709.885 818.24 706.745 818.587 705.022C818.893 703.798 818.989 702.878 818.865 702.29C818.803 701.997 818.659 701.663 818.326 701.503C817.985 701.338 817.639 701.448 817.394 701.586C816.909 701.861 816.384 702.484 815.875 703.304C815.352 704.147 814.804 705.268 814.294 706.625C813.673 708.234 813.254 709.729 813.017 710.979C812.782 712.214 812.716 713.255 812.837 713.937C812.892 714.252 813.01 714.633 813.312 714.845C813.485 714.966 813.689 715.011 813.895 714.979C814.086 714.95 814.252 714.859 814.389 714.755C814.661 714.551 814.93 714.213 815.203 713.777Z" fill="#282828" stroke="#282828"/>
<path d="M631.6 974.736L631.607 974.731L631.613 974.725C632.091 974.311 632.638 973.567 633.179 972.703C633.727 971.824 634.296 970.776 634.809 969.714C635.323 968.652 635.786 967.568 636.122 966.617C636.451 965.686 636.681 964.822 636.681 964.228C636.681 963.85 636.639 963.515 636.535 963.242C636.429 962.964 636.239 962.705 635.927 962.589C635.624 962.475 635.318 962.539 635.069 962.649C634.818 962.761 634.568 962.943 634.327 963.165C633.373 964.042 632.227 965.841 631.27 968.147C630.601 969.679 630.089 970.948 629.734 971.961C629.383 972.963 629.172 973.754 629.132 974.312C629.112 974.582 629.126 974.874 629.25 975.117C629.316 975.248 629.418 975.37 629.562 975.455C629.705 975.539 629.858 975.568 630 975.566C630.264 975.563 630.53 975.452 630.768 975.319C631.018 975.18 631.296 974.981 631.6 974.736Z" fill="#282828" stroke="#282828"/>
<path d="M628.875 999.965L628.875 999.965L628.868 999.971C624.201 1003.55 618.393 1003.66 615.408 1000.47C614.814 999.825 614.276 999.125 613.89 998.526C613.696 998.226 613.546 997.958 613.446 997.741C613.396 997.633 613.361 997.544 613.34 997.474C613.329 997.439 613.323 997.412 613.32 997.392C613.319 997.39 613.319 997.387 613.318 997.385C613.319 997.383 613.32 997.382 613.32 997.38C613.332 997.347 613.354 997.297 613.392 997.228C613.467 997.088 613.586 996.904 613.75 996.674C614.076 996.218 614.555 995.623 615.156 994.926C616.355 993.534 618.015 991.764 619.845 989.935C621.687 988.094 623.365 986.306 624.584 984.906C625.193 984.206 625.693 983.597 626.043 983.123C626.218 982.887 626.362 982.676 626.464 982.498C626.516 982.409 626.562 982.319 626.597 982.233C626.628 982.157 626.668 982.04 626.668 981.909C626.668 981.446 626.533 980.938 626.038 980.698C625.607 980.488 625.072 980.583 624.552 980.771C623.472 981.161 621.861 982.177 619.64 983.842C614.727 987.413 611.527 990.699 610.095 993.792C609.374 995.349 609.097 996.868 609.286 998.35C609.476 999.829 610.126 1001.23 611.199 1002.57C612.794 1004.63 615.719 1006.2 618.722 1007.01C621.721 1007.81 624.949 1007.9 627.165 1006.82C628.872 1006 630.873 1004.16 632.299 1002.41C633.015 1001.53 633.611 1000.64 633.957 999.888C634.129 999.512 634.253 999.14 634.285 998.799C634.317 998.461 634.262 998.076 633.976 997.79C633.8 997.614 633.575 997.582 633.431 997.58C633.275 997.577 633.111 997.607 632.955 997.648C632.64 997.732 632.258 997.892 631.841 998.1C631.003 998.519 629.949 999.174 628.875 999.965Z" fill="#282828" stroke="#282828"/>
</svg>
