<svg width="950" height="950" viewBox="0 0 950 950" fill="none" xmlns="http://www.w3.org/2000/svg">
<path d="M518.249 423.336C514.705 425.437 510.661 426.546 506.541 426.546C502.421 426.546 498.377 425.437 494.833 423.336C473.451 408.709 455.311 389.835 441.543 367.89C427.775 345.945 418.673 321.4 414.806 295.784C412.832 270.558 403.403 246.489 387.717 226.636L386.845 225.396C385.33 223.508 384.432 221.2 384.273 218.784C384.187 217.254 384.425 215.723 384.971 214.291C385.517 212.859 386.36 211.559 387.443 210.475C388.527 209.392 389.827 208.549 391.259 208.003C392.691 207.457 394.222 207.219 395.752 207.305C396.64 207.377 397.518 207.546 398.369 207.81C422.168 216.736 443.529 231.145 460.719 249.869L496.532 178.241C497.47 176.366 498.912 174.788 500.696 173.686C502.48 172.584 504.536 172 506.633 172C508.73 172 510.786 172.584 512.57 173.686C514.354 174.788 515.795 176.366 516.734 178.241L552.546 249.869C569.391 231.244 590.481 216.958 614.024 208.224C615.484 207.626 617.04 207.3 618.616 207.259C626.651 207.673 628.349 212.723 628.763 218.692C628.572 220.966 627.899 223.173 626.788 225.166C613.631 247.04 604.067 270.882 598.46 295.784C594.56 321.412 585.426 345.962 571.626 367.906C557.827 389.851 539.657 408.719 518.249 423.336ZM345.936 502.402H405.118C408.162 502.402 411.082 501.192 413.235 499.039C415.387 496.887 416.597 493.967 416.597 490.923C416.485 488.373 415.496 485.939 413.796 484.035L332.162 375.446C331.063 374.134 329.69 373.079 328.139 372.355C326.588 371.631 324.897 371.255 323.186 371.255C321.474 371.255 319.783 371.631 318.233 372.355C316.682 373.079 315.308 374.134 314.21 375.446L231.979 483.53C230.258 485.624 229.26 488.216 229.132 490.923C229.132 493.967 230.341 496.887 232.494 499.039C234.646 501.192 237.566 502.402 240.61 502.402H300.022L177.663 621.781C176.087 623.782 175.158 626.217 175 628.76C175.012 630.267 175.321 631.758 175.909 633.146C176.497 634.534 177.352 635.792 178.427 636.85C179.501 637.907 180.773 638.743 182.171 639.308C183.568 639.874 185.063 640.159 186.57 640.147H254.109L182.254 712.004C180.623 713.641 179.512 715.725 179.063 717.992C178.613 720.26 178.845 722.609 179.729 724.745C180.613 726.881 182.109 728.708 184.029 729.995C185.949 731.282 188.207 731.971 190.519 731.977H300.022V777.892H345.936V731.977H455.439C457.751 731.971 460.009 731.282 461.929 729.995C463.849 728.708 465.345 726.881 466.229 724.745C467.113 722.609 467.345 720.26 466.895 717.992C466.446 715.725 465.335 713.641 463.704 712.004L391.849 640.147H459.388C462.432 640.147 465.352 638.937 467.504 636.785C469.657 634.632 470.866 631.712 470.866 628.668C470.813 626.145 469.87 623.722 468.203 621.827L345.936 502.402ZM774.997 674.491C774.997 677.56 773.778 680.503 771.608 682.673C769.438 684.843 766.495 686.062 763.427 686.062H525.366C523.389 686.068 521.444 685.567 519.716 684.608C517.988 683.649 516.534 682.263 515.494 680.582C514.453 678.902 513.861 676.983 513.772 675.008C513.684 673.034 514.103 671.07 514.989 669.303L633.813 431.279C634.773 429.355 636.25 427.736 638.079 426.604C639.908 425.473 642.016 424.873 644.167 424.873C646.317 424.873 648.425 425.473 650.254 426.604C652.083 427.736 653.56 429.355 654.52 431.279L773.895 669.303C774.661 670.923 775.038 672.7 774.997 674.491ZM701.765 594.232L644.373 479.444L586.981 594.232H701.765Z" fill="#282828"/>
</svg>
