<svg width="1152" height="1152" viewBox="0 0 1152 1152" fill="none" xmlns="http://www.w3.org/2000/svg">
<g clip-path="url(#clip0_366_650)">
<path d="M369.729 57.6678L382.544 92.4164L427.273 75.9047L433.804 93.6486L389.074 110.16L408.543 162.899L390.553 169.553L344.961 46.3314L418.155 19.2227L424.809 37.213L369.729 57.6678Z" fill="#E1E7FE"/>
<path d="M559.737 100.302L505.889 105.231L498.988 135.544L479.396 137.392L509.955 2.46443L537.31 0L591.774 127.042L572.182 128.89L559.737 100.302ZM552.097 82.9282L525.111 20.578L510.078 86.7481L552.097 82.9282Z" fill="#E1E7FE"/>
<path d="M656.589 4.68221L639.954 135.051L620.978 132.586L637.612 2.21777L656.589 4.68221Z" fill="#E1E7FE"/>
<path d="M750.73 165.856L744.816 113.61L744.2 113.364L712.285 102.027L696.389 146.634L678.276 140.226L722.02 16.2651L772.048 33.8858C778.332 36.1038 783.507 38.9379 787.327 42.2649C791.27 45.5919 794.351 49.6582 796.692 54.3406C799.526 59.8856 801.128 65.4306 801.374 70.8524C801.621 76.3973 800.635 82.312 798.417 88.5963C797.555 91.184 796.322 93.6484 794.967 95.9896C793.611 98.3308 792.01 100.426 790.284 102.397C788.559 104.369 786.588 106.217 784.616 107.819C782.645 109.421 780.55 110.776 778.332 111.885C774.019 113.98 769.46 115.335 764.654 115.705L771.185 172.88L750.73 165.856ZM718.2 85.0229L750.607 96.4825C753.688 97.5915 756.891 97.9611 760.465 97.5915C764.038 97.345 767.242 96.236 770.076 94.3877C772.417 93.0323 774.512 91.1839 776.237 88.8427C777.962 86.5015 779.318 84.0371 780.303 81.5726C781.412 78.6153 781.905 75.5348 781.905 72.2078C781.905 68.8808 781.412 65.9235 780.18 63.0894C777.716 57.4212 773.28 53.4781 766.626 51.1369L734.219 39.6773L718.2 85.0229Z" fill="#E1E7FE"/>
<path d="M345.084 974.314L307.995 947.082L237.388 1043.57L221 1031.61L291.606 935.13L254.516 907.898L265.729 892.495L356.297 958.788L345.084 974.314Z" fill="#E1E7FE"/>
<path d="M411.624 1128.22L405.217 1073.02L404.477 1072.77L370.715 1060.94L354.203 1108.01L335.104 1101.23L381.188 970.495L434.051 989.101C440.705 991.442 446.126 994.4 450.193 997.973C454.259 1001.55 457.586 1005.74 460.05 1010.66C463.131 1016.46 464.733 1022.37 464.979 1028.16C465.226 1033.95 464.117 1040.24 461.775 1046.89C460.79 1049.6 459.557 1052.19 458.079 1054.66C456.6 1057.12 454.875 1059.34 453.027 1061.43C451.178 1063.53 449.207 1065.38 447.112 1067.1C445.017 1068.83 442.799 1070.18 440.458 1071.41C435.899 1073.63 431.093 1074.99 426.041 1075.48L433.065 1135.74L411.624 1128.22ZM377.122 1042.95L411.378 1055.02C414.582 1056.13 418.032 1056.5 421.728 1056.26C425.425 1055.89 428.875 1054.78 431.956 1052.93C434.42 1051.45 436.638 1049.6 438.487 1047.14C440.335 1044.67 441.814 1042.09 442.676 1039.38C443.785 1036.3 444.401 1032.97 444.401 1029.52C444.401 1026.07 443.785 1022.86 442.553 1019.91C439.965 1013.99 435.16 1009.8 428.136 1007.34L393.88 995.262L377.122 1042.95Z" fill="#E1E7FE"/>
<path d="M582.04 1119.72L525.111 1117.62L513.775 1148.3L492.95 1147.56L543.101 1010.66L572.059 1011.77L611.859 1152L591.035 1151.26L582.04 1119.72ZM576.371 1100.49L556.533 1031.61L531.888 1098.89L576.371 1100.49Z" fill="#E1E7FE"/>
<path d="M739.394 1001.67C747.034 1006.23 753.441 1012.39 758.493 1020.03C763.669 1027.67 767.612 1036.29 770.323 1046.03C772.91 1055.39 774.019 1064.76 773.526 1074.12C773.033 1083.61 770.939 1092.11 767.119 1099.51C763.299 1107.02 758 1113.31 751.346 1118.36C744.692 1123.41 736.929 1127.23 728.181 1129.7L682.589 1142.51L644.883 1009.06L690.598 996.125C699.593 993.537 708.219 992.798 716.475 993.66C724.977 994.646 732.493 997.234 739.394 1001.67ZM749.128 1091.01C753.934 1080.28 754.057 1066.85 749.498 1050.83C747.527 1043.69 744.692 1037.28 741.242 1031.74C737.792 1026.19 733.602 1021.75 728.55 1018.43C723.621 1015.22 718.446 1013.38 713.148 1012.88C707.849 1012.39 702.058 1013.01 696.02 1014.73L670.143 1022L697.375 1118.48L723.129 1111.21C729.043 1109.61 734.219 1107.02 738.655 1103.57C743.091 1100.25 746.541 1095.93 749.128 1091.01Z" fill="#E1E7FE"/>
<path d="M808.767 968.03L829.962 1000.44L877.402 969.262L887.876 985.158L840.435 1016.33L863.848 1052.07L920.899 1014.61L931.373 1030.5L857.317 1079.05L781.289 963.101L855.345 914.552L865.819 930.447L808.767 968.03Z" fill="#E1E7FE"/>
</g>
<g clip-path="url(#clip1_366_650)">
<path d="M790.992 547.688H781.685C781.685 547.688 732.73 453.853 732.259 453.231C729.821 449.149 725.372 446.407 720.271 446.407H604.439V392.275C604.439 382.632 597.203 374.812 587.559 374.812H564.858C555.214 374.812 546.814 382.632 546.814 392.275V446.407H433.892C428.791 446.407 424.342 449.149 421.904 453.231C421.433 453.851 372.478 547.688 372.478 547.688H364.917C355.313 547.688 346 554.672 346 564.277V575.627C346 623.365 384.7 662.064 432.438 662.064C480.175 662.064 518.875 623.365 518.875 575.627V564.277C518.875 554.672 512.472 547.688 502.867 547.688H493.56L455.376 474.347H546.814V720.563H480.446C470.803 720.563 462.402 728.38 462.402 738.025V760.725C462.402 770.37 470.803 778.188 480.446 778.188H675.107C684.751 778.188 691.988 770.37 691.988 760.725V738.025C691.988 728.38 684.75 720.563 675.107 720.563H604.439V474.347H698.787L660.603 547.688H653.042C643.438 547.688 634.125 554.672 634.125 564.277V575.627C634.125 623.365 672.825 662.064 720.563 662.064C768.3 662.064 807 623.365 807 575.627V564.277C807 554.672 800.597 547.688 790.992 547.688ZM462.062 547.688H403.976L433.019 491.908L462.062 547.688ZM692.101 547.688L721.144 491.908L750.187 547.688H692.101Z" fill="#E1E7FE"/>
</g>
<defs>
<clipPath id="clip0_366_650">
<rect width="710.496" height="1152" fill="white" transform="translate(221)"/>
</clipPath>
<clipPath id="clip1_366_650">
<rect width="461" height="461" fill="white" transform="translate(346 346)"/>
</clipPath>
</defs>
</svg>
