<svg width="950" height="950" viewBox="0 0 950 950" fill="none" xmlns="http://www.w3.org/2000/svg">
<path fill-rule="evenodd" clip-rule="evenodd" d="M524.071 271.786C489.071 213 404.893 210.357 366.214 266.786L345.036 297.714L315.75 283.25C311.709 281.248 307.157 280.517 302.693 281.153C298.229 281.789 294.062 283.762 290.741 286.812C287.421 289.862 285.101 293.847 284.089 298.241C283.077 302.635 283.419 307.233 285.071 311.428L326.178 416.286C328.187 421.418 332.024 425.625 336.95 428.098C341.875 430.57 347.541 431.133 352.857 429.678L463.036 399.536C467.401 398.34 471.3 395.845 474.215 392.382C477.13 388.92 478.923 384.652 479.357 380.147C479.791 375.641 478.845 371.111 476.644 367.155C474.444 363.2 471.093 360.007 467.036 358L442.536 345.893L462.571 314.464C463.683 312.713 465.186 311.245 466.962 310.174C468.737 309.103 470.738 308.459 472.805 308.293C474.872 308.126 476.949 308.442 478.873 309.216C480.798 309.989 482.516 311.199 483.893 312.75L524 358C527.692 362.145 532.795 364.766 538.315 365.351C543.835 365.937 549.375 364.444 553.854 361.165C558.333 357.886 561.43 353.056 562.54 347.618C563.649 342.179 562.693 336.522 559.857 331.75L524.071 271.786ZM590.143 391.714C584.703 390.899 579.153 392.122 574.559 395.147C569.965 398.172 566.65 402.788 565.25 408.107L536.25 518.571C535.099 522.95 535.307 527.575 536.846 531.833C538.385 536.091 541.183 539.78 544.868 542.411C548.553 545.042 552.95 546.49 557.477 546.563C562.004 546.637 566.446 545.332 570.214 542.821L592.964 527.643L610.178 560.75C611.132 562.587 611.646 564.619 611.682 566.688C611.718 568.757 611.274 570.806 610.384 572.675C609.495 574.543 608.185 576.18 606.557 577.458C604.929 578.735 603.026 579.617 601 580.036L541.75 592.178C536.355 593.34 531.581 596.459 528.35 600.933C525.12 605.407 523.661 610.919 524.256 616.406C524.851 621.892 527.457 626.964 531.571 630.642C535.686 634.32 541.017 636.343 546.536 636.321L616.393 635.357C684.786 634.393 729.178 562.857 699.607 501.143L683.428 467.286L710.571 449.178C714.306 446.678 717.199 443.109 718.872 438.938C720.545 434.766 720.919 430.187 719.947 425.8C718.974 421.412 716.7 417.42 713.421 414.346C710.143 411.272 706.013 409.259 701.571 408.571L590.214 391.75L590.143 391.714ZM469.214 625.714C472.644 621.404 474.359 615.978 474.03 610.479C473.7 604.981 471.349 599.798 467.428 595.928L386.286 515.571C383.068 512.376 378.954 510.237 374.49 509.438C370.027 508.639 365.426 509.219 361.3 511.1C357.174 512.98 353.718 516.073 351.393 519.966C349.069 523.859 347.985 528.368 348.286 532.893L350.071 560.143L312.786 558.536C310.71 558.45 308.682 557.882 306.864 556.877C305.045 555.873 303.485 554.459 302.307 552.747C301.129 551.036 300.366 549.074 300.077 547.016C299.788 544.959 299.982 542.862 300.643 540.893L319.821 483.571C321.616 478.289 321.367 472.526 319.124 467.418C316.882 462.309 312.807 458.226 307.704 455.972C302.6 453.718 296.838 453.458 291.551 455.241C286.265 457.024 281.838 460.722 279.143 465.607L245.071 526.607C211.714 586.321 251.5 660.536 319.714 665.786L357.107 668.678L359.214 701.25C359.503 705.745 361.146 710.047 363.925 713.591C366.705 717.136 370.492 719.756 374.788 721.109C379.084 722.461 383.69 722.482 387.998 721.168C392.307 719.855 396.117 717.269 398.928 713.75L469.214 625.714Z" fill="#282828"/>
</svg>
