<svg width="1152" height="1152" viewBox="0 0 1152 1152" fill="none" xmlns="http://www.w3.org/2000/svg">
<g clip-path="url(#clip0_152_515)">
<path d="M244.857 292.761L193.012 284.407L192.644 285.021L173.233 312.663L211.809 339.814L200.752 355.416L93.6235 279.984L124.091 236.739C127.9 231.211 132.077 227.157 136.377 224.331C140.677 221.505 145.345 219.663 150.505 218.557C156.648 217.328 162.299 217.328 167.704 218.557C172.987 219.785 178.393 222.365 183.921 226.297C186.132 227.894 188.221 229.614 190.064 231.579C191.907 233.545 193.504 235.634 194.978 237.845C196.452 240.056 197.681 242.391 198.664 244.725C199.646 247.059 200.383 249.516 200.875 251.85C201.735 256.519 201.735 261.187 200.875 265.978L257.51 275.07L244.857 292.761ZM158.49 302.22L178.27 274.21C180.113 271.63 181.341 268.558 181.955 265.118C182.57 261.679 182.447 258.239 181.464 254.922C180.85 252.342 179.621 249.885 177.778 247.55C176.058 245.216 174.093 243.251 171.881 241.776C169.301 239.933 166.476 238.582 163.282 237.722C160.21 236.862 157.139 236.494 154.068 236.985C148.048 237.722 143.011 241.039 138.957 246.813L119.177 274.824L158.49 302.22Z" fill="black"/>
<path d="M219.918 157.376L243.014 185.755L284.662 151.97L295.964 165.975L254.317 199.76L279.747 231.211L329.872 190.546L341.174 204.552L276.185 257.256L193.627 155.533L258.617 102.829L269.919 116.834L219.918 157.376Z" fill="black"/>
<path d="M457.762 107.989C459.113 119.537 457.516 129.857 453.093 139.071C447.319 151.847 436.508 161.553 420.537 168.064C411.692 171.75 402.846 173.347 394.246 172.978C385.647 172.61 377.538 170.275 369.921 165.976C362.796 161.676 356.653 156.393 351.37 150.127C346.088 143.862 341.911 136.736 338.594 128.751C330.977 110.2 329.38 93.4918 333.802 78.6265C336.382 70.1496 340.682 62.7784 346.579 56.5129C352.476 50.2473 359.847 45.3332 368.57 41.7704C384.664 35.1363 399.16 34.522 412.06 39.9276C423.117 43.8589 432.208 50.9844 439.579 61.427L422.994 71.2553C419.308 66.3412 415.131 62.6555 410.586 60.0756C400.143 53.8101 388.595 53.3187 375.818 58.4785C372.993 59.7071 370.29 61.0584 367.71 62.7784C365.13 64.4983 362.919 66.464 360.83 68.5525C358.864 70.641 357.144 73.0981 355.67 75.678C354.196 78.258 353.213 80.9608 352.476 83.7864C349.405 93.9833 350.756 106.146 356.653 120.397C359.479 126.908 362.796 132.682 366.358 137.596C369.921 142.511 374.344 146.442 379.381 149.39C384.664 152.707 390.438 154.427 396.458 154.427C402.477 154.55 408.743 153.199 415.131 150.619C420.783 148.285 425.574 144.968 429.383 140.668C433.191 136.368 435.894 131.331 437.368 125.557C438.597 120.765 438.965 115.851 438.474 110.569L457.762 107.989Z" fill="black"/>
<path d="M580.001 0L543.882 81.0835L549.411 134.893L530.246 136.859L524.717 83.0492L472.75 10.934L494.864 8.72262L532.211 60.3212L558.011 2.33422L580.001 0Z" fill="black"/>
<path d="M729.76 113.885C724.601 124.328 717.721 132.191 708.875 137.473C697.081 145.09 682.707 147.302 665.754 144.108C656.294 142.388 648.063 138.948 641.06 134.034C634.057 129.119 628.529 122.731 624.475 114.991C620.789 107.497 618.578 99.7573 617.595 91.6489C616.612 83.5406 616.981 75.1865 618.578 66.8325C622.263 47.1759 630.003 32.1877 641.797 22.1137C648.677 16.4624 656.171 12.5311 664.525 10.5654C672.879 8.59979 681.725 8.47693 691.061 10.1969C708.138 13.3911 720.669 20.7623 728.655 32.3106C735.78 41.6475 739.589 52.5814 740.08 65.2354L720.792 64.4983C720.301 58.3556 718.949 52.95 716.492 48.2816C711.087 37.3476 701.75 30.7135 688.236 28.1335C685.164 27.5193 682.093 27.2736 679.145 27.3964C676.073 27.5193 673.125 27.8878 670.299 28.625C667.474 29.3621 664.771 30.3449 662.068 31.6963C659.488 33.0477 657.154 34.7676 655.065 36.7333C646.957 43.6131 641.429 54.67 638.603 69.781C637.497 76.9065 637.006 83.4178 637.374 89.4376C637.743 95.4574 639.217 101.109 641.92 106.514C644.623 112.166 648.431 116.711 653.468 120.028C658.505 123.468 664.402 125.679 671.159 127.031C677.179 128.137 683.076 128.014 688.604 126.417C694.133 124.819 699.047 122.117 703.47 118.063C707.155 114.745 710.104 110.814 712.561 106.146L729.76 113.885Z" fill="black"/>
<path d="M826.815 57.0041L775.831 157.867L828.904 184.649L820.795 200.743L750.769 165.361L809.861 48.4043L826.815 57.0041Z" fill="black"/>
<path d="M930.872 143.37L906.67 170.767L946.843 206.272L934.927 219.786L894.754 184.281L867.971 214.626L916.376 257.379L904.459 270.893L841.681 215.486L928.415 117.203L991.194 172.61L979.277 186.124L930.872 143.37Z" fill="black"/>
<path d="M1070.56 310.574C1068.47 318.683 1064.54 326.054 1059.01 332.811C1053.48 339.445 1046.6 345.342 1038.62 350.379C1030.75 355.293 1022.64 358.733 1013.92 360.699C1005.2 362.787 996.968 363.033 989.228 361.681C981.365 360.207 974.363 357.013 967.974 352.345C961.586 347.676 956.057 341.656 951.635 334.408L927.924 296.446L1038.98 226.911L1062.82 264.996C1067.49 272.49 1070.56 280.107 1071.91 287.846C1073.14 295.586 1072.77 303.203 1070.56 310.574ZM992.176 343.008C1003.23 344.482 1015.4 341.042 1028.66 332.688C1034.56 329.002 1039.6 324.825 1043.77 320.157C1047.95 315.488 1050.9 310.574 1052.5 305.169C1054.09 299.886 1054.46 294.726 1053.48 289.689C1052.5 284.775 1050.41 279.738 1047.21 274.578L1033.7 253.079L953.477 303.449L966.868 324.825C969.94 329.74 973.625 333.794 977.925 336.865C982.225 340.059 986.894 342.025 992.176 343.008Z" fill="black"/>
<path d="M112.789 794.127C107.138 791.793 102.224 788.353 98.1694 783.807C94.1152 779.262 90.7981 773.856 88.4639 767.591L75.6871 734.297L29.2484 752.234L22 733.314L150.996 683.681L171.022 735.771C173.602 742.406 174.83 748.425 174.707 753.831C174.707 759.236 173.602 764.519 171.39 769.556C168.933 775.699 165.616 780.613 161.316 784.544C157.016 788.476 151.611 791.67 145.099 794.25C142.397 795.233 139.694 796.093 136.868 796.461C134.043 796.953 131.217 797.075 128.514 797.075C125.689 797.075 122.986 796.707 120.283 796.215C117.58 795.847 115.123 795.11 112.789 794.127ZM138.588 774.962C141.66 773.733 144.608 772.136 147.188 769.925C149.891 767.713 151.856 765.256 153.208 762.308C156.033 756.534 156.156 750.145 153.454 743.265L140.431 709.481L93.2552 727.54L106.278 761.325C107.506 764.519 109.472 767.345 112.052 769.925C114.755 772.505 117.703 774.348 121.143 775.453C123.846 776.436 126.671 776.805 129.743 776.682C133.06 776.559 135.885 775.945 138.588 774.962Z" fill="black"/>
<path d="M164.388 928.283L129.497 883.442L98.7836 894.499L86.0068 878.159L222.62 828.649L240.311 851.377L158.736 971.774L146.082 955.434L164.388 928.283ZM175.322 911.698L215.249 852.36L148.171 876.685L175.322 911.698Z" fill="black"/>
<path d="M331.469 1051.63C322.132 1059.61 312.181 1064.28 301.37 1065.63C286.75 1068.09 271.885 1064.16 256.897 1054.09C248.543 1048.43 241.909 1041.68 237.24 1033.94C232.449 1026.2 229.746 1017.72 229.132 1008.51C228.763 999.784 229.746 991.307 232.203 982.953C234.66 974.599 238.469 966.737 243.506 959.243C255.3 941.674 269.059 930.495 284.662 925.703C293.63 923.001 302.598 922.509 311.567 923.983C320.535 925.581 329.135 929.143 337.366 934.672C352.6 944.991 361.568 957.277 364.517 971.774C367.588 983.69 366.605 995.976 361.814 1008.51L343.386 999.661C345.474 993.519 346.334 987.745 345.966 982.216C345.351 969.439 338.963 958.997 327.046 950.888C324.343 949.046 321.518 947.571 318.446 946.343C315.498 945.114 312.427 944.254 309.355 943.763C306.284 943.272 303.213 943.149 300.141 943.394C297.07 943.64 294.121 944.254 291.173 945.36C280.485 948.677 270.533 957.031 261.442 970.422C257.388 976.811 254.194 982.953 251.983 988.973C249.771 994.993 248.911 1001.14 249.28 1007.4C249.525 1014.04 251.368 1019.93 254.808 1025.34C258.248 1030.74 263.039 1035.41 269.059 1039.47C274.465 1043.15 280.116 1045.36 286.136 1046.22C292.156 1047.08 298.053 1046.47 304.073 1044.38C308.987 1042.78 313.532 1040.08 317.832 1036.64L331.469 1051.63Z" fill="black"/>
<path d="M459.482 1138.36L427.663 1066.49L413.78 1062.56L397.318 1120.67L377.784 1115.14L415.377 982.216L434.911 987.744L418.94 1044.01L432.577 1047.82L491.301 1003.59L515.503 1010.47L447.688 1061.95L483.93 1145.24L459.482 1138.36Z" fill="black"/>
<path d="M628.037 1118.22L571.156 1120.06L561.942 1151.39L541.18 1152L581.721 1012.44L610.592 1011.58L659.734 1148.31L638.971 1148.93L628.037 1118.22ZM621.035 1099.54L596.587 1032.34L576.684 1100.89L621.035 1099.54Z" fill="black"/>
<path d="M821.41 1031.36C824.481 1039.96 826.201 1048.56 826.447 1057.16C826.693 1065.88 825.464 1073.99 822.761 1081.48C819.813 1090.08 814.899 1097.45 808.387 1103.47C801.753 1109.49 793.768 1114.16 784.431 1117.6C774.848 1121.04 765.511 1122.39 756.42 1121.66C747.206 1120.92 738.729 1118.09 730.744 1113.06C716.493 1103.72 706.173 1089.96 699.539 1071.9C692.536 1052.61 691.676 1035.29 696.959 1019.93C699.908 1011.09 704.699 1003.59 711.21 997.081C717.721 990.693 725.707 985.779 735.167 982.339C752.12 976.196 767.477 976.073 781.114 982.216C791.188 986.024 799.542 992.659 806.053 1002L787.011 1012.93C782.711 1007.89 778.411 1004.45 773.988 1002.61C769.566 1000.28 764.774 998.924 759.615 998.678C754.455 998.433 749.295 999.293 744.012 1001.26C737.624 1003.59 732.095 1006.91 727.427 1011.46C722.758 1015.76 719.564 1020.91 717.844 1026.93C714.404 1037.13 715.387 1049.54 720.793 1064.28C726.075 1078.78 733.447 1089.1 742.661 1095C747.698 1098.31 753.226 1100.28 759.369 1100.77C765.512 1101.26 771.531 1100.4 777.674 1098.19C789.222 1094.01 797.085 1086.89 801.262 1077.18C803.105 1072.76 804.088 1068.21 804.333 1063.3C804.579 1058.39 804.088 1053.59 802.859 1048.93L774.234 1059.37L768.706 1044.26L819.199 1025.83C819.444 1026.2 819.69 1026.93 820.059 1027.92C820.304 1028.53 820.796 1029.76 821.41 1031.36Z" fill="black"/>
<path d="M842.786 928.652L920.921 1042.66L904.336 1053.96L826.201 939.954L842.786 928.652Z" fill="black"/>
<path d="M1014.29 906.415L937.629 838.109L951.143 822.875L1054.34 914.892L1040.83 930.126L918.833 912.558L995.493 980.865L981.979 996.099L878.782 904.081L892.296 888.847L1014.29 906.415Z" fill="black"/>
<path d="M1085.79 706.901C1094.14 710.463 1101.64 715.009 1108.15 720.783C1114.66 726.557 1119.82 732.946 1123.51 739.948C1127.81 748.057 1129.9 756.534 1129.9 765.379C1129.77 774.347 1127.93 783.316 1124 792.53C1120.07 801.867 1114.78 809.729 1108.03 815.995C1101.27 822.26 1093.28 826.56 1084.32 829.017C1067.73 833.071 1050.65 831.474 1032.96 824.103C1014.04 816.241 1000.65 805.061 993.036 790.687C988.614 782.579 986.156 773.979 985.911 764.765C985.665 755.551 987.385 746.46 991.316 737.123C998.319 720.415 1008.64 709.112 1022.4 703.215C1031.98 698.424 1042.55 696.704 1053.85 698.301L1048.93 719.677C1042.42 719.432 1036.9 720.292 1032.47 722.257C1027.68 723.854 1023.5 726.557 1019.94 730.12C1016.26 733.806 1013.43 738.106 1011.22 743.265C1008.64 749.531 1007.41 755.919 1007.41 762.308C1007.41 768.696 1009.01 774.593 1012.32 779.876C1017.48 789.336 1027.31 797.075 1041.81 803.095C1056.06 809.115 1068.59 810.589 1079.16 807.764C1085.05 806.289 1090.21 803.587 1094.64 799.41C1099.18 795.233 1102.62 790.196 1105.08 784.176C1109.87 772.75 1109.99 762.185 1105.57 752.602C1103.6 748.302 1100.9 744.371 1097.46 740.931C1094.02 737.491 1090.09 734.543 1085.91 732.209L1074.12 760.342L1059.25 754.076L1080.02 704.566C1080.39 704.689 1081.12 704.935 1082.11 705.304C1082.97 705.795 1084.19 706.286 1085.79 706.901Z" fill="black"/>
</g>
<path fill-rule="evenodd" clip-rule="evenodd" d="M616.052 412.709C587.842 365.328 519.994 363.198 488.819 408.679L471.749 433.608L448.145 421.95C444.888 420.336 441.219 419.747 437.621 420.26C434.023 420.772 430.664 422.362 427.988 424.821C425.311 427.279 423.442 430.491 422.626 434.032C421.81 437.574 422.086 441.28 423.418 444.661L456.55 529.176C458.169 533.313 461.262 536.704 465.232 538.697C469.202 540.69 473.768 541.144 478.053 539.971L566.857 515.676C570.376 514.712 573.518 512.701 575.867 509.91C578.217 507.119 579.662 503.68 580.012 500.049C580.362 496.417 579.599 492.765 577.826 489.577C576.052 486.389 573.351 483.816 570.081 482.198L550.334 472.44L566.483 447.108C567.379 445.697 568.59 444.513 570.021 443.65C571.453 442.787 573.065 442.268 574.731 442.134C576.397 442 578.071 442.255 579.622 442.878C581.173 443.502 582.558 444.477 583.668 445.727L615.994 482.198C618.97 485.539 623.083 487.652 627.532 488.123C631.981 488.595 636.447 487.392 640.057 484.749C643.667 482.107 646.163 478.213 647.057 473.83C647.952 469.446 647.181 464.887 644.895 461.041L616.052 412.709ZM669.305 509.372C664.921 508.715 660.448 509.7 656.745 512.139C653.042 514.577 650.37 518.297 649.242 522.584L625.868 611.619C624.94 615.148 625.108 618.876 626.348 622.308C627.589 625.74 629.844 628.713 632.814 630.834C635.784 632.954 639.328 634.121 642.977 634.18C646.625 634.239 650.206 633.187 653.243 631.164L671.579 618.93L685.454 645.615C686.222 647.095 686.637 648.733 686.666 650.401C686.695 652.068 686.337 653.72 685.62 655.226C684.903 656.732 683.847 658.052 682.535 659.081C681.223 660.11 679.69 660.822 678.056 661.159L630.301 670.946C625.952 671.882 622.105 674.396 619.501 678.002C616.897 681.608 615.721 686.051 616.2 690.473C616.68 694.895 618.78 698.983 622.097 701.948C625.413 704.912 629.71 706.543 634.158 706.525L690.463 705.748C745.587 704.971 781.368 647.313 757.533 597.571L744.494 570.282L766.371 555.688C769.381 553.673 771.713 550.796 773.061 547.434C774.409 544.072 774.711 540.381 773.927 536.845C773.143 533.308 771.31 530.091 768.668 527.613C766.025 525.135 762.696 523.513 759.117 522.959L669.363 509.401L669.305 509.372ZM571.837 697.976C574.601 694.502 575.984 690.128 575.718 685.696C575.452 681.264 573.557 677.087 570.398 673.968L504.996 609.201C502.403 606.625 499.087 604.901 495.489 604.257C491.892 603.614 488.183 604.081 484.858 605.596C481.532 607.112 478.747 609.605 476.873 612.743C474.999 615.881 474.126 619.515 474.368 623.162L475.808 645.125L445.755 643.83C444.082 643.761 442.448 643.303 440.982 642.493C439.517 641.684 438.259 640.544 437.31 639.164C436.36 637.785 435.745 636.204 435.512 634.545C435.279 632.887 435.435 631.197 435.968 629.61L451.426 583.409C452.873 579.151 452.672 574.506 450.864 570.389C449.057 566.271 445.773 562.98 441.659 561.164C437.546 559.347 432.901 559.137 428.641 560.574C424.38 562.012 420.812 564.992 418.639 568.929L391.178 618.095C364.292 666.225 396.359 726.042 451.34 730.273L481.479 732.605L483.177 758.858C483.41 762.48 484.734 765.948 486.974 768.805C489.214 771.662 492.266 773.774 495.729 774.864C499.192 775.954 502.904 775.97 506.377 774.912C509.849 773.853 512.92 771.769 515.187 768.933L571.837 697.976Z" fill="#282828"/>
<defs>
<clipPath id="clip0_152_515">
<rect width="1107.9" height="1152" fill="white" transform="translate(22)"/>
</clipPath>
</defs>
</svg>
