<svg width="1152" height="1152" viewBox="0 0 1152 1152" fill="none" xmlns="http://www.w3.org/2000/svg">
<g clip-path="url(#clip0_152_503)">
<g clip-path="url(#clip1_152_503)">
<path d="M260.002 228.352L188.947 161.599L202.224 147.462L297.743 237.203L284.466 251.34L169.155 231.671L240.21 298.423L227.056 312.56L131.538 222.82L144.815 208.683L260.002 228.352Z" fill="black"/>
<path d="M375.19 154.469L328.23 181.023L334.376 211.387L317.289 221.099L289.752 85.996L313.601 72.4734L415.143 165.656L398.055 175.368L375.19 154.469ZM361.053 141.807L311.019 96.1994L324.542 162.583L361.053 141.807Z" fill="black"/>
<path d="M502.671 26.8653L460.382 37.1917L487.058 147.093L468.496 151.519L441.819 41.6172L399.531 51.8206L395.351 34.3642L498.491 9.40894L502.671 26.8653Z" fill="black"/>
<path d="M660.147 92.5114C659.779 98.5351 658.549 104.19 656.459 109.722C654.247 115.254 651.296 120.171 647.362 124.474C642.322 130.129 636.053 134.308 628.8 137.013C621.547 139.717 613.679 140.824 605.442 140.332C597.206 139.84 589.584 137.873 582.331 134.431C575.201 130.989 569.423 126.072 565.121 119.925C561.924 115.5 559.466 110.337 557.745 104.313C556.146 98.4121 555.532 92.5114 555.778 86.7335L560.203 4L579.504 4.98346L575.201 84.3978C575.078 86.8565 575.078 89.1922 575.201 91.405C575.324 93.4948 575.57 95.5847 576.062 97.4287C576.43 99.3956 577.045 101.24 577.906 103.084C578.643 104.928 579.75 106.772 580.979 108.616C583.56 112.549 587.248 115.869 591.92 118.45C596.591 120.909 601.386 122.261 606.549 122.507C611.466 122.753 616.383 121.892 621.055 119.925C625.849 117.958 629.783 115.008 633.102 111.197C636.053 107.878 638.142 104.559 639.126 101.117C640.232 97.6745 640.97 93.249 641.216 87.9629L645.518 8.5485L664.819 9.65489L660.147 92.5114Z" fill="black"/>
<path d="M762.796 175.122L757.633 122.876L757.018 122.63L725.179 110.951L708.829 155.207L690.881 148.569L736.366 25.6362L786.03 43.9532C792.3 46.2889 797.34 49.1163 801.151 52.5584C804.962 56.0005 808.035 60.0573 810.371 64.7288C813.198 70.2607 814.674 75.7927 814.797 81.3246C814.919 86.8566 813.813 92.7574 811.477 99.0269C810.494 101.608 809.388 104.067 807.912 106.28C806.437 108.616 804.839 110.705 803.118 112.672C801.397 114.639 799.43 116.36 797.34 117.959C795.25 119.557 793.16 120.786 790.948 121.892C786.645 123.982 782.096 125.212 777.302 125.457L783.08 182.498L762.796 175.122ZM731.448 93.9867L763.657 105.911C766.607 107.018 769.926 107.509 773.491 107.14C777.056 106.895 780.252 105.911 783.203 104.067C785.539 102.715 787.628 100.994 789.472 98.6581C791.316 96.3224 792.669 93.9867 793.652 91.4051C794.759 88.4547 795.373 85.3814 795.373 82.0622C795.496 78.7431 794.881 75.7927 793.775 72.9652C791.439 67.3103 787.014 63.2536 780.375 60.7949L748.167 48.8705L731.448 93.9867Z" fill="black"/>
<path d="M882.163 216.55L839.014 184.219L813.69 202.044L797.955 190.243L910.561 110.828L932.443 127.178L887.941 257.61L872.206 245.808L882.163 216.55ZM888.064 198.602L909.7 134.308L854.381 173.401L888.064 198.602Z" fill="black"/>
<path d="M1020.95 213.969L931.828 283.548L968.339 330.386L954.079 341.45L905.889 279.492L1009.28 198.971L1020.95 213.969Z" fill="black"/>
<path d="M139.774 635.75L2.45865 652.469L0 632.554L137.316 615.712L139.774 635.75Z" fill="black"/>
<path d="M80.5208 798.267L176.531 761.51L183.784 780.565L54.582 829.983L47.329 810.929L118.999 710.616L22.9884 747.373L15.7354 728.318L144.937 678.899L152.19 697.954L80.5208 798.267Z" fill="black"/>
<path d="M225.212 953.407C218.205 959.308 210.706 963.734 202.593 966.93C194.479 970.126 186.488 971.724 178.498 971.847C169.401 971.97 160.796 970.003 152.928 965.824C145.06 961.644 137.807 955.743 131.415 948.121C124.899 940.377 120.351 932.017 117.892 923.166C115.433 914.315 115.188 905.218 117.155 896.121C121.088 879.525 130.431 865.019 145.06 852.726C160.796 839.449 176.777 832.688 193.127 832.442C202.347 832.196 211.198 834.04 219.434 837.974C227.671 841.908 235.047 847.808 241.562 855.43C253.241 869.199 258.527 883.582 257.543 898.58C257.42 909.398 254.101 919.478 247.463 928.821L230.744 914.561C233.94 908.906 235.784 903.62 236.03 898.825C236.768 893.908 236.399 888.991 234.801 884.073C233.203 879.156 230.621 874.608 227.056 870.305C222.754 865.142 217.59 861.085 211.813 858.258C206.158 855.307 200.134 854.078 193.987 854.57C183.169 854.816 171.859 860.102 159.812 870.182C148.011 880.14 140.881 890.466 138.545 901.284C137.07 907.185 137.193 913.086 138.914 918.986C140.512 924.887 143.462 930.296 147.642 935.213C155.632 944.679 164.852 949.596 175.547 950.211C180.342 950.457 185.013 949.719 189.685 948.244C194.356 946.769 198.659 944.679 202.716 941.852L183.046 918.495L195.34 908.045L230.007 949.228C229.761 949.596 229.146 950.088 228.408 950.703C227.548 951.317 226.564 952.301 225.212 953.407Z" fill="black"/>
<path d="M302.906 1085.44L308.438 1030.36L307.823 1029.99L277.459 1011.19L251.274 1053.6L234.063 1043.03L306.717 925.379L354.291 954.76C360.315 958.448 364.987 962.505 368.183 966.807C371.379 971.11 373.715 976.027 375.19 981.313C376.911 987.706 377.28 993.729 376.296 999.384C375.313 1005.04 372.977 1010.94 369.289 1016.96C367.814 1019.42 365.97 1021.64 364.003 1023.72C362.036 1025.81 359.946 1027.66 357.734 1029.26C355.521 1030.85 353.185 1032.33 350.726 1033.56C348.268 1034.79 345.809 1035.65 343.35 1036.26C338.433 1037.49 333.516 1037.86 328.476 1037.12L322.452 1097.36L302.906 1085.44ZM287.416 994.959L318.272 1014.01C321.1 1015.73 324.419 1016.96 328.107 1017.33C331.795 1017.82 335.36 1017.46 338.802 1016.23C341.506 1015.37 344.088 1013.89 346.424 1011.92C348.759 1009.96 350.726 1007.74 352.202 1005.28C353.923 1002.46 355.152 999.384 356.012 996.065C356.75 992.746 356.873 989.427 356.258 986.353C355.029 980.084 351.218 974.921 344.949 970.987L314.093 951.932L287.416 994.959Z" fill="black"/>
<path d="M437.148 1013.28L427.19 1050.65L481.895 1065.28L476.978 1083.59L422.273 1068.96L411.209 1110.27L477.101 1127.85L472.184 1146.17L386.868 1123.42L422.519 989.795L507.834 1012.54L502.917 1030.85L437.148 1013.28Z" fill="black"/>
<path d="M639.126 1032.45C645.518 1038.6 650.19 1046.1 653.509 1054.7C656.705 1063.31 658.549 1072.65 658.918 1082.61C659.287 1092.32 658.18 1101.66 655.476 1110.64C652.771 1119.74 648.715 1127.48 643.429 1133.87C638.02 1140.26 631.381 1145.18 623.759 1148.5C616.138 1151.94 607.778 1153.79 598.681 1154.16L551.475 1156L545.943 1017.82L593.272 1015.86C602.492 1015.49 611.097 1016.72 618.965 1019.42C626.71 1022.37 633.471 1026.68 639.126 1032.45ZM627.816 1121.46C634.946 1112.11 638.142 1099.21 637.528 1082.61C637.282 1075.23 636.053 1068.35 633.963 1062.2C631.873 1055.93 628.8 1050.65 624.743 1046.34C620.686 1042.04 616.138 1039.09 611.097 1037.37C606.057 1035.65 600.402 1034.91 594.01 1035.16L567.21 1036.26L571.267 1136.21L597.944 1135.1C603.967 1134.86 609.622 1133.63 614.785 1131.29C619.826 1128.96 624.128 1125.76 627.816 1121.46Z" fill="black"/>
<path d="M713.008 996.188L751.117 1129.2L731.817 1134.73L693.708 1001.72L713.008 996.188Z" fill="black"/>
<path d="M782.219 989.796L800.782 1023.72L850.447 996.557L859.544 1013.15L809.879 1040.32L830.409 1077.69L890.154 1044.99L899.251 1061.59L821.804 1104L755.297 982.788L832.745 940.377L841.842 956.973L782.219 989.796Z" fill="black"/>
<path d="M999.441 925.625L925.313 854.447L939.45 839.695L1039.27 935.459L1025.13 950.211L903.799 928.206L977.928 999.384L963.79 1014.14L863.969 918.372L878.106 903.62L999.441 925.625Z" fill="black"/>
<path d="M1021.69 726.105L1001.29 767.288L1108.24 820.149L1099.39 838.22L992.434 785.359L972.027 826.418L955.062 818.059L1004.73 717.746L1021.69 726.105Z" fill="black"/>
<path d="M1064.84 617.31C1060.17 618.539 1056.24 619.892 1052.92 621.613C1049.6 623.334 1046.65 625.792 1043.94 628.989C1039.39 634.152 1036.57 640.053 1035.46 646.691C1034.23 654.313 1034.6 660.705 1036.57 665.746C1037.8 668.819 1039.52 671.4 1041.85 673.49C1044.19 675.58 1046.89 676.809 1049.72 677.301C1053.41 677.916 1056.85 677.178 1060.05 675.211C1063.12 672.876 1066.93 667.467 1071.23 659.107L1082.17 636.119C1084.76 630.833 1087.34 626.407 1090.04 622.842C1092.75 619.277 1095.82 616.081 1099.14 613.499C1103.44 610.303 1108.11 607.967 1113.15 606.738C1118.19 605.386 1123.36 605.14 1128.4 606C1134.18 606.984 1139.58 609.442 1144.62 613.376C1149.54 617.31 1153.35 622.105 1155.93 627.759C1158.52 633.045 1159.99 638.7 1160.24 644.847C1160.61 650.994 1160.11 657.755 1158.88 665.254C1157.41 674.597 1154.58 682.587 1150.53 689.226C1146.47 695.864 1140.94 701.396 1133.68 705.822C1126.18 710.493 1117.21 713.075 1106.76 713.689L1104.55 692.668C1112.17 692.422 1118.56 690.701 1123.73 687.627C1128.03 685.292 1131.59 681.727 1134.54 677.055C1137.49 672.261 1139.34 667.098 1140.32 661.443C1141.06 656.894 1141.18 652.469 1140.81 647.92C1140.44 643.249 1139.34 639.561 1137.86 636.611C1135.28 631.324 1130.86 628.128 1124.34 627.022C1119.55 626.284 1115.12 627.268 1111.31 630.341C1107.62 633.045 1104.3 637.594 1101.11 643.986L1089.55 668.081C1084.26 679.022 1078.61 686.89 1072.83 691.561C1069.14 694.635 1064.84 696.725 1060.05 697.831C1055.25 698.937 1050.58 699.06 1045.79 698.2C1039.15 697.093 1033.25 694.143 1028.08 689.349C1022.92 684.431 1019.36 678.776 1017.51 672.261C1015.05 664.147 1014.81 654.559 1016.65 643.495C1018.5 632.308 1022.18 623.211 1027.72 616.204C1036.07 606 1047.63 599.362 1062.51 596.412L1064.84 617.31Z" fill="black"/>
</g>
<path d="M448.316 657.701C444.499 659.964 440.144 661.158 435.706 661.158C431.269 661.158 426.913 659.964 423.096 657.701C400.067 641.947 380.53 621.619 365.701 597.983C350.871 574.348 341.069 547.911 336.904 520.321C334.777 493.152 324.622 467.228 307.728 445.845L306.788 444.51C305.156 442.477 304.19 439.99 304.019 437.389C303.926 435.741 304.181 434.092 304.77 432.55C305.358 431.007 306.266 429.607 307.433 428.44C308.6 427.273 310 426.365 311.542 425.777C313.084 425.188 314.733 424.932 316.381 425.026C317.338 425.103 318.283 425.285 319.2 425.57C344.833 435.183 367.839 450.702 386.354 470.868L424.926 393.722C425.937 391.702 427.49 390.003 429.411 388.816C431.333 387.629 433.547 387 435.805 387C438.064 387 440.278 387.629 442.199 388.816C444.121 390.003 445.674 391.702 446.684 393.722L485.256 470.868C503.399 450.809 526.113 435.422 551.471 426.015C553.043 425.371 554.718 425.019 556.416 424.976C565.07 425.421 566.899 430.861 567.345 437.29C567.139 439.739 566.414 442.116 565.218 444.263C551.048 467.821 540.746 493.5 534.707 520.321C530.507 547.924 520.669 574.366 505.806 598.001C490.943 621.636 471.374 641.958 448.316 657.701Z" fill="#282828"/>
<path d="M847.997 751.733C847.997 755.038 846.684 758.208 844.347 760.545C842.01 762.882 838.84 764.195 835.535 764.195H579.132C577.004 764.201 574.909 763.662 573.047 762.629C571.186 761.596 569.62 760.103 568.5 758.293C567.379 756.483 566.741 754.417 566.646 752.29C566.551 750.163 567.002 748.048 567.956 746.145L695.935 489.782C696.969 487.709 698.56 485.965 700.53 484.747C702.5 483.528 704.77 482.882 707.086 482.882C709.403 482.882 711.673 483.528 713.643 484.747C715.613 485.965 717.204 487.709 718.238 489.782L846.81 746.145C847.635 747.89 848.041 749.803 847.997 751.733ZM769.123 665.289L707.309 541.658L645.495 665.289H769.123Z" fill="#282828"/>
</g>
<defs>
<clipPath id="clip0_152_503">
<rect width="1152" height="1152" fill="white"/>
</clipPath>
<clipPath id="clip1_152_503">
<rect width="1160.61" height="1152" fill="white" transform="translate(0 4)"/>
</clipPath>
</defs>
</svg>
