<svg width="1152" height="1152" viewBox="0 0 1152 1152" fill="none" xmlns="http://www.w3.org/2000/svg">
<g clip-path="url(#clip0_366_630)">
<path d="M254.923 192.205C260.703 202.289 263.285 212.495 262.67 222.702C262.302 236.721 256.153 249.879 243.979 262.176C237.215 268.939 229.837 273.981 221.721 276.932C213.605 280.007 205.243 280.99 196.512 280.007C188.273 278.9 180.525 276.318 173.27 272.628C166.015 268.816 159.251 263.897 153.226 257.872C139.084 243.73 131.091 228.973 129.369 213.479C128.508 204.625 129.492 196.14 132.566 188.147C135.641 180.154 140.436 172.652 147.2 166.012C159.497 153.592 172.655 147.443 186.551 147.32C198.233 146.582 209.547 149.657 220.245 156.42L208.686 172.037C203.398 168.963 198.11 167.119 192.822 166.504C180.771 164.782 169.95 168.84 160.235 178.555C158.021 180.768 156.177 183.105 154.455 185.687C152.734 188.27 151.504 190.975 150.397 193.68C149.413 196.386 148.676 199.337 148.43 202.166C148.061 205.117 148.184 207.945 148.676 210.774C149.782 221.349 155.808 232.048 166.752 242.869C171.917 247.788 177.205 251.846 182.37 254.92C187.535 257.995 193.068 259.962 198.971 260.7C205.12 261.684 211.022 261.069 216.679 258.733C222.336 256.396 227.501 252.83 232.419 248.034C236.723 243.607 239.921 238.688 241.642 233.277C243.487 227.867 243.979 222.21 243.118 216.307C242.503 211.388 240.782 206.715 238.322 202.043L254.923 192.205Z" fill="#E1E7FE"/>
<path d="M374.575 168.225L332.15 137.359L331.535 137.728L301.653 153.592L323.788 195.279L306.817 204.256L245.332 88.4165L292.061 63.5762C297.963 60.3789 303.497 58.5344 308.662 58.0425C313.827 57.4276 318.869 57.9195 323.911 59.2722C329.936 60.8708 334.978 63.4532 339.159 67.0194C343.34 70.5856 347.029 75.2585 350.227 81.1612C351.456 83.6206 352.563 86.0801 353.301 88.6625C354.039 91.2449 354.531 93.8273 354.899 96.5327C355.145 99.1151 355.268 101.82 355.022 104.28C354.776 106.862 354.408 109.322 353.793 111.658C352.44 116.208 350.349 120.512 347.398 124.201L393.881 157.896L374.575 168.225ZM293.168 137.605L323.542 121.496C326.37 120.02 328.829 117.807 331.043 115.101C333.133 112.273 334.609 109.199 335.224 105.879C335.839 103.296 335.839 100.468 335.347 97.6394C334.855 94.6881 333.994 92.1057 332.642 89.7692C331.166 86.9409 329.198 84.4814 326.862 82.2679C324.525 80.0544 321.82 78.4558 318.992 77.472C313.212 75.5045 307.186 76.1193 301.038 79.4396L270.664 95.5489L293.168 137.605Z" fill="#E1E7FE"/>
<path d="M511.443 83.1289C512.549 89.0316 512.672 94.9342 511.934 100.714C511.197 106.617 509.352 112.027 506.647 117.192C503.08 123.956 498.039 129.489 491.644 133.793C485.25 138.22 477.871 141.172 469.755 142.647C461.639 144.123 453.769 144.123 445.899 142.401C438.151 140.68 431.388 137.36 425.731 132.441C421.55 128.997 417.984 124.447 414.787 119.037C411.835 113.626 409.745 108.092 408.761 102.436L393.267 20.9052L412.204 17.339L427.084 95.4261C427.576 97.8856 428.068 100.099 428.682 102.19C429.297 104.28 430.035 106.125 430.896 107.846C431.757 109.568 432.741 111.289 433.97 112.888C435.2 114.487 436.553 115.962 438.274 117.561C441.84 120.758 446.144 123.095 451.309 124.57C456.474 125.8 461.516 126.046 466.435 125.062C471.354 124.079 475.781 122.111 479.962 119.037C484.143 115.962 487.217 112.15 489.554 107.723C491.644 103.788 492.874 100.099 492.997 96.5329C493.243 92.9667 492.874 88.5397 491.89 83.2519L477.01 5.16482L495.948 1.59863L511.443 83.1289Z" fill="#E1E7FE"/>
<path d="M585.718 19.9214L581.905 56.3211L635.275 61.8548L633.431 79.8087L580.061 74.275L575.88 114.487L640.194 121.127L638.35 139.081L554.975 130.473L568.624 0L651.999 8.60803L650.155 26.5619L585.718 19.9214Z" fill="#E1E7FE"/>
<path d="M738.571 32.7107L698.605 138.589L754.189 159.618L747.794 176.465L674.38 148.673L720.74 25.9473L738.571 32.7107Z" fill="#E1E7FE"/>
<path d="M905.444 145.107L869.536 120.512L805.714 213.971L789.974 203.149L853.796 109.814L817.888 85.2194L828.095 70.3398L915.651 130.227L905.444 145.107Z" fill="#E1E7FE"/>
<path d="M1022.14 246.681L934.712 262.176L893.147 296.854L880.727 281.974L922.292 247.296L952.912 163.798L967.176 180.891L945.287 240.779L1007.88 229.711L1022.14 246.681Z" fill="#E1E7FE"/>
<path d="M343.832 984.021L327.723 1019.56L373.468 1040.34L365.229 1058.54L319.484 1037.76L295.012 1091.62L276.566 1083.26L333.748 957.213L408.392 991.03L400.03 1009.48L343.832 984.021Z" fill="#E1E7FE"/>
<path d="M496.686 1148.68L480.085 1095.8L479.347 1095.68L444.054 1090.39L436.676 1139.7L416.754 1136.75L437.291 999.884L492.505 1008.12C499.514 1009.23 505.294 1011.07 510.09 1013.78C514.763 1016.49 518.821 1020.05 522.264 1024.36C526.322 1029.52 529.028 1034.93 530.38 1040.59C531.733 1046.24 531.856 1052.52 530.749 1059.53C530.38 1062.35 529.643 1065.18 528.659 1067.89C527.675 1070.59 526.445 1073.05 525.093 1075.51C523.617 1077.97 522.141 1080.18 520.297 1082.15C518.575 1084.24 516.608 1086.09 514.64 1087.56C510.582 1090.64 506.155 1092.85 501.359 1094.2L519.559 1152L496.686 1148.68ZM446.882 1071.58L482.667 1076.99C485.988 1077.48 489.431 1077.23 492.997 1076.25C496.563 1075.27 499.637 1073.54 502.343 1071.08C504.433 1069.24 506.278 1066.9 507.631 1064.08C508.983 1061.25 509.967 1058.54 510.336 1055.71C510.828 1052.39 510.828 1049.07 510.213 1045.75C509.598 1042.31 508.368 1039.36 506.647 1036.78C503.081 1031.49 497.547 1028.29 490.169 1027.18L454.384 1021.77L446.882 1071.58Z" fill="#E1E7FE"/>
<path d="M591.866 1029.52L597.277 1067.76L653.352 1059.89L655.934 1078.71L599.859 1086.58L605.762 1128.88L673.273 1119.41L675.856 1138.23L588.3 1150.52L569.239 1013.53L656.795 1001.24L659.378 1020.05L591.866 1029.52Z" fill="#E1E7FE"/>
<path d="M720.495 999.392L736.481 1034.56L788.006 1011.07L795.877 1028.41L744.351 1051.9L762.059 1090.76L824.16 1062.6L832.03 1079.94L751.607 1116.46L694.425 990.538L774.848 954.016L782.719 971.355L720.495 999.392Z" fill="#E1E7FE"/>
</g>
<path d="M508.189 483.595C518.08 486.083 525.227 492.807 530.886 501.116C534.691 507.719 537.296 514.658 539.74 521.86C540.403 523.807 541.074 525.754 541.85 527.659C544.195 533.44 545.286 539.04 546.082 545.213C546.219 546.231 546.355 547.25 546.496 548.299C548.041 560.706 548.395 573.18 548.679 585.669C550.038 586.011 551.397 586.353 552.797 586.705C553.561 586.898 554.325 587.09 555.113 587.288C557.242 587.808 559.384 588.276 561.527 588.739C567.706 590.257 573.48 592.959 579.295 595.493C579.295 596.214 579.295 596.934 579.295 597.677C580.091 597.959 580.887 598.242 581.708 598.534C596.443 604.932 608.191 620.429 614.283 634.79C618.739 648.038 619.597 660.649 613.574 673.446C607.964 684.162 600.623 691.752 589.135 695.917C585.086 697.027 581.002 697.965 576.89 698.818C573.095 699.611 570.535 700.292 567.267 702.467C566.171 705.54 565.251 708.536 564.397 711.677C561.318 722.526 557.765 733.178 554.033 743.82C553.622 745.018 553.211 746.216 552.788 747.451C552.418 748.512 552.047 749.574 551.665 750.668C550.796 754.044 550.579 756.848 550.866 760.32C552.871 762.323 552.871 762.323 555.581 763.662C562.463 767.864 562.463 767.864 563.987 772.327C564.765 777.069 565.095 781.287 562.667 785.57C559.827 789.002 557.217 791.39 553.053 793.066C549.761 793.334 549.761 793.334 545.86 793.328C544.789 793.331 544.789 793.331 543.697 793.335C542.148 793.338 540.6 793.338 539.051 793.333C536.578 793.326 534.106 793.337 531.633 793.351C524.603 793.392 517.573 793.412 510.542 793.4C484.695 793.07 484.695 793.07 459.544 798.342C434.998 806.564 398.624 799.856 375.798 788.824C362.098 781.631 350.627 771.186 344.333 756.874C341.073 748.356 341.073 748.356 334.735 742.373C331.655 741.657 331.655 741.657 328.555 741.26C322.557 740.055 318.674 735.467 315.165 730.707C309.75 722.343 309.575 714.391 310.318 704.65C311.295 701.297 312.67 698.747 314.691 695.917C315.277 694.949 315.864 693.981 316.468 692.984C321.124 688.458 327.285 686.238 333.142 683.569C336.676 680.767 338.046 677.019 339.839 672.994C350.578 648.955 369.062 631.574 393.86 621.947C419.807 613.05 451.984 609.987 477.86 621.013C479.717 621.931 481.553 622.892 483.348 623.925C485.219 625.14 485.219 625.14 487.449 624.966C488.193 623.472 488.918 621.969 489.636 620.463C490.244 619.209 490.244 619.209 490.866 617.93C492.058 614.455 492.414 612.241 491.822 608.592C489.726 606.403 487.87 604.778 485.467 602.998C462.196 584.493 444.18 556.34 439.339 526.725C438.288 511.212 438.288 511.212 441.047 505.644C444.893 501.411 448.012 500.736 453.626 500.387C468.618 500.842 480.845 515.73 490.729 525.633C490.703 524.727 490.703 524.727 490.677 523.802C490.031 497.67 490.031 497.67 497.494 487.838C500.893 484.317 503.286 483.021 508.189 483.595Z" fill="#E1E7FE"/>
<circle cx="546.008" cy="625.008" r="8.00787" fill="#E1E7FE"/>
<path d="M675.649 350.11C667.388 352.194 661.419 357.829 656.692 364.792C653.514 370.326 651.338 376.14 649.296 382.175C648.742 383.807 648.182 385.438 647.534 387.035C645.576 391.879 644.664 396.572 643.999 401.745C643.885 402.598 643.771 403.451 643.653 404.33C642.362 414.727 642.067 425.181 641.83 435.647C640.695 435.933 639.56 436.22 638.391 436.515C637.752 436.676 637.114 436.837 636.456 437.003C634.677 437.438 632.888 437.831 631.099 438.219C625.938 439.491 621.115 441.755 616.258 443.879C616.258 444.483 616.258 445.087 616.258 445.709C615.593 445.946 614.928 446.183 614.242 446.427C601.935 451.789 592.122 464.775 587.033 476.809C583.312 487.911 582.595 498.479 587.625 509.203C592.311 518.182 598.444 524.543 608.039 528.033C611.421 528.963 614.832 529.749 618.266 530.464C621.436 531.129 623.574 531.699 626.304 533.521C627.219 536.097 627.988 538.607 628.701 541.239C631.273 550.331 634.24 559.258 637.358 568.175C637.701 569.179 638.044 570.183 638.398 571.218C638.707 572.107 639.017 572.997 639.336 573.913C640.062 576.743 640.243 579.092 640.003 582.002C638.328 583.681 638.328 583.681 636.065 584.803C630.317 588.324 630.317 588.324 629.044 592.063C628.394 596.037 628.118 599.572 630.146 603.162C632.519 606.037 634.698 608.039 638.177 609.443C640.926 609.667 640.926 609.667 644.184 609.662C645.079 609.665 645.079 609.665 645.991 609.668C647.285 609.671 648.578 609.67 649.872 609.666C651.937 609.661 654.002 609.669 656.067 609.682C661.94 609.716 667.812 609.733 673.684 609.722C695.274 609.446 695.274 609.446 716.281 613.864C736.783 620.754 767.165 615.132 786.231 605.888C797.674 599.86 807.255 591.108 812.512 579.114C815.235 571.976 815.235 571.976 820.528 566.962C823.101 566.363 823.101 566.363 825.691 566.03C830.701 565.02 833.944 561.175 836.875 557.186C841.398 550.178 841.544 543.514 840.924 535.351C840.107 532.541 838.959 530.404 837.271 528.033C836.781 527.222 836.291 526.411 835.787 525.575C831.898 521.782 826.751 519.922 821.859 517.685C818.907 515.338 817.763 512.196 816.265 508.824C807.296 488.679 791.857 474.115 771.144 466.047C749.472 458.591 722.595 456.024 700.982 465.264C699.431 466.033 697.897 466.839 696.398 467.705C694.836 468.722 694.836 468.722 692.973 468.576C692.351 467.325 691.746 466.066 691.147 464.803C690.638 463.753 690.638 463.753 690.119 462.681C689.123 459.768 688.826 457.914 689.32 454.856C691.071 453.021 692.621 451.659 694.628 450.168C714.066 434.661 729.114 411.069 733.157 386.252C734.035 373.252 734.035 373.252 731.73 368.586C728.518 365.039 725.913 364.474 721.224 364.181C708.701 364.562 698.489 377.038 690.233 385.337C690.255 384.578 690.255 384.578 690.277 383.803C690.816 361.904 690.816 361.904 684.582 353.665C681.744 350.715 679.745 349.629 675.649 350.11Z" fill="#E1E7FE"/>
<ellipse cx="6.22835" cy="6.67323" rx="6.22835" ry="6.67323" transform="matrix(-1 0 0 1 648.457 464)" fill="#E1E7FE"/>
<defs>
<clipPath id="clip0_366_630">
<rect width="893.144" height="1152" fill="white" transform="translate(129)"/>
</clipPath>
</defs>
</svg>
